<svg width="80" height="80" viewBox="0 0 80 80" fill="none" xmlns="http://www.w3.org/2000/svg">
<path opacity="0.15" d="M40 0C62.09 0 80 17.91 80 40C80 62.09 62.09 80 40 80C17.91 80 0 62.09 0 40C0 17.91 17.91 0 40 0Z" fill="#00B587"/>
<path d="M40 15C53.81 15 65 26.19 65 40C65 53.81 53.81 65 40 65C26.19 65 15 53.81 15 40C15 26.19 26.19 15 40 15Z" fill="url(#paint0_linear_495_1667)"/>
<path d="M45.1999 39.8995L45.8099 39.3095C46.0699 39.0595 46.0699 38.6495 45.8099 38.3995L40.4699 33.1895C40.2099 32.9395 39.7899 32.9395 39.5399 33.1895L34.1999 38.3995C33.9399 38.6495 33.9399 39.0595 34.1999 39.3095L34.8099 39.8995C35.0699 40.1495 35.4999 40.1495 35.7499 39.8895L38.8999 36.6595V47.3595C38.8999 47.7195 39.1899 47.9995 39.5599 47.9995H40.4399C40.8099 47.9995 41.0999 47.7095 41.0999 47.3595V36.6595L44.2499 39.8895C44.5099 40.1495 44.9299 40.1595 45.1899 39.8995H45.1999Z" fill="white"/>
<defs>
<linearGradient id="paint0_linear_495_1667" x1="24.81" y1="35.9" x2="63.56" y2="46.36" gradientUnits="userSpaceOnUse">
<stop offset="0.216346" stop-color="#00B587"/>
<stop offset="1" stop-color="#008984"/>
</linearGradient>
</defs>
</svg>
