<svg xmlns="http://www.w3.org/2000/svg" width="20" height="16.253" viewBox="0 0 20 16.253">
  <path id="패스_2232" data-name="패스 2232" d="M25.952,13.547c.009.176.013.351.013.53a12.348,12.348,0,0,1-2.653,7.45,11.1,11.1,0,0,1-9.022,4.225A11.6,11.6,0,0,1,8,23.909a8.721,8.721,0,0,0,.979.056,8.22,8.22,0,0,0,5.095-1.755,4.109,4.109,0,0,1-3.831-2.85,4.224,4.224,0,0,0,.771.074,4.14,4.14,0,0,0,1.08-.144A4.11,4.11,0,0,1,8.8,15.266v-.051a4.092,4.092,0,0,0,1.86.513,4.11,4.11,0,0,1-1.27-5.479,11.644,11.644,0,0,0,8.458,4.288,4.106,4.106,0,0,1,6.991-3.743,8.206,8.206,0,0,0,2.606-1,4.111,4.111,0,0,1-1.8,2.27A8.179,8.179,0,0,0,28,11.424a8.331,8.331,0,0,1-2.048,2.124" transform="translate(-8 -9.5)" fill="#fff"/>
</svg>
