<svg width="60" height="60" viewBox="0 0 60 60" fill="none" xmlns="http://www.w3.org/2000/svg">
<path d="M11.3052 48.0314V20.1365C11.3052 18.7717 12.4115 17.6654 13.7762 17.6654H47.1819C48.5467 17.6654 49.6426 18.7717 49.6426 20.1365V48.0417" fill="#FFD600"/>
<path d="M11.3052 48.0314V20.1365C11.3052 18.7717 12.4115 17.6654 13.7762 17.6654H47.1819C48.5467 17.6654 49.6426 18.7717 49.6426 20.1365V48.0417" stroke="#282828" stroke-width="2.5" stroke-linecap="round" stroke-linejoin="round"/>
<path d="M23.2261 38.2554L23.3492 36.3687L21.7769 37.4214L21.1343 36.314L22.8297 35.48L21.1343 34.6323L21.7769 33.5249L23.3492 34.5776L23.2261 32.6909H24.5113L24.3882 34.5776L25.9605 33.5249L26.6031 34.6323L24.9078 35.48L26.6031 36.314L25.9605 37.4214L24.3882 36.3687L24.5113 38.2554H23.2261ZM30.353 38.2554L30.4761 36.3687L28.9038 37.4214L28.2612 36.314L29.9565 35.48L28.2612 34.6323L28.9038 33.5249L30.4761 34.5776L30.353 32.6909H31.6382L31.5151 34.5776L33.0874 33.5249L33.73 34.6323L32.0347 35.48L33.73 36.314L33.0874 37.4214L31.5151 36.3687L31.6382 38.2554H30.353ZM37.4799 38.2554L37.6029 36.3687L36.0307 37.4214L35.3881 36.314L37.0834 35.48L35.3881 34.6323L36.0307 33.5249L37.6029 34.5776L37.4799 32.6909H38.765L38.642 34.5776L40.2143 33.5249L40.8568 34.6323L39.1615 35.48L40.8568 36.314L40.2143 37.4214L38.642 36.3687L38.765 38.2554H37.4799Z" fill="black"/>
<path d="M17.9839 47.9177H7.5V52.529C7.5 52.8702 7.57237 53.1907 7.69644 53.4905C7.82051 53.7903 7.99628 54.0488 8.22374 54.2763C8.4512 54.5037 8.70968 54.6795 9.00951 54.8036C9.30935 54.9276 9.62986 55 9.97105 55H50.9967C51.3379 55 51.6584 54.9276 51.9582 54.8036C52.2581 54.6795 52.5165 54.5037 52.744 54.2763C52.9715 54.0488 53.1472 53.7903 53.2713 53.4905C53.3954 53.201 53.4677 52.8702 53.4677 52.529V47.9177H42.9839" fill="#FFD600"/>
<path d="M17.9839 47.9177H7.5V52.529C7.5 52.8702 7.57237 53.1907 7.69644 53.4905C7.82051 53.7903 7.99628 54.0488 8.22374 54.2763C8.4512 54.5037 8.70968 54.6795 9.00951 54.8036C9.30935 54.9276 9.62986 55 9.97105 55H50.9967C51.3379 55 51.6584 54.9276 51.9582 54.8036C52.2581 54.6795 52.5165 54.5037 52.744 54.2763C52.9715 54.0488 53.1472 53.7903 53.2713 53.4905C53.3954 53.201 53.4677 52.8702 53.4677 52.529V47.9177H42.9839" stroke="#282828" stroke-width="2.5" stroke-linecap="round" stroke-linejoin="round"/>
<path d="M34.9195 11.8445V9.0426C34.9195 6.59222 32.924 5 30.4737 5C28.0233 5 26.0278 6.59222 26.0278 9.0426V11.8445" stroke="#282828" stroke-width="2.5" stroke-linecap="round" stroke-linejoin="round"/>
<path d="M26.0381 11.8445V9.0426C26.0381 6.59222 28.0335 5 30.4839 5C32.9343 5 34.9297 6.59222 34.9297 9.0426V11.8445" stroke="#282828" stroke-width="2.5" stroke-linecap="round" stroke-linejoin="round"/>
<path d="M24.508 12.2063H36.4497C37.5456 12.2063 38.4244 13.0955 38.4244 14.1811V23.5587C38.4244 24.6546 37.5353 25.5334 36.4497 25.5334H24.508C23.412 25.5334 22.5332 24.6443 22.5332 23.5587V14.1811C22.5332 13.0851 23.4224 12.2063 24.508 12.2063Z" fill="white" stroke="#282828" stroke-width="2.5" stroke-linecap="round" stroke-linejoin="round"/>
<path d="M30.4839 17.1796V20.2916" stroke="#282828" stroke-width="2.5" stroke-linecap="round" stroke-linejoin="round"/>
</svg>
