<svg width="60" height="60" viewBox="0 0 60 60" fill="none" xmlns="http://www.w3.org/2000/svg">
<path d="M18.1095 5H41.8751C43.0975 5 44.0802 5.98274 44.0802 7.20518V52.7948C44.0802 54.0173 43.0975 55 41.8751 55H18.1095C16.887 55 15.9043 54.0173 15.9043 52.7948V7.20518C15.9043 5.98274 16.887 5 18.1095 5Z" fill="#6ABBEE" stroke="#282828" stroke-width="2.5" stroke-linecap="round" stroke-linejoin="round"/>
<path d="M28.2241 12.3944H31.7476" stroke="#282828" stroke-width="2.5" stroke-linecap="round" stroke-linejoin="round"/>
<path d="M56.4722 24.9904H3.5V43.5666H56.4722V24.9904Z" fill="white" stroke="#282828" stroke-width="2.5" stroke-linecap="round" stroke-linejoin="round"/>
<path d="M17.0307 35.7406L15.9281 37.3106C15.8442 37.4305 15.7723 37.4784 15.7004 37.4784C15.6165 37.4904 15.5086 37.4664 15.4127 37.3825L14.5498 36.7474C14.43 36.6754 14.3821 36.6035 14.3581 36.5316C14.3341 36.4717 14.3581 36.3758 14.442 36.256L15.5685 34.7579L13.7589 34.1227C13.615 34.0748 13.5431 34.0268 13.5192 33.9549C13.4952 33.895 13.4952 33.7991 13.5431 33.6673L13.8907 32.6606C13.9386 32.5407 13.9866 32.4568 14.0585 32.4209C14.1184 32.3969 14.2023 32.3969 14.3461 32.4329L16.1438 33.0081V31.4382C16.1438 31.2943 16.1678 31.2104 16.2277 31.1505C16.2876 31.1026 16.3715 31.0786 16.5153 31.0786H17.57C17.7018 31.0786 17.7977 31.1026 17.8576 31.1505C17.9175 31.2104 17.9415 31.2943 17.9415 31.4382V33.0081L19.7392 32.4329C19.871 32.3849 19.9669 32.3849 20.0388 32.4209C20.0987 32.4688 20.1347 32.5527 20.1946 32.6606L20.5422 33.6673C20.5901 33.7991 20.6021 33.895 20.5661 33.9549C20.5422 34.0268 20.4463 34.0868 20.3264 34.1227L18.5168 34.7579L19.6433 36.256C19.7272 36.3758 19.7632 36.4717 19.7392 36.5316C19.7152 36.6035 19.6433 36.6754 19.5355 36.7474L18.6726 37.3825C18.5527 37.4664 18.4688 37.5024 18.3969 37.4784C18.313 37.4784 18.2291 37.4185 18.1572 37.3106L17.0307 35.7406Z" fill="black"/>
<path d="M25.6596 35.7406L24.557 37.3106C24.4731 37.4305 24.4012 37.4784 24.3293 37.4784C24.2454 37.4904 24.1375 37.4664 24.0416 37.3825L23.1787 36.7474C23.0589 36.6754 23.011 36.6035 22.987 36.5316C22.963 36.4717 22.987 36.3758 23.0709 36.256L24.1974 34.7579L22.3878 34.1227C22.2439 34.0748 22.172 34.0268 22.1481 33.9549C22.1241 33.895 22.1241 33.7991 22.172 33.6673L22.5196 32.6606C22.5675 32.5407 22.6155 32.4568 22.6874 32.4209C22.7473 32.3969 22.8312 32.3969 22.975 32.4329L24.7727 33.0081V31.4382C24.7727 31.2943 24.7967 31.2104 24.8566 31.1505C24.9165 31.1026 25.0004 31.0786 25.1442 31.0786H26.1989C26.3307 31.0786 26.4266 31.1026 26.4865 31.1505C26.5464 31.2104 26.5704 31.2943 26.5704 31.4382V33.0081L28.3681 32.4329C28.4999 32.3849 28.5958 32.3849 28.6677 32.4209C28.7276 32.4688 28.7636 32.5527 28.8235 32.6606L29.1711 33.6673C29.219 33.7991 29.231 33.895 29.195 33.9549C29.1711 34.0268 29.0752 34.0868 28.9554 34.1227L27.1457 34.7579L28.2722 36.256C28.3561 36.3758 28.3921 36.4717 28.3681 36.5316C28.3441 36.6035 28.2722 36.6754 28.1644 36.7474L27.3015 37.3825C27.1816 37.4664 27.0977 37.5024 27.0258 37.4784C26.9419 37.4784 26.858 37.4185 26.7861 37.3106L25.6596 35.7406Z" fill="black"/>
<path d="M34.289 35.7406L33.1864 37.3106C33.1025 37.4305 33.0306 37.4784 32.9587 37.4784C32.8748 37.4904 32.7669 37.4664 32.671 37.3825L31.8081 36.7474C31.6883 36.6754 31.6404 36.6035 31.6164 36.5316C31.5924 36.4717 31.6164 36.3758 31.7003 36.256L32.8268 34.7579L31.0172 34.1227C30.8733 34.0748 30.8014 34.0268 30.7775 33.9549C30.7535 33.895 30.7535 33.7991 30.8014 33.6673L31.149 32.6606C31.1969 32.5407 31.2449 32.4568 31.3168 32.4209C31.3767 32.3969 31.4606 32.3969 31.6044 32.4329L33.4021 33.0081V31.4382C33.4021 31.2943 33.4261 31.2104 33.486 31.1505C33.5459 31.1026 33.6298 31.0786 33.7736 31.0786H34.8283C34.9601 31.0786 35.056 31.1026 35.1159 31.1505C35.1758 31.2104 35.1998 31.2943 35.1998 31.4382V33.0081L36.9975 32.4329C37.1293 32.3849 37.2252 32.3849 37.2971 32.4209C37.357 32.4688 37.393 32.5527 37.4529 32.6606L37.8005 33.6673C37.8484 33.7991 37.8604 33.895 37.8244 33.9549C37.8005 34.0268 37.7046 34.0868 37.5847 34.1227L35.7751 34.7579L36.9016 36.256C36.9855 36.3758 37.0215 36.4717 36.9975 36.5316C36.9735 36.6035 36.9016 36.6754 36.7938 36.7474L35.9309 37.3825C35.811 37.4664 35.7271 37.5024 35.6552 37.4784C35.5713 37.4784 35.4874 37.4185 35.4155 37.3106L34.289 35.7406Z" fill="black"/>
<path d="M42.9174 35.7406L41.8148 37.3106C41.7309 37.4305 41.659 37.4784 41.5871 37.4784C41.5032 37.4904 41.3953 37.4664 41.2995 37.3825L40.4366 36.7474C40.3167 36.6754 40.2688 36.6035 40.2448 36.5316C40.2208 36.4717 40.2448 36.3758 40.3287 36.256L41.4553 34.7579L39.6456 34.1227C39.5018 34.0748 39.4299 34.0268 39.4059 33.9549C39.3819 33.895 39.3819 33.7991 39.4299 33.6673L39.7774 32.6606C39.8253 32.5407 39.8733 32.4568 39.9452 32.4209C40.0051 32.3969 40.089 32.3969 40.2328 32.4329L42.0305 33.0081V31.4382C42.0305 31.2943 42.0545 31.2104 42.1144 31.1505C42.1743 31.1026 42.2582 31.0786 42.402 31.0786H43.4567C43.5885 31.0786 43.6844 31.1026 43.7443 31.1505C43.8043 31.2104 43.8282 31.2943 43.8282 31.4382V33.0081L45.6259 32.4329C45.7578 32.3849 45.8536 32.3849 45.9255 32.4209C45.9855 32.4688 46.0214 32.5527 46.0813 32.6606L46.4289 33.6673C46.4768 33.7991 46.4888 33.895 46.4529 33.9549C46.4289 34.0268 46.333 34.0868 46.2132 34.1227L44.4035 34.7579L45.53 36.256C45.6139 36.3758 45.6499 36.4717 45.6259 36.5316C45.602 36.6035 45.53 36.6754 45.4222 36.7474L44.5593 37.3825C44.4394 37.4664 44.3555 37.5024 44.2836 37.4784C44.1997 37.4784 44.1159 37.4185 44.0439 37.3106L42.9174 35.7406Z" fill="black"/>
</svg>
