<svg width="50" height="50" viewBox="0 0 50 50" fill="none" xmlns="http://www.w3.org/2000/svg">
<path d="M35.5254 10.144C33.675 8.70172 31.2242 8.02524 28.8007 8.10608C28.697 9.99085 29.5704 11.9054 31.4153 13.3477C33.2656 14.79 35.7164 15.4707 38.1399 15.3899C38.2436 13.5009 37.3703 11.5906 35.5254 10.1483V10.144Z" fill="#FAC251" stroke="#191919"/>
<path d="M45.3774 13.3434C43.527 14.7857 41.0763 15.4665 38.6528 15.3856C38.5491 13.4966 39.4224 11.5863 41.2673 10.144C43.1177 8.70172 45.5685 8.02524 47.9919 8.10608C48.0956 9.99085 47.2223 11.9054 45.3774 13.3477V13.3434Z" fill="#FAC251" stroke="#191919"/>
<path d="M35.5254 18.019C33.675 16.5767 31.2242 15.9002 28.8007 15.9811C28.697 17.8701 29.5704 19.7804 31.4153 21.2227C33.2656 22.665 35.7164 23.3457 38.1399 23.2606C38.2436 21.3716 37.3703 19.4613 35.5254 18.019Z" fill="#FAC251" stroke="#191919"/>
<path d="M45.3774 21.2168C43.527 22.6591 41.0763 23.3399 38.6528 23.2548C38.5491 21.3657 39.4224 19.4554 41.2673 18.0132C43.1177 16.5709 45.5685 15.8944 47.9919 15.9752C48.0956 17.8642 47.2223 19.7745 45.3774 21.2168Z" fill="#FAC251" stroke="#191919"/>
<path d="M35.5254 25.894C33.675 24.4517 31.2242 23.7752 28.8007 23.8561C28.697 25.7451 29.5704 27.6554 31.4153 29.0977C33.2656 30.54 35.7164 31.2165 38.1399 31.1399C38.2436 29.2509 37.3703 27.3406 35.5254 25.8983V25.894Z" fill="#FAC251" stroke="#191919"/>
<path d="M45.3774 29.0934C43.527 30.5357 41.0763 31.2122 38.6528 31.1356C38.5491 29.2466 39.4224 27.3363 41.2673 25.894C43.1177 24.4517 45.5685 23.7752 47.9919 23.8561C48.0956 25.7451 47.2223 27.6554 45.3774 29.0977V29.0934Z" fill="#FAC251" stroke="#191919"/>
<path d="M38.3945 14.0605V47.9991" stroke="#191919"/>
<path d="M15.6694 3.78691C15.6694 4.77397 14.6433 5.57383 13.377 5.57383C12.1106 5.57383 11.0845 4.77397 11.0845 3.78691C11.0845 2.79986 12.1106 2 13.377 2C14.6433 2 15.6694 2.79986 15.6694 3.78691Z" fill="#EA4833" stroke="#191919"/>
<path d="M3.29883 8.61914L13.3312 16.4433" stroke="#191919"/>
<path d="M5.9136 8.13073C6.80876 8.82848 6.80876 9.96019 5.9136 10.6579C5.01844 11.3557 3.56653 11.3557 2.67137 10.6579C1.77621 9.96019 1.77621 8.82848 2.67137 8.13073C3.56653 7.43299 5.01844 7.43299 5.9136 8.13073Z" fill="#EA4833" stroke="#191919"/>
<path d="M3.29883 16.9531L13.3312 24.7773" stroke="#191919"/>
<path d="M5.9136 16.4647C6.80876 17.1625 6.80876 18.2942 5.9136 18.9919C5.01844 19.6897 3.56653 19.6897 2.67137 18.9919C1.77621 18.2942 1.77621 17.1625 2.67137 16.4647C3.56653 15.767 5.01844 15.767 5.9136 16.4647Z" fill="#EA4833" stroke="#191919"/>
<path d="M3.29883 25.2891L13.3312 33.1089" stroke="#191919"/>
<path d="M5.9136 24.7967C6.80876 25.4945 6.80876 26.6262 5.9136 27.324C5.01844 28.0217 3.56653 28.0217 2.67137 27.324C1.77621 26.6262 1.77621 25.4945 2.67137 24.7967C3.56653 24.099 5.01844 24.099 5.9136 24.7967Z" fill="#EA4833" stroke="#191919"/>
<path d="M3.29883 33.6191L13.3312 41.4433" stroke="#191919"/>
<path d="M5.9136 33.1307C6.80876 33.8285 6.80876 34.9602 5.9136 35.6579C5.01844 36.3557 3.56653 36.3557 2.67137 35.6579C1.77621 34.9602 1.77621 33.8285 2.67137 33.1307C3.56653 32.433 5.01844 32.433 5.9136 33.1307Z" fill="#EA4833" stroke="#191919"/>
<path d="M23.4449 8.61914L13.4126 16.4433" stroke="#191919"/>
<path d="M20.8398 8.13073C19.9447 8.82848 19.9447 9.96019 20.8398 10.6579C21.735 11.3557 23.1869 11.3557 24.0821 10.6579C24.9772 9.96019 24.9772 8.82848 24.0821 8.13073C23.1869 7.43299 21.735 7.43299 20.8398 8.13073Z" fill="#EA4833" stroke="#191919"/>
<path d="M23.4449 16.9531L13.4126 24.7773" stroke="#191919"/>
<path d="M20.8398 16.4647C19.9447 17.1625 19.9447 18.2942 20.8398 18.9919C21.735 19.6897 23.1869 19.6897 24.0821 18.9919C24.9772 18.2942 24.9772 17.1625 24.0821 16.4647C23.1869 15.767 21.735 15.767 20.8398 16.4647Z" fill="#EA4833" stroke="#191919"/>
<path d="M23.4449 25.2891L13.4126 33.1089" stroke="#191919"/>
<path d="M20.8398 24.7967C19.9447 25.4945 19.9447 26.6262 20.8398 27.324C21.735 28.0217 23.1869 28.0217 24.0821 27.324C24.9772 26.6262 24.9772 25.4945 24.0821 24.7967C23.1869 24.099 21.735 24.099 20.8398 24.7967Z" fill="#EA4833" stroke="#191919"/>
<path d="M23.4449 33.6191L13.4126 41.4433" stroke="#191919"/>
<path d="M20.8398 33.1307C19.9447 33.8285 19.9447 34.9602 20.8398 35.6579C21.735 36.3557 23.1869 36.3557 24.0821 35.6579C24.9772 34.9602 24.9772 33.8285 24.0821 33.1307C23.1869 32.433 21.735 32.433 20.8398 33.1307Z" fill="#EA4833" stroke="#191919"/>
<path d="M13.3745 5.08398V47.4509" stroke="#191919"/>
</svg>
