<svg width="47" height="47" viewBox="0 0 47 47" fill="none" xmlns="http://www.w3.org/2000/svg">
<path d="M34.0254 8.64401C32.175 7.20172 29.7242 6.52524 27.3007 6.60608C27.197 8.49085 28.0704 10.4054 29.9153 11.8477C31.7656 13.29 34.2164 13.9707 36.6399 13.8899C36.7436 12.0009 35.8703 10.0906 34.0254 8.64827V8.64401Z" fill="#FAC251" stroke="#191919"/>
<path d="M43.8774 11.8434C42.027 13.2857 39.5763 13.9665 37.1528 13.8856C37.0491 11.9966 37.9224 10.0863 39.7673 8.64401C41.6177 7.20172 44.0685 6.52524 46.4919 6.60608C46.5956 8.49085 45.7223 10.4054 43.8774 11.8477V11.8434Z" fill="#FAC251" stroke="#191919"/>
<path d="M34.0254 16.519C32.175 15.0767 29.7242 14.4002 27.3007 14.4811C27.197 16.3701 28.0704 18.2804 29.9153 19.7227C31.7656 21.165 34.2164 21.8457 36.6399 21.7606C36.7436 19.8716 35.8703 17.9613 34.0254 16.519Z" fill="#FAC251" stroke="#191919"/>
<path d="M43.8774 19.7168C42.027 21.1591 39.5763 21.8399 37.1528 21.7548C37.0491 19.8657 37.9224 17.9554 39.7673 16.5132C41.6177 15.0709 44.0685 14.3944 46.4919 14.4752C46.5956 16.3642 45.7223 18.2745 43.8774 19.7168Z" fill="#FAC251" stroke="#191919"/>
<path d="M34.0254 24.394C32.175 22.9517 29.7242 22.2752 27.3007 22.3561C27.197 24.2451 28.0704 26.1554 29.9153 27.5977C31.7656 29.04 34.2164 29.7165 36.6399 29.6399C36.7436 27.7509 35.8703 25.8406 34.0254 24.3983V24.394Z" fill="#FAC251" stroke="#191919"/>
<path d="M43.8774 27.5934C42.027 29.0357 39.5763 29.7122 37.1528 29.6356C37.0491 27.7466 37.9224 25.8363 39.7673 24.394C41.6177 22.9517 44.0685 22.2752 46.4919 22.3561C46.5956 24.2451 45.7223 26.1554 43.8774 27.5977V27.5934Z" fill="#FAC251" stroke="#191919"/>
<path d="M36.8945 12.5605V46.4991" stroke="#191919"/>
<path d="M14.1694 2.28691C14.1694 3.27397 13.1433 4.07383 11.877 4.07383C10.6106 4.07383 9.58447 3.27397 9.58447 2.28691C9.58447 1.29986 10.6106 0.5 11.877 0.5C13.1433 0.5 14.1694 1.29986 14.1694 2.28691Z" fill="#EA4833" stroke="#191919"/>
<path d="M1.79883 7.11914L11.8312 14.9433" stroke="#191919"/>
<path d="M4.4136 6.63073C5.30876 7.32848 5.30876 8.46019 4.4136 9.15794C3.51844 9.85569 2.06653 9.85569 1.17137 9.15794C0.27621 8.46019 0.27621 7.32848 1.17137 6.63073C2.06653 5.93299 3.51844 5.93299 4.4136 6.63073Z" fill="#EA4833" stroke="#191919"/>
<path d="M1.79883 15.4531L11.8312 23.2773" stroke="#191919"/>
<path d="M4.4136 14.9647C5.30876 15.6625 5.30876 16.7942 4.4136 17.4919C3.51844 18.1897 2.06653 18.1897 1.17137 17.4919C0.27621 16.7942 0.27621 15.6625 1.17137 14.9647C2.06653 14.267 3.51844 14.267 4.4136 14.9647Z" fill="#EA4833" stroke="#191919"/>
<path d="M1.79883 23.7891L11.8312 31.6089" stroke="#191919"/>
<path d="M4.4136 23.2967C5.30876 23.9945 5.30876 25.1262 4.4136 25.824C3.51844 26.5217 2.06653 26.5217 1.17137 25.824C0.27621 25.1262 0.27621 23.9945 1.17137 23.2967C2.06653 22.599 3.51844 22.599 4.4136 23.2967Z" fill="#EA4833" stroke="#191919"/>
<path d="M1.79883 32.1191L11.8312 39.9433" stroke="#191919"/>
<path d="M4.4136 31.6307C5.30876 32.3285 5.30876 33.4602 4.4136 34.1579C3.51844 34.8557 2.06653 34.8557 1.17137 34.1579C0.27621 33.4602 0.27621 32.3285 1.17137 31.6307C2.06653 30.933 3.51844 30.933 4.4136 31.6307Z" fill="#EA4833" stroke="#191919"/>
<path d="M21.9449 7.11914L11.9126 14.9433" stroke="#191919"/>
<path d="M19.3398 6.63073C18.4447 7.32848 18.4447 8.46019 19.3398 9.15794C20.235 9.85569 21.6869 9.85569 22.5821 9.15794C23.4772 8.46019 23.4772 7.32848 22.5821 6.63073C21.6869 5.93299 20.235 5.93299 19.3398 6.63073Z" fill="#EA4833" stroke="#191919"/>
<path d="M21.9449 15.4531L11.9126 23.2773" stroke="#191919"/>
<path d="M19.3398 14.9647C18.4447 15.6625 18.4447 16.7942 19.3398 17.4919C20.235 18.1897 21.6869 18.1897 22.5821 17.4919C23.4772 16.7942 23.4772 15.6625 22.5821 14.9647C21.6869 14.267 20.235 14.267 19.3398 14.9647Z" fill="#EA4833" stroke="#191919"/>
<path d="M21.9449 23.7891L11.9126 31.6089" stroke="#191919"/>
<path d="M19.3398 23.2967C18.4447 23.9945 18.4447 25.1262 19.3398 25.824C20.235 26.5217 21.6869 26.5217 22.5821 25.824C23.4772 25.1262 23.4772 23.9945 22.5821 23.2967C21.6869 22.599 20.235 22.599 19.3398 23.2967Z" fill="#EA4833" stroke="#191919"/>
<path d="M21.9449 32.1191L11.9126 39.9433" stroke="#191919"/>
<path d="M19.3398 31.6307C18.4447 32.3285 18.4447 33.4602 19.3398 34.1579C20.235 34.8557 21.6869 34.8557 22.5821 34.1579C23.4772 33.4602 23.4772 32.3285 22.5821 31.6307C21.6869 30.933 20.235 30.933 19.3398 31.6307Z" fill="#EA4833" stroke="#191919"/>
<path d="M11.8745 3.58398V45.9509" stroke="#191919"/>
</svg>
