<svg width="50" height="50" viewBox="0 0 50 50" fill="none" xmlns="http://www.w3.org/2000/svg">
<path d="M39.8407 22.8695C40.1199 22.3608 40.2812 21.7776 40.2812 21.151C40.2812 19.4448 39.0712 18.0178 37.4641 17.6828C37.8054 17.112 37.9977 16.4419 37.9977 15.7284C37.9977 14.0967 36.9739 12.7008 35.5405 12.1548C35.708 11.7763 35.8011 11.3606 35.8011 10.9263C35.8011 9.39388 34.6594 8.13442 33.1764 7.94209C33.2756 7.64428 33.3315 7.32166 33.3315 6.98663C33.3315 5.32389 31.985 3.97757 30.322 3.97757C29.7015 3.97757 29.1306 4.1637 28.6466 4.48632C28.3115 2.76774 26.7913 1.46484 24.9732 1.46484C22.9937 1.46484 21.3742 3.0035 21.2377 4.95164C20.7723 4.65383 20.22 4.48011 19.6244 4.48011C18.0855 4.48011 16.8196 5.6279 16.6397 7.11692C16.3605 7.03006 16.0688 6.98663 15.7648 6.98663C14.1018 6.98663 12.7553 8.33296 12.7553 9.9957C12.7553 10.734 13.0221 11.4041 13.4565 11.9314C11.8804 12.2416 10.6828 13.6314 10.6828 15.3003C10.6828 15.8711 10.8255 16.4109 11.0737 16.8886C10.9434 16.8762 10.8131 16.87 10.6828 16.87C8.3124 16.87 6.39502 18.7871 6.39502 21.1572C6.39502 22.7454 7.26374 24.1352 8.5482 24.8735C7.67328 25.7421 7.13343 26.9519 7.13343 28.2796C7.13343 30.9413 9.28661 33.0941 11.9486 33.0941C12.1472 33.0941 12.3395 33.0817 12.5319 33.0569C13.1152 35.0609 14.9643 36.5251 17.1547 36.5251C18.3833 36.5251 19.5065 36.066 20.3566 35.3091C20.5737 36.035 20.9647 36.6926 21.4735 37.2324C21.4859 37.2448 21.4921 37.2572 21.5045 37.2634C22.3174 38.1692 23.6453 38.3367 26.6113 38.4484C28.0323 37.9335 29.143 36.7671 29.5774 35.3091C30.4275 36.066 31.5506 36.5251 32.7792 36.5251C35.3047 36.5251 37.371 34.5832 37.5758 32.1139C37.7123 32.1263 37.8488 32.1325 37.9915 32.1325C40.6535 32.1325 42.8067 29.9796 42.8067 27.318C42.8067 25.3078 41.5781 23.5892 39.8283 22.8695H39.8407Z" fill="#20B700"/>
<path d="M39.8404 22.8695C40.1197 22.3608 40.281 21.7776 40.281 21.151C40.281 19.4448 39.071 18.0178 37.4639 17.6828C37.8051 17.112 37.9975 16.4419 37.9975 15.7284C37.9975 14.0967 36.9737 12.7008 35.5403 12.1548C35.7078 11.7763 35.8009 11.3606 35.8009 10.9263C35.8009 9.39388 34.6591 8.13442 33.1761 7.94209C33.2878 7.61326 33.3437 7.25962 33.3312 6.89357C33.2816 5.26805 31.8979 3.95275 30.2721 3.97757C29.6702 3.98998 29.118 4.1699 28.6526 4.48632C28.3175 2.76774 26.7972 1.46484 24.9791 1.46484C22.9997 1.46484 21.3802 3.0035 21.2437 4.95164C21.709 4.64142 22.2675 4.4553 22.8632 4.44289C24.4951 4.41807 25.8727 5.73337 25.9223 7.35889C25.9347 7.72494 25.8789 8.07858 25.7672 8.40741C27.244 8.59974 28.392 9.8592 28.392 11.3917C28.392 11.8322 28.2989 12.2478 28.1313 12.6201C29.5709 13.1723 30.5886 14.562 30.5886 16.1937C30.5886 16.9072 30.39 17.5773 30.0549 18.1481C31.6621 18.4831 32.8721 19.9101 32.8721 21.6163C32.8721 22.2367 32.7107 22.8261 32.4315 23.3349C34.1813 24.0545 35.41 25.7793 35.41 27.7833C35.41 30.4449 33.2568 32.5978 30.5948 32.5978C30.3714 32.5978 30.1728 32.7529 30.1356 32.9763C29.7571 35.2532 27.7777 36.9966 25.3887 36.9966C24.1601 36.9966 23.6574 38.3429 26.6235 38.4546C28.0445 37.9397 29.1552 36.7733 29.5895 35.3153C30.4397 36.0722 31.5628 36.5313 32.7914 36.5313C35.3169 36.5313 37.3832 34.5894 37.588 32.1201C37.7245 32.1325 37.861 32.1387 38.0037 32.1387C40.6657 32.1387 42.8189 29.9858 42.8189 27.3242C42.8189 25.314 41.5903 23.5954 39.8404 22.8757V22.8695Z" fill="#20A200"/>
<path d="M26.6315 18.3711H23.3428V48.9829H26.6315V18.3711Z" fill="#955031"/>
<path d="M26.6312 18.3711H24.9868V48.9829H26.6312V18.3711Z" fill="#80503C"/>
<path d="M26.6321 38.8646C26.4645 38.8646 26.3032 38.7591 26.2411 38.5916C26.1605 38.3744 26.2722 38.1387 26.4893 38.058C27.7924 37.5865 28.8038 36.5132 29.201 35.1917C29.2444 35.0552 29.3499 34.9497 29.4864 34.9125C29.6229 34.8752 29.7718 34.9125 29.8773 34.9993C30.684 35.719 31.7203 36.1161 32.8 36.1161C35.071 36.1161 36.9946 34.3479 37.1808 32.0833C37.187 31.9717 37.2428 31.8724 37.3297 31.7979C37.4166 31.7297 37.5221 31.6925 37.6337 31.6987C37.7703 31.7111 37.8944 31.7173 38.0123 31.7173C40.4385 31.7173 42.4117 29.7443 42.4117 27.3185C42.4117 25.5316 41.3444 23.9371 39.6938 23.2547C39.5822 23.2112 39.5015 23.1182 39.4581 23.0065C39.4146 22.8948 39.427 22.7707 39.4891 22.6653C39.7435 22.2062 39.88 21.6788 39.88 21.1514C39.88 19.681 38.8375 18.3905 37.398 18.0865C37.2676 18.0617 37.156 17.9686 37.1001 17.8446C37.0443 17.7205 37.0567 17.5778 37.1249 17.4661C37.4352 16.9387 37.6027 16.3369 37.6027 15.7227C37.6027 14.3205 36.7216 13.0363 35.4061 12.5337C35.3006 12.4903 35.2137 12.4096 35.1703 12.3042C35.1269 12.1987 35.1269 12.0808 35.1703 11.9753C35.3192 11.6403 35.3999 11.2867 35.3999 10.9144C35.3999 9.61151 34.4257 8.50715 33.1412 8.33964C33.0171 8.32102 32.9116 8.25278 32.8434 8.1473C32.7751 8.04183 32.7627 7.91154 32.8 7.79366C32.8868 7.52688 32.9365 7.24769 32.9365 6.9685C32.9365 5.53531 31.7699 4.37512 30.3427 4.37512C29.8277 4.37512 29.3313 4.52402 28.9031 4.80941C28.7852 4.88387 28.6425 4.90248 28.5122 4.84664C28.3819 4.7908 28.2888 4.67912 28.264 4.54263C27.9599 2.98536 26.5886 1.85619 25.0001 1.85619C23.2565 1.85619 21.7983 3.21492 21.6804 4.95211C21.6679 5.10101 21.5811 5.2313 21.4508 5.29335C21.3205 5.36159 21.1653 5.34918 21.0412 5.27473C20.6255 5.00795 20.1477 4.87146 19.6513 4.87146C18.342 4.87146 17.2375 5.84552 17.0762 7.14221C17.0637 7.2663 16.9955 7.37177 16.89 7.44002C16.7845 7.50827 16.6604 7.52688 16.5425 7.48965C16.3005 7.4152 16.0461 7.37798 15.7855 7.37798C14.3521 7.37798 13.1917 8.54438 13.1917 9.97136C13.1917 10.5794 13.4089 11.1688 13.7998 11.6403C13.8929 11.752 13.9239 11.9071 13.8743 12.0436C13.8247 12.1801 13.7068 12.2855 13.5641 12.3104C12.1555 12.5896 11.1316 13.8304 11.1316 15.2698C11.1316 15.7599 11.2495 16.2315 11.4729 16.6658C11.5412 16.8022 11.535 16.9636 11.4481 17.0876C11.3612 17.2117 11.2185 17.2862 11.0634 17.2676C10.9393 17.2552 10.8214 17.249 10.7097 17.249C8.57513 17.249 6.83769 18.9861 6.83769 21.1204C6.83769 22.504 7.58231 23.7882 8.7861 24.4769C8.89779 24.539 8.97226 24.6568 8.99087 24.7809C9.00949 24.9112 8.96605 25.0353 8.87297 25.1284C8.04149 25.9597 7.58231 27.0641 7.58231 28.2429C7.58231 30.6688 9.55554 32.6417 11.9817 32.6417C12.1555 32.6417 12.3292 32.6293 12.5154 32.6107C12.7202 32.5859 12.9063 32.71 12.9622 32.9085C13.502 34.776 15.2394 36.0789 17.1878 36.0789C18.2675 36.0789 19.3038 35.6818 20.1105 34.9621C20.2159 34.869 20.3649 34.8318 20.5014 34.8752C20.6379 34.9125 20.7434 35.0179 20.7868 35.1544C20.9854 35.8183 21.3515 36.4387 21.8355 36.9413C21.9968 37.1088 21.9906 37.3694 21.8231 37.5307C21.6555 37.692 21.3949 37.6858 21.2336 37.5183C20.793 37.0653 20.4393 36.5318 20.1911 35.9548C19.3162 36.5752 18.2675 36.904 17.1816 36.904C14.985 36.904 13.0118 35.5019 12.2672 33.4607C12.1679 33.4607 12.0686 33.4669 11.9755 33.4669C9.09015 33.4669 6.74462 31.1217 6.74462 28.2367C6.74462 27.0082 7.16656 25.8481 7.936 24.9112C6.73221 24.0302 6 22.6156 6 21.108C6 18.5953 7.98564 16.5355 10.4677 16.4114C10.3498 16.0391 10.2877 15.6483 10.2877 15.2512C10.2877 13.6257 11.3178 12.1925 12.8008 11.6403C12.5092 11.1253 12.3541 10.5421 12.3541 9.94654C12.3541 8.05424 13.8929 6.52179 15.7793 6.52179C15.9654 6.52179 16.1454 6.5342 16.3315 6.56522C16.7225 5.0824 18.0752 4.01527 19.6451 4.01527C20.0856 4.01527 20.5262 4.10213 20.9295 4.26344C21.3391 2.38975 23.0207 1 24.9877 1C26.781 1 28.3571 2.15399 28.9217 3.81673C29.3623 3.6182 29.8401 3.51272 30.3303 3.51272C32.2229 3.51272 33.7555 5.05138 33.7555 6.93747C33.7555 7.14842 33.7369 7.36557 33.6935 7.57031C35.1641 7.96738 36.219 9.31991 36.219 10.8772C36.219 11.2246 36.1693 11.5596 36.0701 11.8823C37.491 12.5958 38.4218 14.0724 38.4218 15.6793C38.4218 16.2625 38.3039 16.8395 38.0681 17.373C39.6194 17.9314 40.6991 19.4204 40.6991 21.108C40.6991 21.6292 40.5936 22.1441 40.395 22.6218C42.1325 23.5152 43.2308 25.2959 43.2308 27.275C43.2308 30.16 40.8852 32.5052 37.9998 32.5052C37.9812 32.5052 37.9688 32.5052 37.9502 32.5052C37.5469 34.9993 35.3503 36.8978 32.7875 36.8978C31.7016 36.8978 30.6592 36.5628 29.7781 35.9486C29.2134 37.2639 28.1151 38.3062 26.7624 38.7963C26.7127 38.8149 26.6693 38.8212 26.6196 38.8212L26.6321 38.8646Z" fill="#1E1E1E"/>
<path d="M14.7859 10.4111C14.5563 10.4111 14.3701 10.2251 14.3701 9.99563C14.3701 9.22044 15.003 8.58789 15.7787 8.58789C16.0083 8.58789 16.1944 8.77394 16.1944 9.00339C16.1944 9.23285 16.0083 9.41889 15.7787 9.41889C15.4622 9.41889 15.2016 9.67935 15.2016 9.99563C15.2016 10.2251 15.0155 10.4111 14.7859 10.4111Z" fill="white"/>
<path d="M31.5639 34.6325C31.5019 34.6325 31.4399 34.6201 31.3841 34.5891C31.1236 34.4589 30.8817 34.2976 30.6647 34.1054C30.491 33.9504 30.4786 33.6899 30.6337 33.5162C30.7887 33.3426 31.0492 33.3302 31.2228 33.4852C31.3841 33.6279 31.5639 33.7457 31.7562 33.8449C31.9608 33.9442 32.0476 34.1922 31.9422 34.4031C31.8678 34.5519 31.7251 34.6325 31.5701 34.6325H31.5639Z" fill="#1E1E1E"/>
<path d="M33.257 34.8823C33.0585 34.8823 32.8847 34.7396 32.8475 34.5348C32.8103 34.3053 32.9592 34.0943 33.1888 34.0571C33.9582 33.9268 34.616 33.4243 34.951 32.717C35.0503 32.5123 35.2985 32.4192 35.5033 32.5185C35.7081 32.6177 35.8011 32.8659 35.7019 33.0706C35.2489 34.0261 34.3615 34.7024 33.3253 34.8761C33.3005 34.8761 33.2756 34.8761 33.257 34.8761V34.8823Z" fill="#1E1E1E"/>
<path d="M23.2682 5.49847C23.2682 5.49847 23.2496 5.49847 23.2372 5.49847C23.0076 5.48607 22.8338 5.28753 22.8524 5.05797C22.9269 3.94121 23.8639 3.06641 24.987 3.06641C25.2166 3.06641 25.4027 3.25253 25.4027 3.48209C25.4027 3.71165 25.2166 3.89778 24.987 3.89778C24.3044 3.89778 23.7336 4.43134 23.6839 5.11381C23.6715 5.33096 23.4854 5.49847 23.2682 5.49847Z" fill="white"/>
<path d="M8.43283 21.565C8.20324 21.565 8.01709 21.3789 8.01709 21.1493C8.01709 19.6665 9.22088 18.4629 10.7039 18.4629C10.9335 18.4629 11.1197 18.649 11.1197 18.8786C11.1197 19.1081 10.9335 19.2943 10.7039 19.2943C9.68006 19.2943 8.84858 20.1256 8.84858 21.1493C8.84858 21.3789 8.66242 21.565 8.43283 21.565Z" fill="white"/>
<path d="M23.3423 49.3983C23.1128 49.3983 22.9268 49.2121 22.9268 48.9826V18.3708C22.9268 18.1412 23.1128 17.9551 23.3423 17.9551C23.5717 17.9551 23.7578 18.1412 23.7578 18.3708V48.9826C23.7578 49.2121 23.5717 49.3983 23.3423 49.3983Z" fill="#1E1E1E"/>
<path d="M26.6308 49.4002C26.4014 49.4002 26.2153 49.214 26.2153 48.9845V26.1032C26.2153 25.8736 26.4014 25.6875 26.6308 25.6875C26.8603 25.6875 27.0463 25.8736 27.0463 26.1032V48.9845C27.0463 49.214 26.8603 49.4002 26.6308 49.4002Z" fill="#1E1E1E"/>
<path d="M15.3431 24.0409C15.2376 24.0409 15.1321 23.9975 15.0514 23.9169L14.1703 23.0362C14.009 22.875 14.009 22.6083 14.1703 22.4471C14.3316 22.2859 14.5985 22.2859 14.7598 22.4471L15.6409 23.3277C15.8023 23.489 15.8023 23.7556 15.6409 23.9169C15.5603 23.9975 15.4548 24.0409 15.3493 24.0409H15.3431Z" fill="#1E1E1E"/>
<path d="M23.3426 32.04C23.2371 32.04 23.1316 31.9966 23.0509 31.9159L16.641 25.5131C16.4797 25.3518 16.4797 25.085 16.641 24.9237C16.8024 24.7624 17.0692 24.7624 17.2305 24.9237L23.6342 31.3265C23.7955 31.4878 23.7955 31.7546 23.6342 31.9159C23.5535 31.9966 23.448 32.04 23.3426 32.04Z" fill="#1E1E1E"/>
<path d="M26.6299 31.2388C26.5244 31.2388 26.419 31.1954 26.3383 31.1147C26.177 30.9534 26.177 30.6866 26.3383 30.5253L33.3315 23.5331C33.4928 23.3718 33.7596 23.3718 33.9209 23.5331C34.0823 23.6944 34.0823 23.9612 33.9209 24.1225L26.9278 31.1147C26.8471 31.1954 26.7416 31.2388 26.6361 31.2388H26.6299Z" fill="#1E1E1E"/>
<path d="M23.3413 24.8062C23.2358 24.8062 23.1303 24.7628 23.0497 24.6821L20.2201 21.853C20.0588 21.6917 20.0588 21.4249 20.2201 21.2636C20.3815 21.1023 20.6483 21.1023 20.8096 21.2636L23.6391 24.0927C23.8005 24.254 23.8005 24.5208 23.6391 24.6821C23.5585 24.7628 23.453 24.8062 23.3475 24.8062H23.3413Z" fill="#1E1E1E"/>
<path d="M32.4703 49.3994H17.4973C17.2677 49.3994 17.0815 49.2133 17.0815 48.9839C17.0815 48.7544 17.2677 48.5684 17.4973 48.5684H32.4703C32.6998 48.5684 32.886 48.7544 32.886 48.9839C32.886 49.2133 32.6998 49.3994 32.4703 49.3994Z" fill="#1E1E1E"/>
</svg>
