<svg width="30" height="30" viewBox="0 0 30 30" fill="none" xmlns="http://www.w3.org/2000/svg">
<path d="M13.0726 15.7441C16.1833 15.7441 18.712 13.0907 18.712 9.8268C18.712 6.56289 16.1806 3.91211 13.0726 3.91211C9.96466 3.91211 7.43066 6.5655 7.43066 9.82941C7.43066 13.0933 9.96201 15.7467 13.07 15.7467L13.0726 15.7441ZM14.1016 7.03513C14.1016 7.03513 14.7681 8.94495 17.3074 9.8268C17.3074 12.3263 15.4056 14.3587 13.07 14.3587C10.7344 14.3587 8.83521 12.3263 8.83256 9.82941C9.27165 9.83724 12.1521 9.78767 14.0989 7.03513H14.1016Z" fill="#989898"/>
<path d="M19.6504 17.101C18.9468 16.3835 18.1242 15.7808 17.2116 15.3242C16.0742 16.2843 14.6379 16.8609 13.0721 16.8609C11.5062 16.8609 10.0672 16.2843 8.93249 15.3242C5.95412 16.8166 3.91211 19.8613 3.91211 23.3809H16.7619C16.6112 22.8957 16.5292 22.3817 16.5292 21.8494C16.5292 19.7335 17.812 17.915 19.6504 17.101Z" fill="#989898"/>
<path d="M21.8098 17.6016C19.4319 17.6016 17.501 19.5036 17.501 21.8517C17.501 24.1998 19.4292 26.1018 21.8098 26.1018C24.1904 26.1018 26.1187 24.1998 26.1187 21.8517C26.1187 19.5036 24.1904 17.6016 21.8098 17.6016ZM24.5131 21.4003L21.6062 24.2677C21.4686 24.4033 21.2861 24.4712 21.1062 24.4712C20.9264 24.4712 20.7439 24.4033 20.6063 24.2677L18.9505 22.6344C18.6754 22.3631 18.6754 21.9221 18.9505 21.6482C19.2256 21.3768 19.6726 21.3768 19.9503 21.6482L21.1062 22.7883L23.5133 20.4141C23.7884 20.1428 24.2354 20.1428 24.5131 20.4141C24.7882 20.6854 24.7882 21.1264 24.5131 21.4003Z" fill="#989898"/>
</svg>
