<svg width="50" height="50" viewBox="0 0 50 50" fill="none" xmlns="http://www.w3.org/2000/svg">
<path d="M21.8599 11.6914L25.4858 15.441" stroke="#191919"/>
<path d="M21.5118 9.20016C20.6503 8.30928 19.4825 7.93709 18.3645 8.07171C18.2305 9.23183 18.5942 10.4395 19.4519 11.3264C20.3133 12.2173 21.4811 12.5894 22.5992 12.4509C22.7332 11.2907 22.3694 10.0831 21.5118 9.1962V9.20016Z" fill="#FAC251" stroke="#191919"/>
<path d="M29.141 11.6914L25.5151 15.441" stroke="#191919"/>
<path d="M29.4924 9.20016C30.35 8.30928 31.5217 7.93709 32.6397 8.07171C32.7737 9.23183 32.41 10.4395 31.5523 11.3264C30.6946 12.2173 29.523 12.5894 28.405 12.4509C28.271 11.2907 28.6347 10.0831 29.4924 9.1962V9.20016Z" fill="#FAC251" stroke="#191919"/>
<path d="M15.522 18.5254L25.5305 28.8714" stroke="#191919"/>
<path d="M15.1744 16.0333C14.3129 15.1464 13.1451 14.7703 12.0271 14.9089C11.8931 16.069 12.2568 17.2766 13.1145 18.1635C13.9759 19.0544 15.1399 19.4266 16.2617 19.288C16.3958 18.1279 16.032 16.9203 15.1744 16.0333Z" fill="#FAC251" stroke="#191919"/>
<path d="M19.896 19.1504V23.0544" stroke="#191919"/>
<path d="M21.3498 17.1354C21.3498 15.8802 20.7794 14.7597 19.8949 14.0391C19.0066 14.7597 18.4399 15.8802 18.4399 17.1354C18.4399 18.3905 19.0104 19.511 19.8949 20.2356C20.7794 19.515 21.3498 18.3945 21.3498 17.1354Z" fill="#FAC251" stroke="#191919"/>
<path d="M35.4769 18.5254L25.4722 28.8714" stroke="#191919"/>
<path d="M35.8254 16.0333C36.6869 15.1464 37.8508 14.7703 38.9727 14.9089C39.1067 16.069 38.743 17.2766 37.8853 18.1635C37.0238 19.0544 35.856 19.4266 34.738 19.288C34.604 18.1279 34.9677 16.9203 35.8254 16.0333Z" fill="#FAC251" stroke="#191919"/>
<path d="M31.1064 19.1504V23.0544" stroke="#191919"/>
<path d="M29.6499 17.1354C29.6499 15.8802 30.2204 14.7597 31.1049 14.0391C31.9893 14.7597 32.5598 15.8802 32.5598 17.1354C32.5598 18.3905 31.9893 19.511 31.1049 20.2356C30.2204 19.515 29.6499 18.3945 29.6499 17.1354Z" fill="#FAC251" stroke="#191919"/>
<path d="M15.522 31.252L25.5305 41.598" stroke="#191919"/>
<path d="M15.1744 28.7601C14.3129 27.8692 13.1451 27.497 12.0271 27.6356C11.8931 28.7957 12.2568 30.0034 13.1145 30.8903C13.9759 31.7772 15.1399 32.1533 16.2617 32.0148C16.3958 30.8546 16.032 29.647 15.1744 28.7601Z" fill="#FAC251" stroke="#191919"/>
<path d="M19.896 31.875V35.779" stroke="#191919"/>
<path d="M21.3498 29.862C21.3498 28.6029 20.7794 27.4863 19.8949 26.7617C19.0066 27.4823 18.4399 28.6029 18.4399 29.862C18.4399 31.1211 19.0104 32.2376 19.8949 32.9583C20.7794 32.2376 21.3498 31.1171 21.3498 29.862Z" fill="#FAC251" stroke="#191919"/>
<path d="M35.4769 31.252L25.4722 41.598" stroke="#191919"/>
<path d="M35.8254 28.7601C36.6869 27.8692 37.8508 27.497 38.9727 27.6356C39.1067 28.7957 38.743 30.0034 37.8853 30.8903C37.0238 31.7772 35.856 32.1533 34.738 32.0148C34.604 30.8546 34.9677 29.647 35.8254 28.7601Z" fill="#FAC251" stroke="#191919"/>
<path d="M31.1064 31.875V35.779" stroke="#191919"/>
<path d="M29.6499 29.862C29.6499 28.6029 30.2204 27.4863 31.1049 26.7617C31.9893 27.4823 32.5598 28.6029 32.5598 29.862C32.5598 31.1211 31.9893 32.2376 31.1049 32.9583C30.2204 32.2376 29.6499 31.1171 29.6499 29.862Z" fill="#FAC251" stroke="#191919"/>
<path d="M25.4995 3.17969V48.0007" stroke="#191919"/>
<path d="M26.9563 4.09629C26.9563 2.83719 26.3858 1.72062 25.5013 1C24.6131 1.72062 24.0464 2.84115 24.0464 4.09629C24.0464 5.35144 24.6169 6.47197 25.5013 7.19259C26.3858 6.47197 26.9563 5.35144 26.9563 4.09629Z" fill="#FAC251" stroke="#191919"/>
</svg>
