<svg width="36" height="47" viewBox="0 0 36 47" fill="none" xmlns="http://www.w3.org/2000/svg">
<path d="M29.0117 20.6211V46.8459" stroke="#191919"/>
<path d="M28.4181 23.3089C28.7091 24.0152 28.0754 25.0305 26.9992 25.5778C25.9229 26.1252 24.8149 25.9928 24.5199 25.2865C24.2289 24.5802 24.8627 23.5649 25.9389 23.0176C27.0151 22.4746 28.1232 22.6026 28.4181 23.3089Z" fill="#98AA5E" stroke="#191919"/>
<path d="M29.6033 23.3089C29.3083 24.0152 29.9461 25.0305 31.0223 25.5778C32.0985 26.1252 33.2066 25.9928 33.4976 25.2865C33.7885 24.5802 33.1548 23.5649 32.0786 23.0176C31.0024 22.4746 29.8943 22.6026 29.6033 23.3089Z" fill="#98AA5E" stroke="#191919"/>
<path d="M29.0098 22.6074C29.7113 22.6074 30.2813 23.6712 30.2813 24.9823C30.2813 26.2933 29.7113 27.3571 29.0098 27.3571C28.3083 27.3571 27.7383 26.2933 27.7383 24.9823C27.7383 23.6712 28.3083 22.6074 29.0098 22.6074Z" fill="#98AA5E" stroke="#191919"/>
<path d="M33.5974 11.2546L29.0096 6.17383L24.4217 11.2546C21.8907 14.062 21.8907 18.6087 24.4217 21.4161C26.9568 24.2235 31.0623 24.2235 33.5974 21.4161C36.1325 18.6087 36.1325 14.062 33.5974 11.2546Z" fill="#EA4833" stroke="#191919" stroke-linecap="round" stroke-linejoin="round"/>
<path d="M31.4444 11.2546L29.013 6.17383L26.5856 11.2546C25.2423 14.062 25.2423 18.6087 26.5856 21.4161C27.9288 24.2235 30.1012 24.2235 31.4444 21.4161C32.7837 18.6087 32.7837 14.062 31.4444 11.2546Z" fill="#EA4833" stroke="#191919" stroke-linecap="round" stroke-linejoin="round"/>
<path d="M14.0495 6.50031C16.3375 9.62558 16.3375 14.6887 14.0495 17.8139C11.7616 20.9392 8.05467 20.9392 5.76673 17.8139C3.4788 14.6887 3.4788 9.62558 5.76673 6.50031L9.90813 0.845703L14.0495 6.50031Z" fill="#FAC251" stroke="#191919"/>
<path d="M9.91016 20.127V46.8462" stroke="#191919"/>
<path d="M7.9697 9.49711C11.0787 10.711 12.8764 15.1429 11.9875 19.3894C11.0987 23.6358 7.85809 26.0946 4.74506 24.8806C1.63602 23.6667 -0.16164 19.2393 0.727227 14.9884L2.33755 7.29883L7.9697 9.49711Z" fill="#FAC251" stroke="#191919"/>
<path d="M11.8505 9.49711C8.74149 10.711 6.94383 15.1429 7.8327 19.3894C8.72156 23.6358 11.9621 26.0946 15.0752 24.8806C18.1842 23.6667 19.9859 19.2393 19.093 14.9884L17.4827 7.29883L11.8545 9.49711H11.8505Z" fill="#FAC251" stroke="#191919"/>
<path d="M14.0495 11.5316C16.3375 14.6568 16.3375 19.7199 14.0495 22.8452C11.7616 25.9705 8.05467 25.9705 5.76673 22.8452C3.4788 19.7199 3.4788 14.6568 5.76673 11.5316L9.90813 5.87695L14.0495 11.5316Z" fill="#FAC251" stroke="#191919"/>
</svg>
