<svg width="28" height="48" viewBox="0 0 28 48" fill="none" xmlns="http://www.w3.org/2000/svg">
<path d="M10.3599 11.3359L13.9858 15.0855" stroke="#191919"/>
<path d="M10.0118 8.84469C9.15028 7.95381 7.98249 7.58162 6.86447 7.71624C6.73046 8.87636 7.0942 10.084 7.95186 10.9709C8.81334 11.8618 9.98114 12.234 11.0992 12.0954C11.2332 10.9353 10.8694 9.72765 10.0118 8.84073V8.84469Z" fill="#FAC251" stroke="#191919"/>
<path d="M17.641 11.3359L14.0151 15.0855" stroke="#191919"/>
<path d="M17.9924 8.84469C18.85 7.95381 20.0217 7.58162 21.1397 7.71624C21.2737 8.87636 20.91 10.084 20.0523 10.9709C19.1946 11.8618 18.023 12.234 16.905 12.0954C16.771 10.9353 17.1347 9.72765 17.9924 8.84073V8.84469Z" fill="#FAC251" stroke="#191919"/>
<path d="M4.02197 18.1699L14.0305 28.516" stroke="#191919"/>
<path d="M3.67436 15.6779C2.81288 14.791 1.64509 14.4148 0.527069 14.5534C0.39306 15.7135 0.756798 16.9211 1.61446 17.8081C2.47594 18.6989 3.6399 19.0711 4.76175 18.9325C4.89576 17.7724 4.53202 16.5648 3.67436 15.6779Z" fill="#FAC251" stroke="#191919"/>
<path d="M8.396 18.7949V22.6989" stroke="#191919"/>
<path d="M9.84985 16.7799C9.84985 15.5247 9.27935 14.4042 8.3949 13.6836C7.50661 14.4042 6.93994 15.5247 6.93994 16.7799C6.93994 18.035 7.51044 19.1556 8.3949 19.8801C9.27935 19.1595 9.84985 18.039 9.84985 16.7799Z" fill="#FAC251" stroke="#191919"/>
<path d="M23.9769 18.1699L13.9722 28.516" stroke="#191919"/>
<path d="M24.3254 15.6779C25.1869 14.791 26.3508 14.4148 27.4727 14.5534C27.6067 15.7135 27.243 16.9211 26.3853 17.8081C25.5238 18.6989 24.356 19.0711 23.238 18.9325C23.104 17.7724 23.4677 16.5648 24.3254 15.6779Z" fill="#FAC251" stroke="#191919"/>
<path d="M19.6064 18.7949V22.6989" stroke="#191919"/>
<path d="M18.1499 16.7799C18.1499 15.5247 18.7204 14.4042 19.6049 13.6836C20.4893 14.4042 21.0598 15.5247 21.0598 16.7799C21.0598 18.035 20.4893 19.1556 19.6049 19.8801C18.7204 19.1595 18.1499 18.039 18.1499 16.7799Z" fill="#FAC251" stroke="#191919"/>
<path d="M4.02197 30.8965L14.0305 41.2425" stroke="#191919"/>
<path d="M3.67436 28.4046C2.81288 27.5137 1.64509 27.1416 0.527069 27.2801C0.39306 28.4403 0.756798 29.6479 1.61446 30.5348C2.47594 31.4217 3.6399 31.7979 4.76175 31.6593C4.89576 30.4992 4.53202 29.2915 3.67436 28.4046Z" fill="#FAC251" stroke="#191919"/>
<path d="M8.396 31.5195V35.4236" stroke="#191919"/>
<path d="M9.84985 29.5065C9.84985 28.2474 9.27935 27.1308 8.3949 26.4062C7.50661 27.1269 6.93994 28.2474 6.93994 29.5065C6.93994 30.7656 7.51044 31.8822 8.3949 32.6028C9.27935 31.8822 9.84985 30.7617 9.84985 29.5065Z" fill="#FAC251" stroke="#191919"/>
<path d="M23.9769 30.8965L13.9722 41.2425" stroke="#191919"/>
<path d="M24.3254 28.4046C25.1869 27.5137 26.3508 27.1416 27.4727 27.2801C27.6067 28.4403 27.243 29.6479 26.3853 30.5348C25.5238 31.4217 24.356 31.7979 23.238 31.6593C23.104 30.4992 23.4677 29.2915 24.3254 28.4046Z" fill="#FAC251" stroke="#191919"/>
<path d="M19.6064 31.5195V35.4236" stroke="#191919"/>
<path d="M18.1499 29.5065C18.1499 28.2474 18.7204 27.1308 19.6049 26.4062C20.4893 27.1269 21.0598 28.2474 21.0598 29.5065C21.0598 30.7656 20.4893 31.8822 19.6049 32.6028C18.7204 31.8822 18.1499 30.7617 18.1499 29.5065Z" fill="#FAC251" stroke="#191919"/>
<path d="M13.9995 2.82422V47.6452" stroke="#191919"/>
<path d="M15.4563 3.74082C15.4563 2.48172 14.8858 1.36515 14.0013 0.644531C13.1131 1.36515 12.5464 2.48568 12.5464 3.74082C12.5464 4.99597 13.1169 6.1165 14.0013 6.83712C14.8858 6.1165 15.4563 4.99597 15.4563 3.74082Z" fill="#FAC251" stroke="#191919"/>
</svg>
