<svg width="60" height="60" viewBox="0 0 60 60" fill="none" xmlns="http://www.w3.org/2000/svg">
<mask id="mask0_195_1571" style="mask-type:luminance" maskUnits="userSpaceOnUse" x="1" y="1" width="59" height="59">
<path d="M30.1689 59.3378C46.2785 59.3378 59.3378 46.2785 59.3378 30.1689C59.3378 14.0594 46.2785 1 30.1689 1C14.0594 1 1 14.0594 1 30.1689C1 46.2785 14.0594 59.3378 30.1689 59.3378Z" fill="white"/>
</mask>
<g mask="url(#mask0_195_1571)">
<path d="M30.1689 59.3378C46.2785 59.3378 59.3378 46.2785 59.3378 30.1689C59.3378 14.0594 46.2785 1 30.1689 1C14.0594 1 1 14.0594 1 30.1689C1 46.2785 14.0594 59.3378 30.1689 59.3378Z" fill="#D0EDFF"/>
<path d="M51.4259 22.3915H35.293L36.5496 19.1758H50.1693L51.4259 22.3915Z" fill="#22ABFF"/>
<path d="M51.4259 22.3916H35.293V23.48H51.4259V22.3916Z" fill="#D0C9C6"/>
<path d="M51.4259 23.4805H35.293V40.7364H51.4259V23.4805Z" fill="#ECE9E7"/>
<path d="M48.9453 25.1914H46.6992V27.3336H48.9453V25.1914Z" fill="#847770"/>
<path d="M44.4804 25.1914H42.2344V27.3336H44.4804V25.1914Z" fill="#847770"/>
<path d="M40.0117 25.1914H37.7656V27.3336H40.0117V25.1914Z" fill="#847770"/>
<path d="M43.3554 37.4463H41.1094V40.7362H43.3554V37.4463Z" fill="#D0C9C6"/>
<path d="M45.6015 37.4463H43.3555V40.7362H45.6015V37.4463Z" fill="#D0C9C6"/>
<path d="M70.1528 40.7363H-9.82422V46.0348H70.1528V40.7363Z" fill="#5F5147"/>
<path d="M70.1528 46.0342H-9.82422V62.9537H70.1528V46.0342Z" fill="#D0C9C6"/>
<path d="M54.0019 51.0615H43.3555V52.5754H54.0019V51.0615Z" fill="white"/>
<path d="M35.4902 51.0615H24.8438V52.5754H35.4902V51.0615Z" fill="white"/>
<path d="M16.9746 51.0615H6.32812V52.5754H16.9746V51.0615Z" fill="white"/>
<path d="M38.1955 13.9624H22.1367L23.3884 9.27246H36.9438L38.1955 13.9624Z" fill="#038DC8"/>
<path d="M39.0687 13.9619H21.2734V15.55H39.0687V13.9619Z" fill="#D0C9C6"/>
<path d="M38.1955 15.5498H22.1367V40.7312H38.1955V15.5498Z" fill="white"/>
<path d="M35.7322 18.0537H33.4961V21.1853H35.7322V18.0537Z" fill="#5F5147"/>
<path d="M31.2869 18.0537H29.0508V21.1853H31.2869V18.0537Z" fill="#5F5147"/>
<path d="M26.8338 18.0537H24.5977V21.1853H26.8338V18.0537Z" fill="#5F5147"/>
<path d="M35.7322 23.6826H33.4961V26.8142H35.7322V23.6826Z" fill="#5F5147"/>
<path d="M31.2869 23.6826H29.0508V26.8142H31.2869V23.6826Z" fill="#5F5147"/>
<path d="M26.8338 23.6826H24.5977V26.8142H26.8338V23.6826Z" fill="#5F5147"/>
<path d="M35.7322 29.3135H33.4961V32.4451H35.7322V29.3135Z" fill="#5F5147"/>
<path d="M31.2869 29.3135H29.0508V32.4451H31.2869V29.3135Z" fill="#5F5147"/>
<path d="M30.1658 35.9316H27.9297V40.7305H30.1658V35.9316Z" fill="#D0C9C6"/>
<path d="M32.4002 35.9316H30.1641V40.7305H32.4002V35.9316Z" fill="#D0C9C6"/>
<path d="M26.8338 29.3135H24.5977V32.4451H26.8338V29.3135Z" fill="#5F5147"/>
<path d="M22.1394 22.3915H11.1367L11.9926 19.1758H21.2835L22.1394 22.3915Z" fill="#439BFF"/>
<path d="M22.1394 22.3916H11.1367V23.48H22.1394V22.3916Z" fill="#D0C9C6"/>
<path d="M22.1394 23.4805H11.1367V40.7364H22.1394V23.4805Z" fill="white"/>
<path d="M20.4516 25.1914H18.918V27.3336H20.4516V25.1914Z" fill="#847770"/>
<path d="M17.4008 25.1914H15.8672V27.3336H17.4008V25.1914Z" fill="#847770"/>
<path d="M14.354 25.1914H12.8203V27.3336H14.354V25.1914Z" fill="#847770"/>
<path d="M20.4516 29.0508H18.918V31.1929H20.4516V29.0508Z" fill="#847770"/>
<path d="M17.4008 29.0508H15.8672V31.1929H17.4008V29.0508Z" fill="#847770"/>
<path d="M14.354 29.0508H12.8203V31.1929H14.354V29.0508Z" fill="#847770"/>
<path d="M20.4516 32.9102H18.918V35.0523H20.4516V32.9102Z" fill="#847770"/>
<path d="M17.4008 32.9102H15.8672V35.0523H17.4008V32.9102Z" fill="#847770"/>
<path d="M16.6352 37.4463H15.1016V40.7362H16.6352V37.4463Z" fill="#D0C9C6"/>
<path d="M18.1704 37.4463H16.6367V40.7362H18.1704V37.4463Z" fill="#D0C9C6"/>
<path d="M14.354 32.9102H12.8203V35.0523H14.354V32.9102Z" fill="#847770"/>
<path d="M60.8542 27.497H49.8516L50.7074 25.1768H59.9983L60.8542 27.497Z" fill="#038DC8"/>
<path d="M60.8542 27.4971H49.8516V28.2837H60.8542V27.4971Z" fill="#D0C9C6"/>
<path d="M60.8542 28.2793H49.8516V40.7315H60.8542V28.2793Z" fill="white"/>
<path d="M59.1665 29.5156H57.6328V31.0641H59.1665V29.5156Z" fill="#847770"/>
<path d="M56.1196 29.5156H54.5859V31.0641H56.1196V29.5156Z" fill="#847770"/>
<path d="M53.0727 29.5156H51.5391V31.0641H53.0727V29.5156Z" fill="#847770"/>
<path d="M59.1665 32.3008H57.6328V33.8493H59.1665V32.3008Z" fill="#847770"/>
<path d="M56.1196 32.3008H54.5859V33.8493H56.1196V32.3008Z" fill="#847770"/>
<path d="M53.0727 32.3008H51.5391V33.8493H53.0727V32.3008Z" fill="#847770"/>
<path d="M59.1665 35.0869H57.6328V36.6354H59.1665V35.0869Z" fill="#847770"/>
<path d="M56.1196 35.0869H54.5859V36.6354H56.1196V35.0869Z" fill="#847770"/>
<path d="M55.3501 38.3613H53.8164V40.736H55.3501V38.3613Z" fill="#D0C9C6"/>
<path d="M56.8852 38.3613H55.3516V40.736H56.8852V38.3613Z" fill="#D0C9C6"/>
<path d="M53.0727 35.0869H51.5391V36.6354H53.0727V35.0869Z" fill="#847770"/>
<path d="M11.1329 28.8873H-5L-3.7434 26.8145H9.87634L11.1329 28.8873Z" fill="#22ABFF"/>
<path d="M11.1329 28.8877H-5V29.5902H11.1329V28.8877Z" fill="#D0C9C6"/>
<path d="M11.1329 29.5908H-5V40.732H11.1329V29.5908Z" fill="white"/>
<path d="M8.6562 30.6973H6.41016V32.0825H8.6562V30.6973Z" fill="#847770"/>
<path d="M4.18745 30.6973H1.94141V32.0825H4.18745V30.6973Z" fill="#847770"/>
<path d="M3.06636 38.6084H0.820312V40.7308H3.06636V38.6084Z" fill="#D0C9C6"/>
<path d="M5.30855 38.6084H3.0625V40.7308H5.30855V38.6084Z" fill="#D0C9C6"/>
</g>
</svg>
