<svg width="60" height="60" viewBox="0 0 60 60" fill="none" xmlns="http://www.w3.org/2000/svg">
<rect width="60" height="60" fill="white"/>
<mask id="mask0_193_1054" style="mask-type:luminance" maskUnits="userSpaceOnUse" x="0" y="0" width="59" height="60">
<path d="M29.8035 59.2454C45.8493 59.2454 58.8569 46.1508 58.8569 29.9977C58.8569 13.8446 45.8493 0.75 29.8035 0.75C13.7577 0.75 0.75 13.8446 0.75 29.9977C0.75 46.1508 13.7577 59.2454 29.8035 59.2454Z" fill="white"/>
</mask>
<g mask="url(#mask0_193_1054)">
<path d="M8.36719 38.2285H15.4581V23.8428L8.36719 25.2069V38.2285Z" fill="#AED0E5"/>
<path d="M14.3679 38.2275H19.9805L19.9805 22.2594H14.3679L14.3679 38.2275Z" fill="#9EC5D8"/>
<path d="M43.8516 38.2278H49.4001V23.0137L43.8516 24.4622V38.2278Z" fill="#9EC5D8"/>
<path d="M22.5312 38.2271H32.086V18.8262L22.5312 20.6715V38.2271Z" fill="#9EC5D8"/>
<path d="M40.0974 38.2275H45.9219V26.9074H40.0974V38.2275Z" fill="#AED0E5"/>
<path d="M-3.19061 38.2275H8.84766L8.84766 16.4555H-3.19061L-3.19061 38.2275Z" fill="#AED0E5"/>
<path d="M32.0896 25.1514H37.9141V24.4569H32.0896V25.1514Z" fill="#9EC5D8"/>
<path d="M32.0896 38.2275H37.9141V25.1514H32.0896V38.2275Z" fill="#AED0E5"/>
<path d="M19.2536 38.2275H25.0781V25.1514H19.2536V38.2275Z" fill="#AED0E5"/>
<path d="M37.9157 38.2275H40.0938V22.2594H37.9157V38.2275Z" fill="#9EC5D8"/>
<path d="M47.6359 38.2275H52.5586V31.8929H47.6359V38.2275Z" fill="#AED0E5"/>
<path d="M34.5514 27.0215H35.4531V26.0294H34.5514V27.0215Z" fill="#CDE7FA"/>
<path d="M36.2389 27.0215H37.1406V26.0294H36.2389V27.0215Z" fill="#CDE7FA"/>
<path d="M33.7689 26.0303H32.8672V27.0224H33.7689V26.0303Z" fill="#CDE7FA"/>
<path d="M34.5514 28.9609H35.4531V27.9688H34.5514V28.9609Z" fill="#CDE7FA"/>
<path d="M36.2389 28.9609H37.1406V27.9688H36.2389V28.9609Z" fill="#CDE7FA"/>
<path d="M33.7689 27.9688H32.8672V28.9609H33.7689V27.9688Z" fill="#CDE7FA"/>
<path d="M40.6832 27.9141H45.3398V27.6164H40.6832V27.9141Z" fill="#CDE7FA"/>
<path d="M40.6832 28.9014H45.3398V28.6037H40.6832V28.9014Z" fill="#CDE7FA"/>
<path d="M40.6832 29.8838H45.3398V29.5862H40.6832V29.8838Z" fill="#CDE7FA"/>
<path d="M40.6832 30.8652H45.3398V30.5676H40.6832V30.8652Z" fill="#CDE7FA"/>
<path d="M40.6832 31.8525H45.3398V31.5549H40.6832V31.8525Z" fill="#CDE7FA"/>
<path d="M40.6832 32.8311H45.3398V32.5334H40.6832V32.8311Z" fill="#CDE7FA"/>
<path d="M19.9832 48.5119C30.0445 48.5119 38.2007 45.2471 38.2007 41.2198C38.2007 37.1925 30.0445 33.9277 19.9832 33.9277C9.9219 33.9277 1.76562 37.1925 1.76562 41.2198C1.76562 45.2471 9.9219 48.5119 19.9832 48.5119Z" fill="#77A682"/>
<path d="M80.9915 59.2497H4.87891C6.15517 46.883 22.7072 37.0957 42.9352 37.0957C63.1632 37.0957 79.7202 46.883 80.9964 59.2497H80.9915Z" fill="#A7CE9E"/>
<path d="M21.864 40.9598C21.864 38.8317 20.1492 37.1054 18.0352 37.1054C17.2665 37.1054 16.5471 37.3386 15.9459 37.7305C15.6749 37.0211 14.9949 36.5201 14.1916 36.5201C13.9896 36.5201 13.8024 36.5598 13.62 36.6193C13.62 36.5846 13.625 36.5548 13.625 36.5201C13.625 34.392 11.9101 32.6657 9.79617 32.6657C9.6237 32.6657 9.45616 32.6806 9.29355 32.7004C9.29355 32.6855 9.29355 32.6756 9.29355 32.6657C9.29355 30.617 7.64279 28.9502 5.60274 28.9502C3.56269 28.9502 1.91192 30.612 1.91192 32.6657C1.91192 32.7203 1.91685 32.7699 1.92177 32.8244C1.53249 32.7252 1.12842 32.6657 0.709571 32.6657C-1.99079 32.6657 -4.18359 34.8732 -4.18359 37.5916C-4.18359 39.7048 -2.85805 41.5055 -0.995399 42.2049C-1.0841 42.6811 -1.13337 43.1673 -1.13337 43.6683C-1.13337 48.0832 2.4244 51.6648 6.81001 51.6648C9.11616 51.6648 11.1858 50.6677 12.6394 49.0853C13.4032 49.5218 14.2803 49.7748 15.2215 49.7748C18.1091 49.7748 20.4498 47.4185 20.4498 44.5116C20.4498 44.3281 20.4399 44.1495 20.4251 43.9759C21.3023 43.2714 21.864 42.1851 21.864 40.9648V40.9598Z" fill="#5E8E6F"/>
<path d="M32.5613 29.998H31.625V35.3456H32.5613V29.998Z" fill="#594D47"/>
<path d="M43.845 35.3506H44.7812V30.0031H43.845V35.3506Z" fill="#594D47"/>
<path d="M32.2644 35.291H31.2148V39.2793H32.2644V35.291Z" fill="#847770"/>
<path d="M45.1863 35.291H44.1367V39.2793H45.1863V35.291Z" fill="#847770"/>
<path d="M32.2644 35.291H31.2148V37.3695H32.2644V35.291Z" fill="#594D47"/>
<path d="M45.1863 35.291H44.1367V37.3695H45.1863V35.291Z" fill="#594D47"/>
<path d="M46.5553 34.8838H29.8555V36.0049H46.5553V34.8838Z" fill="#847770"/>
<path d="M46.5553 32.8057H29.8555V33.9268H46.5553V32.8057Z" fill="#847770"/>
<path d="M46.5553 30.7217H29.8555V31.8428H46.5553V30.7217Z" fill="#847770"/>
<path d="M51.2059 19.6652H62.51C65.0231 19.6652 66.324 16.6442 64.6042 14.7989L59.4499 9.26285C58.0455 7.75483 55.6655 7.75483 54.2611 9.26285L49.1067 14.7989C47.387 16.6442 48.6879 19.6652 51.201 19.6652H51.2059Z" fill="#77A682"/>
<path d="M51.201 26.2625H62.505C65.0181 26.2625 66.3191 23.2415 64.5993 21.3962L56.853 13.0723L49.1067 21.3962C47.387 23.2415 48.6879 26.2625 51.201 26.2625Z" fill="#77A682"/>
<path d="M51.201 32.8543H62.505C65.0181 32.8543 66.3191 29.8333 64.5993 27.988L56.853 19.6641L49.1067 27.988C47.387 29.8333 48.6879 32.8543 51.201 32.8543Z" fill="#77A682"/>
<path d="M53.9569 40.1582H59.7617V32.8612H53.9569V40.1582Z" fill="#847770"/>
<path d="M22.1635 15.5628C24.2019 15.5628 25.8543 13.8993 25.8543 11.8473C25.8543 9.79532 24.2019 8.13184 22.1635 8.13184C20.1251 8.13184 18.4727 9.79532 18.4727 11.8473C18.4727 13.8993 20.1251 15.5628 22.1635 15.5628Z" fill="#F9F2C7"/>
</g>
</svg>
