<svg width="30" height="30" viewBox="0 0 30 30" fill="none" xmlns="http://www.w3.org/2000/svg">
<path d="M24.525 7.11358H21.5683V6.00518C21.5683 5.44975 21.1051 5 20.533 5C19.9609 5 19.4977 5.44975 19.4977 6.00518V8.73318C19.4977 8.75284 19.5027 8.7725 19.5027 8.79462C19.4698 9.32056 19.0243 9.73836 18.475 9.73836C17.9257 9.73836 17.4397 9.28861 17.4397 8.73318V7.11358H15.7993V6.00518C15.7993 5.44975 15.3361 5 14.764 5C14.1919 5 13.7287 5.44975 13.7287 6.00518V8.73318C13.7287 8.75284 13.7337 8.7725 13.7337 8.79462C13.7008 9.32056 13.2553 9.73836 12.706 9.73836C12.1567 9.73836 11.6707 9.28861 11.6707 8.73318V7.11358H10.0303V6.00518C10.0303 5.44975 9.56708 5 8.99499 5C8.42289 5 7.95965 5.44975 7.95965 6.00518V8.73318C7.95965 8.75284 7.96472 8.7725 7.96472 8.79462C7.93181 9.32056 7.48628 9.73836 6.93698 9.73836C6.38767 9.73836 5.90164 9.28861 5.90164 8.73318V7.11358H5.00047C4.4461 7.11358 3.99805 7.54859 3.99805 8.08681V24.7423C3.99805 25.2806 4.4461 25.7156 5.00047 25.7156H24.5225C25.0768 25.7156 25.5249 25.2806 25.5249 24.7423V8.08681C25.5249 7.54859 25.0768 7.11358 24.5225 7.11358H24.525ZM23.5226 23.7691H6.00543V12.1075H23.52V23.7691H23.5226Z" fill="#989898"/>
<path d="M13.1271 20.5717C13.2992 20.7388 13.5271 20.8224 13.7549 20.8224C13.9827 20.8224 14.208 20.7388 14.3827 20.5717L18.5822 16.4945C18.929 16.1578 18.929 15.6146 18.5822 15.2779C18.2354 14.9412 17.676 14.9412 17.3292 15.2779L13.7574 18.7481L12.2006 17.2367C11.8538 16.9 11.2944 16.9 10.9476 17.2367C10.6008 17.5734 10.6008 18.1165 10.9476 18.4532L13.1322 20.5742L13.1271 20.5717Z" fill="#989898"/>
</svg>
