<svg width="30" height="30" viewBox="0 0 30 30" fill="none" xmlns="http://www.w3.org/2000/svg">
<path d="M17.6722 6.54641H16.6352C16.4612 5.78429 15.7973 5.2168 15.0007 5.2168C14.204 5.2168 13.5401 5.78429 13.3661 6.54641H12.3291V9.67464H17.6722V6.54641Z" fill="#989898"/>
<path d="M22.5567 7.16797H18.8527V9.05335H21.6365V23.2734H8.36107V9.05335H11.1448V7.16797H7.44079C6.93257 7.16797 6.52051 7.59007 6.52051 8.11066V24.2161C6.52051 24.7367 6.93257 25.1588 7.44079 25.1588H22.5567C23.065 25.1588 23.477 24.7367 23.477 24.2161V8.11066C23.477 7.59007 23.065 7.16797 22.5567 7.16797Z" fill="#989898"/>
<path d="M10.7617 12.7613C10.7617 13.1295 11.0525 13.4249 11.4096 13.4249H18.5841C18.9435 13.4249 19.232 13.1271 19.232 12.7613C19.232 12.3955 18.9412 12.0977 18.5841 12.0977H11.4096C11.0502 12.0977 10.7617 12.3955 10.7617 12.7613Z" fill="#989898"/>
<path d="M18.5864 15.5371H11.4096C11.0518 15.5371 10.7617 15.8342 10.7617 16.2007V16.2031C10.7617 16.5696 11.0518 16.8667 11.4096 16.8667H18.5864C18.9442 16.8667 19.2343 16.5696 19.2343 16.2031V16.2007C19.2343 15.8342 18.9442 15.5371 18.5864 15.5371Z" fill="#989898"/>
<path d="M18.587 18.9766H11.4125C11.0531 18.9766 10.7646 19.2744 10.7646 19.6402C10.7646 20.006 11.0554 20.3038 11.4125 20.3038H18.587C18.9465 20.3038 19.2349 20.006 19.2349 19.6402C19.2349 19.2744 18.9442 18.9766 18.587 18.9766Z" fill="#989898"/>
</svg>
