<svg width="50" height="50" viewBox="0 0 50 50" fill="none" xmlns="http://www.w3.org/2000/svg">
<path d="M36.5117 21.7754V48.0002" stroke="#191919"/>
<path d="M35.9181 24.4632C36.2091 25.1695 35.5754 26.1848 34.4992 26.7321C33.4229 27.2795 32.3149 27.147 32.0199 26.4408C31.7289 25.7345 32.3627 24.7192 33.4389 24.1719C34.5151 23.6289 35.6232 23.7569 35.9181 24.4632Z" fill="#98AA5E" stroke="#191919"/>
<path d="M37.1033 24.4632C36.8083 25.1695 37.4461 26.1848 38.5223 26.7321C39.5985 27.2795 40.7066 27.147 40.9976 26.4408C41.2885 25.7345 40.6548 24.7192 39.5786 24.1719C38.5024 23.6289 37.3943 23.7569 37.1033 24.4632Z" fill="#98AA5E" stroke="#191919"/>
<path d="M36.5098 23.7617C37.2113 23.7617 37.7813 24.8255 37.7813 26.1366C37.7813 27.4476 37.2113 28.5114 36.5098 28.5114C35.8083 28.5114 35.2383 27.4476 35.2383 26.1366C35.2383 24.8255 35.8083 23.7617 36.5098 23.7617Z" fill="#98AA5E" stroke="#191919"/>
<path d="M41.0974 12.4089L36.5096 7.32812L31.9217 12.4089C29.3907 15.2163 29.3907 19.763 31.9217 22.5704C34.4568 25.3778 38.5623 25.3778 41.0974 22.5704C43.6325 19.763 43.6325 15.2163 41.0974 12.4089Z" fill="#EA4833" stroke="#191919" stroke-linecap="round" stroke-linejoin="round"/>
<path d="M38.9444 12.4089L36.513 7.32812L34.0856 12.4089C32.7423 15.2163 32.7423 19.763 34.0856 22.5704C35.4288 25.3778 37.6012 25.3778 38.9444 22.5704C40.2837 19.763 40.2837 15.2163 38.9444 12.4089Z" fill="#EA4833" stroke="#191919" stroke-linecap="round" stroke-linejoin="round"/>
<path d="M21.5495 7.65461C23.8375 10.7799 23.8375 15.843 21.5495 18.9682C19.2616 22.0935 15.5547 22.0935 13.2667 18.9682C10.9788 15.843 10.9788 10.7799 13.2667 7.65461L17.4081 2L21.5495 7.65461Z" fill="#FAC251" stroke="#191919"/>
<path d="M17.4102 21.2812V48.0005" stroke="#191919"/>
<path d="M15.4697 10.6514C18.5787 11.8653 20.3764 16.2972 19.4875 20.5437C18.5987 24.7901 15.3581 27.2488 12.2451 26.0349C9.13602 24.821 7.33836 20.3936 8.22723 16.1427L9.83755 8.45312L15.4697 10.6514Z" fill="#FAC251" stroke="#191919"/>
<path d="M19.3505 10.6514C16.2415 11.8653 14.4438 16.2972 15.3327 20.5437C16.2216 24.7901 19.4621 27.2488 22.5752 26.0349C25.6842 24.821 27.4859 20.3936 26.593 16.1427L24.9827 8.45312L19.3545 10.6514H19.3505Z" fill="#FAC251" stroke="#191919"/>
<path d="M21.5495 12.6859C23.8375 15.8111 23.8375 20.8742 21.5495 23.9995C19.2616 27.1248 15.5547 27.1248 13.2667 23.9995C10.9788 20.8742 10.9788 15.8111 13.2667 12.6859L17.4081 7.03125L21.5495 12.6859Z" fill="#FAC251" stroke="#191919"/>
</svg>
