<svg width="60" height="60" viewBox="0 0 60 60" fill="none" xmlns="http://www.w3.org/2000/svg">
<mask id="mask0_193_1106" style="mask-type:luminance" maskUnits="userSpaceOnUse" x="0" y="0" width="60" height="59">
<path d="M30.0134 58.6922C46.1752 58.6922 59.2769 45.7214 59.2769 29.7211C59.2769 13.7208 46.1752 0.75 30.0134 0.75C13.8517 0.75 0.75 13.7208 0.75 29.7211C0.75 45.7214 13.8517 58.6922 30.0134 58.6922Z" fill="white"/>
</mask>
<g mask="url(#mask0_193_1106)">
<path d="M30.0134 58.6922C46.1752 58.6922 59.2769 45.7214 59.2769 29.7211C59.2769 13.7208 46.1752 0.75 30.0134 0.75C13.8517 0.75 0.75 13.7208 0.75 29.7211C0.75 45.7214 13.8517 58.6922 30.0134 58.6922Z" fill="#D0EDFF"/>
<path d="M66.3501 36.5216V62.5297C55.6741 63.822 43.2609 64.564 30.009 64.564C16.7571 64.564 4.34892 63.822 -6.33203 62.5297V36.5216C4.34396 35.2244 16.7571 34.4873 30.009 34.4873C43.2609 34.4873 55.6691 35.2244 66.3501 36.5216Z" fill="#A7CE9E"/>
<path d="M15.6733 34.778C15.6733 34.778 15.3954 38.2519 22.5971 39.5885C29.7988 40.925 36.251 43.0035 37.601 47.4602C38.951 51.9169 25.7487 61.7197 25.7487 61.7197H52.3072C52.3072 61.7197 58.2433 52.1478 52.3916 46.0549C46.5399 39.9668 26.7166 38.9005 21.396 36.9105C17.5842 35.4855 18.2443 34.6797 18.2443 34.6797L15.6733 34.773V34.778Z" fill="#F7FAD7"/>
<path d="M10.1836 46.3633V47.6846" stroke="#77A682" stroke-width="3" stroke-linecap="round" stroke-linejoin="round"/>
<path d="M12.9336 46.3633V47.6846" stroke="#77A682" stroke-width="3" stroke-linecap="round" stroke-linejoin="round"/>
<path d="M21.6914 52.1328V53.4542" stroke="#77A682" stroke-width="3" stroke-linecap="round" stroke-linejoin="round"/>
<path d="M24.4531 52.1328V53.4542" stroke="#77A682" stroke-width="3" stroke-linecap="round" stroke-linejoin="round"/>
<path d="M22.5781 44.4141V45.7354" stroke="#77A682" stroke-width="3" stroke-linecap="round" stroke-linejoin="round"/>
<path d="M25.332 44.4141V45.7354" stroke="#77A682" stroke-width="3" stroke-linecap="round" stroke-linejoin="round"/>
<path d="M11.7852 38.7861V40.1075" stroke="#77A682" stroke-width="3" stroke-linecap="round" stroke-linejoin="round"/>
<path d="M14.5391 38.7861V40.1075" stroke="#77A682" stroke-width="3" stroke-linecap="round" stroke-linejoin="round"/>
<path d="M39.6892 30.3652H37.7188V36.6253H39.6892V30.3652Z" fill="#847770"/>
<path d="M42.3365 26.7052C42.3365 30.7836 40.7086 31.3437 38.7034 31.3437C36.6983 31.3437 35.0703 30.7836 35.0703 26.7052C35.0703 22.6268 36.6983 16.583 38.7034 16.583C40.7086 16.583 42.3365 22.6318 42.3365 26.7052Z" fill="#A7CE9E"/>
<path d="M39.4102 16.5781C41.0232 16.5781 42.3335 22.6269 42.3335 26.7003C42.3335 30.7738 41.0232 31.3388 39.4102 31.3388" fill="#77A682"/>
<path d="M39.4077 31.3437C37.7947 31.3437 36.4844 30.7836 36.4844 26.7052C36.4844 22.6268 37.7947 16.583 39.4077 16.583" fill="#77A682"/>
<path d="M50.7809 33.0977H48.4531V40.4878H50.7809V33.0977Z" fill="#847770"/>
<path d="M53.9047 28.7734C53.9047 33.5888 51.9839 34.2521 49.6164 34.2521C47.2489 34.2521 45.3281 33.5888 45.3281 28.7734C45.3281 23.9579 47.2489 16.8184 49.6164 16.8184C51.9839 16.8184 53.9047 23.9629 53.9047 28.7734Z" fill="#A7CE9E"/>
<path d="M50.4531 16.8184C52.359 16.8184 53.9076 23.9629 53.9076 28.7734C53.9076 33.5839 52.359 34.2521 50.4531 34.2521" fill="#77A682"/>
<path d="M50.4544 34.2521C48.5485 34.2521 47 33.5888 47 28.7734C47 23.9579 48.5485 16.8184 50.4544 16.8184" fill="#77A682"/>
</g>
</svg>
