<svg width="44" height="50" viewBox="0 0 44 50" fill="none" xmlns="http://www.w3.org/2000/svg">
<path d="M40.5657 19.7769C42.3632 18.5772 43.5485 16.55 43.5485 14.2533C43.5485 10.5709 40.5136 7.58137 36.7753 7.58137C36.5994 7.58137 36.4301 7.58779 36.2608 7.60062C36.2608 7.5942 36.2608 7.58779 36.2608 7.58137C36.2608 4.98958 34.1246 2.88536 31.4935 2.88536C29.9825 2.88536 28.6409 3.57821 27.7682 4.65599C27.0192 2.20533 24.7137 0.421875 21.9784 0.421875C19.243 0.421875 16.9375 2.20533 16.1885 4.65599C15.3158 3.57821 13.9742 2.88536 12.4633 2.88536C9.83212 2.88536 7.69594 4.98958 7.69594 7.58137C7.69594 7.58779 7.69594 7.5942 7.69594 7.60062C7.52661 7.58779 7.35728 7.58137 7.18143 7.58137C3.46267 7.58137 0.427734 10.5645 0.427734 14.2469C0.427734 17.0247 2.1471 19.4048 4.59588 20.4056C3.44964 21.5988 2.73975 23.2155 2.73975 24.9861C2.73975 28.6685 5.76817 31.6517 9.50648 31.6517C12.5088 31.6517 15.0488 29.7271 15.9345 27.0647C17.465 28.6236 19.6077 29.5988 21.9849 29.5988C24.5704 29.5988 26.889 28.444 28.426 26.6349C29.0056 30.1312 32.0861 32.8 35.7984 32.8C39.9274 32.8 43.2685 29.5025 43.2685 25.4416C43.2685 23.1578 42.2134 21.1241 40.5592 19.7705L40.5657 19.7769Z" fill="#20B700"/>
<path d="M40.5652 19.7783C42.3627 18.5786 43.548 16.5514 43.548 14.2547C43.548 10.5723 40.5131 7.58273 36.7748 7.58273C36.599 7.58273 36.4296 7.58915 36.2603 7.60198C36.2603 7.59556 36.2603 7.58915 36.2603 7.58273C36.2603 4.99094 34.1241 2.88672 31.493 2.88672C30.5096 2.88672 29.5978 3.18182 28.8423 3.68222C31.0176 4.11846 32.6523 6.01098 32.6523 8.282C32.6523 8.28842 32.6523 8.29483 32.6523 8.30125C32.8216 8.28842 32.9909 8.282 33.1668 8.282C36.9051 8.282 39.94 11.2651 39.94 14.9539C39.94 17.257 38.7612 19.2843 36.9572 20.4775C38.6114 21.8247 39.6665 23.8648 39.6665 26.1487V26.1743C39.6599 27.9578 38.2402 29.4333 36.4361 29.5873C36.2277 29.6065 36.0128 29.6129 35.8044 29.6129C32.0922 29.6129 29.0116 26.9442 28.432 23.4478C26.8885 25.2569 24.5765 26.4117 21.9909 26.4117C19.6138 26.4117 17.4711 25.4366 15.9406 23.8776C15.0549 26.54 12.5084 28.4646 9.51252 28.4646C6.33431 28.4646 3.67061 26.3091 2.94118 23.3965C2.75882 24.115 2.6937 24.8784 2.77836 25.6675C3.12354 28.9907 5.96309 31.5824 9.35622 31.653C12.4237 31.7236 15.0353 29.7733 15.9406 27.0661C17.4711 28.625 19.6138 29.6001 21.9909 29.6001C24.5765 29.6001 26.895 28.4454 28.432 26.6362C29.0116 30.1326 32.0922 32.8014 35.8044 32.8014C39.9335 32.8014 43.2745 29.5039 43.2745 25.443C43.2745 25.3083 43.2745 25.1671 43.2615 25.0324C43.1443 22.9153 42.1218 21.0421 40.5652 19.7718V19.7783Z" fill="#20A200"/>
<path d="M28.9332 28.3438C27.9628 29.0623 25.5922 30.8136 25.5922 30.8136L21.9841 33.476L18.3826 30.8136C18.3826 30.8136 16.3897 29.3381 15.2565 28.5105C14.9048 29.0687 14.4749 29.5627 13.98 29.9989L15.2825 31.3333L20.2583 36.4271V49.572H23.71V36.4271L28.6857 31.3333C28.6857 31.3333 29.3565 30.6469 29.9492 30.0374C29.5389 29.5306 29.1937 28.9596 28.9267 28.3566L28.9332 28.3438Z" fill="#955031"/>
<path d="M16.6768 30.8045L20.2784 33.4669L21.1315 32.8382L18.3832 30.8109C18.3832 30.8109 16.3903 29.3354 15.2571 28.5078C15.0747 28.7965 14.8728 29.0659 14.6514 29.3226C15.6478 30.0603 16.6703 30.8173 16.6703 30.8173L16.6768 30.8045Z" fill="#80503C"/>
<path d="M28.9357 28.3438C28.6231 28.5747 28.1737 28.9083 27.7048 29.2547C27.8676 29.5242 28.05 29.7808 28.2519 30.0246C27.6592 30.634 26.9884 31.3205 26.9884 31.3205L22.0127 36.4142V49.5592H23.719V36.4142L28.6948 31.3205C28.6948 31.3205 29.3656 30.634 29.9582 30.0246C29.5479 29.5178 29.2027 28.9468 28.9357 28.3438Z" fill="#80503C"/>
<path d="M28.9335 28.3438C28.0022 29.0302 25.7813 30.6661 25.6055 30.8008C26.2958 30.5442 26.9601 30.217 27.5853 29.8193C27.8849 30.3646 28.2431 30.8842 28.6534 31.3654L28.6925 31.3269C28.6925 31.3269 29.3633 30.6404 29.956 30.031C29.5457 29.5242 29.2005 28.9532 28.9335 28.3502V28.3438Z" fill="#80503C"/>
<path d="M16.5538 29.9197C17.1334 30.279 17.7456 30.5741 18.3839 30.8051C18.3318 30.7666 16.378 29.3231 15.2643 28.502C14.9126 29.0601 14.4828 29.5541 13.9878 29.9903L15.2903 31.3247C15.7593 30.9077 16.1891 30.4394 16.5603 29.9262L16.5538 29.9197Z" fill="#80503C"/>
<path d="M29.8474 49.9944H14.1322C13.8912 49.9944 13.6958 49.802 13.6958 49.5646C13.6958 49.3272 13.8912 49.1348 14.1322 49.1348H29.8474C30.0883 49.1348 30.2837 49.3272 30.2837 49.5646C30.2837 49.802 30.0883 49.9944 29.8474 49.9944Z" fill="#1E1E1E"/>
<path d="M20.2663 49.9948C20.0254 49.9948 19.83 49.8023 19.83 49.5649V36.5931L14.978 31.6213C14.8087 31.4481 14.8152 31.1786 14.991 31.0118C15.1669 30.845 15.4404 30.8514 15.6097 31.0246L20.5855 36.1184C20.6636 36.1954 20.7092 36.3045 20.7092 36.4135V49.5585C20.7092 49.7959 20.5138 49.9883 20.2729 49.9883L20.2663 49.9948Z" fill="#1E1E1E"/>
<path d="M23.7117 49.9942C23.4708 49.9942 23.2754 49.8017 23.2754 49.5644V36.4194C23.2754 36.3103 23.321 36.2013 23.3991 36.1243L28.3749 31.0305C28.5442 30.8573 28.8177 30.8509 28.9936 31.0177C29.1694 31.1845 29.1694 31.4539 29.0066 31.6271L24.1546 36.599V49.5708C24.1546 49.8082 23.9592 50.0006 23.7183 50.0006L23.7117 49.9942Z" fill="#1E1E1E"/>
<path d="M21.9862 33.8971C21.895 33.8971 21.8038 33.865 21.7257 33.8137L18.1242 31.1513C17.9288 31.0102 17.8897 30.7407 18.0395 30.5483C18.1893 30.3558 18.4563 30.3173 18.6517 30.4649L21.9927 32.9348L25.3337 30.4649C25.5291 30.3237 25.8027 30.3622 25.9459 30.5483C26.0892 30.7343 26.0501 31.0102 25.8613 31.1513L22.2597 33.8137C22.1816 33.8714 22.0904 33.8971 21.9992 33.8971H21.9862Z" fill="#1E1E1E"/>
<path d="M35.807 33.2378C32.1989 33.2378 29.1249 30.8898 28.1871 27.541C26.5394 29.1384 24.325 30.0365 21.9935 30.0365C19.7987 30.0365 17.7342 29.2603 16.119 27.8361C14.9858 30.4086 12.4067 32.0959 9.5151 32.0959C5.54233 32.0959 2.31202 28.9139 2.31202 25.0005C2.31202 23.3774 2.87211 21.8249 3.89461 20.5675C1.51095 19.355 0 16.9364 0 14.2613C0 10.3479 3.23031 7.1595 7.20959 7.1595C7.24216 7.1595 7.27472 7.1595 7.30077 7.1595C7.5222 4.53563 9.76258 2.46348 12.4849 2.46348C13.8265 2.46348 15.09 2.96388 16.0474 3.85561C17.0634 1.55251 19.4144 0 22 0C24.5856 0 26.9367 1.55251 27.9526 3.85561C28.91 2.96388 30.1735 2.46348 31.5151 2.46348C34.2374 2.46348 36.4778 4.53563 36.6992 7.1595C36.7318 7.1595 36.7644 7.1595 36.7904 7.1595C40.7632 7.1595 44 10.3415 44 14.2613C44 16.4361 42.9905 18.4761 41.2777 19.8169C42.8407 21.286 43.7265 23.3069 43.7265 25.456C43.7265 29.7543 40.177 33.2442 35.82 33.2442L35.807 33.2378ZM28.4346 26.213C28.4737 26.213 28.5127 26.213 28.5518 26.2258C28.7146 26.2707 28.8384 26.4055 28.8644 26.5723C29.4245 29.9339 32.3422 32.3781 35.807 32.3781C39.6886 32.3781 42.8407 29.2667 42.8407 25.4496C42.8407 23.3774 41.9094 21.4336 40.2943 20.112C40.1901 20.0286 40.1314 19.8939 40.138 19.7592C40.138 19.6245 40.2161 19.5026 40.3268 19.4256C42.0722 18.2644 43.1143 16.327 43.1143 14.2548C43.1143 10.8162 40.2747 8.01274 36.7774 8.01274C36.6341 8.01274 36.4778 8.01274 36.2954 8.03198C36.1782 8.0384 36.0545 7.9999 35.9633 7.91651C35.8721 7.83311 35.8265 7.71763 35.8265 7.60215V7.57649C35.8265 5.22849 33.8857 3.31672 31.4956 3.31672C30.1735 3.31672 28.9426 3.90051 28.1089 4.92055C28.0047 5.04244 27.8419 5.1066 27.6856 5.07452C27.5228 5.04244 27.3991 4.92697 27.3535 4.77941C26.6436 2.46348 24.4358 0.853238 21.9805 0.853238C19.5252 0.853238 17.3173 2.4699 16.6075 4.77941C16.5619 4.93338 16.4316 5.04886 16.2753 5.07452C16.119 5.1066 15.9497 5.04244 15.852 4.92055C15.0249 3.90051 13.794 3.31672 12.4654 3.31672C10.0817 3.31672 8.1344 5.22849 8.1344 7.58291V7.60215C8.1344 7.72405 8.0823 7.83311 7.99763 7.91651C7.90645 7.9999 7.78922 8.0384 7.66548 8.03198C7.48313 8.01915 7.33333 8.01274 7.18354 8.01274C3.69272 8.01274 0.846655 10.8098 0.846655 14.2548C0.846655 16.7825 2.37715 19.0471 4.74778 20.0158C4.87803 20.0671 4.97573 20.1826 5.00829 20.3237C5.04085 20.4649 4.99526 20.606 4.89757 20.7087C3.77738 21.8698 3.16519 23.3967 3.16519 24.9941C3.16519 28.4327 6.00474 31.2298 9.49556 31.2298C12.2374 31.2298 14.6536 29.5041 15.5133 26.9379C15.5589 26.7968 15.6827 26.6877 15.8324 26.6557C15.9822 26.6236 16.1385 26.6685 16.2427 26.7775C17.7602 28.3236 19.7987 29.1769 21.9805 29.1769C24.3446 29.1769 26.5654 28.1504 28.0894 26.367C28.1741 26.2707 28.2978 26.213 28.4216 26.213H28.4346Z" fill="#1E1E1E"/>
<path d="M17.5581 20.1128C17.5581 20.1128 17.5451 20.1128 17.5385 20.1128C17.2976 20.1064 17.1087 19.9011 17.1217 19.6701C17.2129 17.3349 18.8737 15.2949 21.1726 14.7047C23.2307 14.1722 25.4255 14.91 26.7475 16.501C27.3337 15.6221 28.2324 14.9869 29.281 14.7175C30.4077 14.4288 31.5865 14.5892 32.5895 15.1666C33.5924 15.7439 34.3153 16.6806 34.6084 17.7904C34.667 18.0214 34.5303 18.2523 34.2958 18.3165C34.0613 18.3742 33.8269 18.2395 33.7618 18.0086C33.5273 17.1168 32.9542 16.3726 32.1466 15.9107C31.339 15.4488 30.4012 15.3205 29.4959 15.5515C28.4604 15.8145 27.6202 16.5202 27.1839 17.4889C27.1188 17.6365 26.9755 17.7327 26.8127 17.7455C26.6499 17.7584 26.4935 17.675 26.4089 17.5402C25.3734 15.8658 23.3023 15.0447 21.3745 15.5451C19.4468 16.039 18.0531 17.7519 17.9814 19.7086C17.9749 19.9396 17.7795 20.1256 17.5451 20.1256L17.5581 20.1128Z" fill="#1E1E1E"/>
<path d="M31.671 29.2326C31.5472 29.2326 31.417 29.1813 31.3323 29.0723C31.1304 28.8285 30.9415 28.5654 30.7852 28.2896C30.668 28.0843 30.7397 27.8213 30.9481 27.7058C31.1565 27.5903 31.4235 27.6609 31.5407 27.8662C31.6775 28.0971 31.8338 28.3217 32.0031 28.5269C32.1594 28.713 32.1269 28.9824 31.9445 29.13C31.8664 29.1941 31.7622 29.2262 31.671 29.2262V29.2326Z" fill="#1E1E1E"/>
<path d="M35.8034 31.1466C34.7874 31.1466 33.791 30.8836 32.9183 30.396C32.7099 30.2806 32.6382 30.0175 32.7555 29.8123C32.8727 29.607 33.1397 29.5364 33.3546 29.6519C34.0971 30.0689 34.9437 30.2934 35.8099 30.2934C36.9106 30.2934 37.9461 29.9406 38.8188 29.2798C39.0077 29.1322 39.2812 29.1707 39.431 29.3568C39.5808 29.5428 39.5417 29.8123 39.3529 29.9598C38.3304 30.7425 37.106 31.1531 35.8099 31.1531L35.8034 31.1466Z" fill="#1E1E1E"/>
<path d="M18.5609 4.91816C18.4893 4.91816 18.4176 4.89891 18.346 4.86042C18.1376 4.74495 18.0594 4.48192 18.1832 4.27663C18.9582 2.92299 20.417 2.07617 21.9866 2.07617C22.2276 2.07617 22.4229 2.26863 22.4229 2.506C22.4229 2.74337 22.2276 2.93583 21.9866 2.93583C20.7296 2.93583 19.5639 3.60943 18.9451 4.69362C18.867 4.83476 18.7172 4.91174 18.5674 4.91174L18.5609 4.91816Z" fill="white"/>
<path d="M2.55061 14.6776C2.30964 14.6776 2.11426 14.4852 2.11426 14.2478C2.11426 11.8805 3.82059 9.81481 6.1782 9.34007C6.41266 9.29517 6.64712 9.44272 6.69271 9.67367C6.7383 9.90462 6.5885 10.1356 6.35404 10.1805C4.40674 10.5718 2.98696 12.2847 2.98696 14.2478C2.98696 14.4852 2.79158 14.6776 2.55061 14.6776Z" fill="white"/>
</svg>
