<svg width="60" height="60" viewBox="0 0 60 60" fill="none" xmlns="http://www.w3.org/2000/svg">
<mask id="mask0_279_3942" style="mask-type:luminance" maskUnits="userSpaceOnUse" x="0" y="0" width="59" height="60">
<path d="M29.8035 59.2454C45.8493 59.2454 58.8569 46.1508 58.8569 29.9977C58.8569 13.8446 45.8493 0.75 29.8035 0.75C13.7577 0.75 0.75 13.8446 0.75 29.9977C0.75 46.1508 13.7577 59.2454 29.8035 59.2454Z" fill="white"/>
</mask>
<g mask="url(#mask0_279_3942)">
<path d="M29.8074 59.0579C45.8532 59.0579 58.8609 45.9633 58.8609 29.8102C58.8609 13.6571 45.8532 0.5625 29.8074 0.5625C13.7616 0.5625 0.753906 13.6571 0.753906 29.8102C0.753906 45.9633 13.7616 59.0579 29.8074 59.0579Z" fill="#D0EDFF"/>
<path d="M8.36719 38.2295H15.4581V23.8438L8.36719 25.2079V38.2295Z" fill="#AED0E5"/>
<path d="M14.3679 38.2285H19.9805L19.9805 22.2603H14.3679L14.3679 38.2285Z" fill="#9EC5D8"/>
<path d="M43.8516 38.2298H49.4001V23.0156L43.8516 24.4641V38.2298Z" fill="#9EC5D8"/>
<path d="M22.5312 38.229H32.086V18.8281L22.5312 20.6735V38.229Z" fill="#9EC5D8"/>
<path d="M40.0974 38.2285H45.9219V26.9084H40.0974V38.2285Z" fill="#AED0E5"/>
<path d="M-3.19061 38.2285H8.84766L8.84766 16.4564H-3.19061L-3.19061 38.2285Z" fill="#AED0E5"/>
<path d="M32.0896 25.1523H37.9141V24.4579H32.0896V25.1523Z" fill="#9EC5D8"/>
<path d="M32.0896 38.2285H37.9141V25.1524H32.0896V38.2285Z" fill="#AED0E5"/>
<path d="M19.2536 38.2285H25.0781V25.1524H19.2536V38.2285Z" fill="#AED0E5"/>
<path d="M37.9157 38.2285H40.0938V22.2603H37.9157V38.2285Z" fill="#9EC5D8"/>
<path d="M47.6359 38.2285H52.5586V31.8938H47.6359V38.2285Z" fill="#AED0E5"/>
<path d="M34.5514 27.0234H35.4531V26.0313H34.5514V27.0234Z" fill="#CDE7FA"/>
<path d="M36.2389 27.0234H37.1406V26.0313H36.2389V27.0234Z" fill="#CDE7FA"/>
<path d="M33.7689 26.0312H32.8672V27.0234H33.7689V26.0312Z" fill="#CDE7FA"/>
<path d="M34.5514 28.9609H35.4531V27.9688H34.5514V28.9609Z" fill="#CDE7FA"/>
<path d="M36.2389 28.9609H37.1406V27.9688H36.2389V28.9609Z" fill="#CDE7FA"/>
<path d="M33.7689 27.9688H32.8672V28.9609H33.7689V27.9688Z" fill="#CDE7FA"/>
<path d="M40.6832 27.9141H45.3398V27.6164H40.6832V27.9141Z" fill="#CDE7FA"/>
<path d="M40.6832 28.9023H45.3398V28.6047H40.6832V28.9023Z" fill="#CDE7FA"/>
<path d="M40.6832 29.8848H45.3398V29.5871H40.6832V29.8848Z" fill="#CDE7FA"/>
<path d="M40.6832 30.8672H45.3398V30.5696H40.6832V30.8672Z" fill="#CDE7FA"/>
<path d="M40.6832 31.8535H45.3398V31.5559H40.6832V31.8535Z" fill="#CDE7FA"/>
<path d="M40.6832 32.832H45.3398V32.5344H40.6832V32.832Z" fill="#CDE7FA"/>
<path d="M19.9832 48.5119C30.0445 48.5119 38.2007 45.2471 38.2007 41.2198C38.2007 37.1925 30.0445 33.9277 19.9832 33.9277C9.9219 33.9277 1.76562 37.1925 1.76562 41.2198C1.76562 45.2471 9.9219 48.5119 19.9832 48.5119Z" fill="#77A682"/>
<path d="M80.9915 59.2517H4.87891C6.15517 46.8849 22.7072 37.0977 42.9352 37.0977C63.1632 37.0977 79.7202 46.8849 80.9964 59.2517H80.9915Z" fill="#A7CE9E"/>
<path d="M21.864 40.9608C21.864 38.8327 20.1492 37.1064 18.0352 37.1064C17.2665 37.1064 16.5471 37.3395 15.9459 37.7314C15.6749 37.0221 14.9949 36.521 14.1916 36.521C13.9896 36.521 13.8024 36.5607 13.62 36.6203C13.62 36.5855 13.625 36.5558 13.625 36.521C13.625 34.393 11.9101 32.6667 9.79617 32.6667C9.6237 32.6667 9.45616 32.6815 9.29355 32.7014C9.29355 32.6865 9.29355 32.6766 9.29355 32.6667C9.29355 30.6179 7.64279 28.9512 5.60274 28.9512C3.56269 28.9512 1.91192 30.613 1.91192 32.6667C1.91192 32.7212 1.91685 32.7708 1.92177 32.8254C1.53249 32.7262 1.12842 32.6667 0.709571 32.6667C-1.99079 32.6667 -4.18359 34.8741 -4.18359 37.5925C-4.18359 39.7058 -2.85805 41.5065 -0.995399 42.2059C-1.0841 42.6821 -1.13337 43.1683 -1.13337 43.6693C-1.13337 48.0842 2.4244 51.6658 6.81001 51.6658C9.11616 51.6658 11.1858 50.6687 12.6394 49.0863C13.4032 49.5228 14.2803 49.7758 15.2215 49.7758C18.1091 49.7758 20.4498 47.4195 20.4498 44.5126C20.4498 44.329 20.4399 44.1505 20.4251 43.9768C21.3023 43.2724 21.864 42.1861 21.864 40.9657V40.9608Z" fill="#5E8E6F"/>
<path d="M32.5613 30H31.625V35.3475H32.5613V30Z" fill="#594D47"/>
<path d="M43.845 35.3516H44.7812V30.004H43.845V35.3516Z" fill="#594D47"/>
<path d="M32.2644 35.293H31.2148V39.2813H32.2644V35.293Z" fill="#847770"/>
<path d="M45.1863 35.293H44.1367V39.2813H45.1863V35.293Z" fill="#847770"/>
<path d="M32.2644 35.293H31.2148V37.3715H32.2644V35.293Z" fill="#594D47"/>
<path d="M45.1863 35.293H44.1367V37.3715H45.1863V35.293Z" fill="#594D47"/>
<path d="M46.5553 34.8848H29.8555V36.0059H46.5553V34.8848Z" fill="#847770"/>
<path d="M46.5553 32.8066H29.8555V33.9277H46.5553V32.8066Z" fill="#847770"/>
<path d="M46.5553 30.7227H29.8555V31.8438H46.5553V30.7227Z" fill="#847770"/>
<path d="M51.2059 19.6662H62.51C65.0231 19.6662 66.324 16.6452 64.6042 14.7999L59.4499 9.26383C58.0455 7.75581 55.6655 7.75581 54.2611 9.26383L49.1067 14.7999C47.387 16.6452 48.6879 19.6662 51.201 19.6662H51.2059Z" fill="#77A682"/>
<path d="M51.201 26.2645H62.505C65.0181 26.2645 66.3191 23.2434 64.5993 21.3981L56.853 13.0742L49.1067 21.3981C47.387 23.2434 48.6879 26.2645 51.201 26.2645Z" fill="#77A682"/>
<path d="M51.201 32.8543H62.505C65.0181 32.8543 66.3191 29.8333 64.5993 27.988L56.853 19.6641L49.1067 27.988C47.387 29.8333 48.6879 32.8543 51.201 32.8543Z" fill="#77A682"/>
<path d="M53.9569 40.1582H59.7617V32.8612H53.9569V40.1582Z" fill="#847770"/>
<path d="M22.1635 15.5638C24.2019 15.5638 25.8543 13.9003 25.8543 11.8483C25.8543 9.79629 24.2019 8.13281 22.1635 8.13281C20.1251 8.13281 18.4727 9.79629 18.4727 11.8483C18.4727 13.9003 20.1251 15.5638 22.1635 15.5638Z" fill="#F9F2C7"/>
</g>
</svg>
