<svg width="50" height="50" viewBox="0 0 50 50" fill="none" xmlns="http://www.w3.org/2000/svg">
<path d="M42.7217 19.8776C44.4375 18.7325 45.5689 16.7974 45.5689 14.6051C45.5689 11.0901 42.672 8.23641 39.1036 8.23641C38.9357 8.23641 38.7741 8.24253 38.6125 8.25478C38.6125 8.24866 38.6125 8.24253 38.6125 8.23641C38.6125 5.76243 36.5734 3.75385 34.0618 3.75385C32.6196 3.75385 31.3389 4.41521 30.5059 5.444C29.791 3.10474 27.5903 1.40234 24.9792 1.40234C22.3682 1.40234 20.1675 3.10474 19.4526 5.444C18.6196 4.41521 17.3389 3.75385 15.8967 3.75385C13.3851 3.75385 11.346 5.76243 11.346 8.23641C11.346 8.24253 11.346 8.24866 11.346 8.25478C11.1844 8.24253 11.0228 8.23641 10.8549 8.23641C7.30518 8.23641 4.4082 11.0839 4.4082 14.5989C4.4082 17.2505 6.04941 19.5224 8.38689 20.4777C7.29275 21.6167 6.61513 23.1599 6.61513 24.85C6.61513 28.3651 9.50589 31.2126 13.0743 31.2126C15.9402 31.2126 18.3647 29.3755 19.2102 26.8341C20.6711 28.3222 22.7164 29.253 24.9855 29.253C27.4535 29.253 29.6666 28.1507 31.1338 26.4238C31.6871 29.7613 34.6276 32.3087 38.1711 32.3087C42.1125 32.3087 45.3016 29.1611 45.3016 25.2848C45.3016 23.1048 44.2945 21.1636 42.7155 19.8715L42.7217 19.8776Z" fill="#20B700"/>
<path d="M42.7219 19.8796C44.4378 18.7345 45.5692 16.7994 45.5692 14.6071C45.5692 11.0921 42.6722 8.23842 39.1038 8.23842C38.936 8.23842 38.7743 8.24454 38.6127 8.25679C38.6127 8.25067 38.6127 8.24454 38.6127 8.23842C38.6127 5.76444 36.5736 3.75586 34.0621 3.75586C33.1234 3.75586 32.253 4.03755 31.5319 4.5152C33.6083 4.93161 35.1687 6.73811 35.1687 8.9059C35.1687 8.91203 35.1687 8.91815 35.1687 8.92427C35.3303 8.91203 35.4919 8.9059 35.6598 8.9059C39.2282 8.9059 42.1251 11.7534 42.1251 15.2746C42.1251 17.473 40.9999 19.4081 39.2779 20.5471C40.8569 21.8331 41.864 23.7804 41.864 25.9605V25.9849C41.8578 27.6873 40.5026 29.0958 38.7806 29.2428C38.5816 29.2611 38.3765 29.2673 38.1775 29.2673C34.634 29.2673 31.6935 26.7198 31.1402 23.3824C29.6669 25.1093 27.46 26.2115 24.9919 26.2115C22.7228 26.2115 20.6775 25.2807 19.2166 23.7927C18.3711 26.334 15.9404 28.1711 13.0807 28.1711C10.047 28.1711 7.50436 26.1135 6.80809 23.3334C6.63402 24.0192 6.57185 24.748 6.65267 25.5012C6.98216 28.6733 9.69264 31.1472 12.9315 31.2146C15.8596 31.282 18.3525 29.4204 19.2166 26.8361C20.6775 28.3242 22.7228 29.255 24.9919 29.255C27.46 29.255 29.6731 28.1527 31.1402 26.4258C31.6935 29.7633 34.634 32.3107 38.1775 32.3107C42.1189 32.3107 45.3081 29.1632 45.3081 25.2868C45.3081 25.1582 45.3081 25.0235 45.2957 24.8949C45.1838 22.8741 44.2077 21.086 42.7219 19.8735V19.8796Z" fill="#20A200"/>
<path d="M31.6187 28.0547C30.6925 28.7405 28.4296 30.4123 28.4296 30.4123L24.9855 32.9537L21.5477 30.4123C21.5477 30.4123 19.6454 29.0039 18.5637 28.2139C18.228 28.7467 17.8177 29.2182 17.3452 29.6346L18.5886 30.9083L23.3381 35.7706V48.3181H26.633V35.7706L31.3825 30.9083C31.3825 30.9083 32.0228 30.2531 32.5886 29.6714C32.1969 29.1876 31.8674 28.6426 31.6125 28.0669L31.6187 28.0547Z" fill="#955031"/>
<path d="M19.9187 30.4032L23.3566 32.9446L24.171 32.3444L21.5475 30.4094C21.5475 30.4094 19.6452 29.0009 18.5635 28.2109C18.3894 28.4865 18.1967 28.7437 17.9854 28.9886C18.9365 29.6929 19.9125 30.4155 19.9125 30.4155L19.9187 30.4032Z" fill="#80503C"/>
<path d="M31.6206 28.0547C31.3222 28.2751 30.8932 28.5936 30.4456 28.9243C30.601 29.1815 30.7751 29.4264 30.9678 29.6591C30.4021 30.2409 29.7618 30.8961 29.7618 30.8961L25.0122 35.7583V48.3058H26.641V35.7583L31.3905 30.8961C31.3905 30.8961 32.0309 30.2409 32.5966 29.6591C32.2049 29.1753 31.8754 28.6303 31.6206 28.0547Z" fill="#80503C"/>
<path d="M31.6181 28.0547C30.7291 28.7099 28.6093 30.2715 28.4414 30.4001C29.1004 30.1551 29.7345 29.8428 30.3313 29.4631C30.6172 29.9837 30.9592 30.4797 31.3508 30.939L31.3881 30.9022C31.3881 30.9022 32.0284 30.247 32.5942 29.6652C32.2025 29.1815 31.873 28.6364 31.6181 28.0608V28.0547Z" fill="#80503C"/>
<path d="M19.8019 29.5604C20.3552 29.9033 20.9396 30.185 21.5488 30.4054C21.4991 30.3687 19.6341 28.9909 18.571 28.207C18.2353 28.7398 17.825 29.2113 17.3525 29.6277L18.5959 30.9015C19.0435 30.5034 19.4538 30.0564 19.8081 29.5665L19.8019 29.5604Z" fill="#80503C"/>
<path d="M32.4902 48.721H17.4893C17.2593 48.721 17.0728 48.5373 17.0728 48.3107C17.0728 48.0841 17.2593 47.9004 17.4893 47.9004H32.4902C32.7202 47.9004 32.9067 48.0841 32.9067 48.3107C32.9067 48.5373 32.7202 48.721 32.4902 48.721Z" fill="#1E1E1E"/>
<path d="M23.3456 48.7221C23.1156 48.7221 22.9291 48.5384 22.9291 48.3118V35.9296L18.2976 31.1838C18.136 31.0184 18.1422 30.7612 18.31 30.602C18.4779 30.4428 18.739 30.4489 18.9006 30.6143L23.6502 35.4765C23.7248 35.55 23.7683 35.6541 23.7683 35.7582V48.3057C23.7683 48.5323 23.5818 48.716 23.3518 48.716L23.3456 48.7221Z" fill="#1E1E1E"/>
<path d="M26.6338 48.7218C26.4038 48.7218 26.2173 48.5381 26.2173 48.3115V35.764C26.2173 35.6599 26.2608 35.5558 26.3354 35.4823L31.085 30.6201C31.2466 30.4548 31.5077 30.4487 31.6755 30.6079C31.8434 30.7671 31.8434 31.0243 31.688 31.1896L27.0565 35.9355V48.3177C27.0565 48.5442 26.87 48.7279 26.64 48.7279L26.6338 48.7218Z" fill="#1E1E1E"/>
<path d="M24.9867 33.3561C24.8997 33.3561 24.8127 33.3255 24.7381 33.2765L21.3002 30.7352C21.1137 30.6004 21.0764 30.3433 21.2194 30.1595C21.3624 29.9758 21.6173 29.9391 21.8038 30.0799L24.993 32.4376L28.1821 30.0799C28.3686 29.9452 28.6297 29.982 28.7665 30.1595C28.9033 30.3371 28.866 30.6004 28.6857 30.7352L25.2478 33.2765C25.1732 33.3316 25.0862 33.3561 24.9992 33.3561H24.9867Z" fill="#1E1E1E"/>
<path d="M38.1794 32.727C34.7353 32.727 31.8011 30.4857 30.9059 27.2891C29.333 28.8139 27.2194 29.6712 24.9938 29.6712C22.8988 29.6712 20.9281 28.9303 19.3863 27.5708C18.3046 30.0264 15.8428 31.637 13.0826 31.637C9.29041 31.637 6.20693 28.5996 6.20693 24.8641C6.20693 23.3148 6.74156 21.8329 7.71758 20.6326C5.44227 19.4753 4 17.1666 4 14.613C4 10.8776 7.08348 7.83407 10.8819 7.83407C10.913 7.83407 10.944 7.83407 10.9689 7.83407C11.1803 5.32947 13.3188 3.35151 15.9174 3.35151C17.198 3.35151 18.4041 3.82916 19.3179 4.68035C20.2877 2.48194 22.532 1 25 1C27.468 1 29.7123 2.48194 30.6821 4.68035C31.5959 3.82916 32.802 3.35151 34.0826 3.35151C36.6812 3.35151 38.8197 5.32947 39.0311 7.83407C39.0622 7.83407 39.0933 7.83407 39.1181 7.83407C42.9103 7.83407 46 10.8714 46 14.613C46 16.689 45.0364 18.6363 43.4014 19.9162C44.8934 21.3185 45.7389 23.2475 45.7389 25.2989C45.7389 29.4018 42.3508 32.7331 38.1918 32.7331L38.1794 32.727ZM31.1421 26.0215C31.1794 26.0215 31.2167 26.0215 31.254 26.0338C31.4094 26.0766 31.5275 26.2052 31.5524 26.3644C32.087 29.5733 34.8721 31.9064 38.1794 31.9064C41.8846 31.9064 44.8934 28.9364 44.8934 25.2928C44.8934 23.3148 44.0044 21.4593 42.4627 20.1978C42.3632 20.1182 42.3073 19.9896 42.3135 19.861C42.3135 19.7324 42.3881 19.6161 42.4938 19.5426C44.1599 18.4342 45.1545 16.5849 45.1545 14.6069C45.1545 11.3246 42.4441 8.64852 39.1057 8.64852C38.9689 8.64852 38.8197 8.64852 38.6457 8.66689C38.5338 8.67302 38.4156 8.63627 38.3286 8.55667C38.2416 8.47706 38.198 8.36683 38.198 8.2566V8.23211C38.198 5.99083 36.3455 4.16596 34.0639 4.16596C32.802 4.16596 31.627 4.72322 30.8313 5.69689C30.7318 5.81324 30.5764 5.87448 30.4272 5.84386C30.2718 5.81324 30.1536 5.70301 30.1101 5.56217C29.4325 3.35151 27.325 1.81445 24.9813 1.81445C22.6377 1.81445 20.5302 3.35763 19.8526 5.56217C19.8091 5.70914 19.6847 5.81936 19.5355 5.84386C19.3863 5.87448 19.2247 5.81324 19.1314 5.69689C18.3419 4.72322 17.167 4.16596 15.8988 4.16596C13.6234 4.16596 11.7647 5.99083 11.7647 8.23823V8.2566C11.7647 8.37295 11.7149 8.47706 11.6341 8.55667C11.5471 8.63627 11.4352 8.67302 11.3171 8.66689C11.143 8.65464 11 8.64852 10.857 8.64852C7.52487 8.64852 4.80817 11.3185 4.80817 14.6069C4.80817 17.0196 6.26909 19.1813 8.53197 20.106C8.65631 20.155 8.74956 20.2652 8.78064 20.3999C8.81172 20.5347 8.76821 20.6694 8.67496 20.7674C7.60568 21.8757 7.02131 23.3332 7.02131 24.858C7.02131 28.1403 9.73179 30.8102 13.0639 30.8102C15.6812 30.8102 17.9876 29.163 18.8082 26.7135C18.8517 26.5788 18.9698 26.4747 19.1128 26.444C19.2558 26.4134 19.405 26.4563 19.5044 26.5604C20.9529 28.0362 22.8988 28.8507 24.9813 28.8507C27.238 28.8507 29.3579 27.8709 30.8126 26.1685C30.8934 26.0766 31.0115 26.0215 31.1297 26.0215H31.1421Z" fill="#1E1E1E"/>
<path d="M20.7599 20.199C20.7599 20.199 20.7475 20.199 20.7412 20.199C20.5112 20.1929 20.3309 19.9969 20.3434 19.7765C20.4304 17.5474 22.0157 15.6001 24.2102 15.0367C26.1746 14.5284 28.2697 15.2327 29.5317 16.7514C30.0912 15.9124 30.9491 15.3062 31.95 15.049C33.0254 14.7734 34.1507 14.9265 35.108 15.4776C36.0654 16.0288 36.7555 16.9228 37.0352 17.9822C37.0912 18.2027 36.9606 18.4231 36.7368 18.4844C36.513 18.5395 36.2892 18.4109 36.227 18.1904C36.0032 17.3392 35.4562 16.6289 34.6853 16.188C33.9144 15.7471 33.0192 15.6246 32.1551 15.845C31.1666 16.0961 30.3647 16.7697 29.9482 17.6944C29.886 17.8353 29.7492 17.9271 29.5938 17.9394C29.4384 17.9516 29.2892 17.872 29.2084 17.7434C28.2199 16.1451 26.243 15.3613 24.4029 15.8389C22.5627 16.3104 21.2324 17.9455 21.164 19.8132C21.1578 20.0337 20.9713 20.2113 20.7475 20.2113L20.7599 20.199Z" fill="#1E1E1E"/>
<path d="M34.2307 28.9029C34.1126 28.9029 33.9882 28.8539 33.9074 28.7498C33.7147 28.5171 33.5344 28.266 33.3852 28.0027C33.2733 27.8068 33.3417 27.5557 33.5406 27.4455C33.7396 27.3352 33.9945 27.4026 34.1064 27.5986C34.2369 27.819 34.3861 28.0333 34.5477 28.2293C34.697 28.4069 34.6659 28.6641 34.4918 28.8049C34.4172 28.8662 34.3177 28.8968 34.2307 28.8968V28.9029Z" fill="#1E1E1E"/>
<path d="M38.176 30.7315C37.2062 30.7315 36.255 30.4804 35.422 30.015C35.2231 29.9048 35.1547 29.6537 35.2666 29.4578C35.3785 29.2618 35.6334 29.1945 35.8385 29.3047C36.5472 29.7027 37.3554 29.9171 38.1822 29.9171C39.2328 29.9171 40.2213 29.5802 41.0543 28.9495C41.2346 28.8087 41.4957 28.8454 41.6387 29.023C41.7817 29.2006 41.7444 29.4578 41.5641 29.5986C40.5881 30.3457 39.4193 30.7376 38.1822 30.7376L38.176 30.7315Z" fill="#1E1E1E"/>
<path d="M21.7173 5.69523C21.6489 5.69523 21.5805 5.67686 21.5122 5.64011C21.3132 5.52989 21.2386 5.27882 21.3567 5.08286C22.0965 3.79075 23.4891 2.98242 24.9873 2.98242C25.2173 2.98242 25.4038 3.16613 25.4038 3.39271C25.4038 3.61929 25.2173 3.803 24.9873 3.803C23.7875 3.803 22.6747 4.44599 22.0841 5.4809C22.0095 5.61562 21.8665 5.6891 21.7235 5.6891L21.7173 5.69523Z" fill="white"/>
<path d="M6.43459 15.0108C6.20457 15.0108 6.01807 14.8271 6.01807 14.6005C6.01807 12.3409 7.64684 10.369 9.89728 9.91588C10.1211 9.87301 10.3449 10.0139 10.3884 10.2343C10.4319 10.4548 10.2889 10.6752 10.0651 10.7181C8.20634 11.0916 6.8511 12.7267 6.8511 14.6005C6.8511 14.8271 6.6646 15.0108 6.43459 15.0108Z" fill="white"/>
</svg>
