<svg width="40" height="52" viewBox="0 0 40 52" fill="none" xmlns="http://www.w3.org/2000/svg">
<path d="M36.3581 23.4968C36.6581 22.9502 36.8315 22.3236 36.8315 21.6504C36.8315 19.8173 35.5315 18.2842 33.8048 17.9242C34.1715 17.311 34.3781 16.5911 34.3781 15.8245C34.3781 14.0714 33.2781 12.5716 31.7381 11.9851C31.9181 11.5784 32.0181 11.1318 32.0181 10.6652C32.0181 9.0188 30.7915 7.66566 29.1981 7.45902C29.3048 7.13907 29.3648 6.79245 29.3648 6.4325C29.3648 4.64608 27.9181 3.19962 26.1315 3.19962C25.4648 3.19962 24.8515 3.39959 24.3315 3.74621C23.9715 1.8998 22.3381 0.5 20.3848 0.5C18.2581 0.5 16.5181 2.1531 16.3715 4.24614C15.8715 3.92619 15.2781 3.73955 14.6381 3.73955C12.9848 3.73955 11.6248 4.9727 11.4315 6.57248C11.1315 6.47916 10.8181 6.4325 10.4915 6.4325C8.70481 6.4325 7.25814 7.87896 7.25814 9.66538C7.25814 10.4586 7.5448 11.1785 8.01147 11.7451C6.31814 12.0784 5.03147 13.5715 5.03147 15.3646C5.03147 15.9778 5.1848 16.5577 5.45147 17.071C5.31147 17.0577 5.17147 17.051 5.03147 17.051C2.4848 17.051 0.424805 19.1107 0.424805 21.657C0.424805 23.3635 1.35814 24.8566 2.73814 25.6498C1.79814 26.583 1.21814 27.8828 1.21814 29.3093C1.21814 32.1689 3.53147 34.4819 6.39147 34.4819C6.60481 34.4819 6.81147 34.4686 7.01814 34.4419C7.64481 36.5949 9.63147 38.168 11.9848 38.168C13.3048 38.168 14.5115 37.6748 15.4248 36.8616C15.6581 37.6414 16.0781 38.348 16.6248 38.9279C16.6381 38.9413 16.6448 38.9546 16.6581 38.9613C17.5315 39.9345 18.9581 40.1144 22.1448 40.2344C23.6715 39.6812 24.8648 38.428 25.3315 36.8616C26.2448 37.6748 27.4515 38.168 28.7715 38.168C31.4848 38.168 33.7048 36.0817 33.9248 33.4287C34.0715 33.442 34.2181 33.4487 34.3715 33.4487C37.2315 33.4487 39.5448 31.1357 39.5448 28.2761C39.5448 26.1164 38.2248 24.27 36.3448 23.4968H36.3581Z" fill="#20B700"/>
<path d="M36.3579 23.4968C36.6579 22.9502 36.8313 22.3236 36.8313 21.6504C36.8313 19.8173 35.5313 18.2842 33.8046 17.9242C34.1713 17.311 34.3779 16.5911 34.3779 15.8245C34.3779 14.0714 33.2779 12.5716 31.7379 11.9851C31.9179 11.5784 32.0179 11.1318 32.0179 10.6652C32.0179 9.0188 30.7913 7.66566 29.1979 7.45902C29.3179 7.10574 29.3779 6.72579 29.3646 6.33251C29.3113 4.58609 27.8246 3.17296 26.0779 3.19962C25.4313 3.21295 24.8379 3.40626 24.3379 3.74621C23.9779 1.8998 22.3446 0.5 20.3913 0.5C18.2646 0.5 16.5246 2.1531 16.3779 4.24614C16.8779 3.91285 17.4779 3.71288 18.1179 3.69955C19.8713 3.67289 21.3513 5.08602 21.4046 6.83244C21.4179 7.22572 21.3579 7.60567 21.2379 7.95895C22.8246 8.16559 24.0579 9.51873 24.0579 11.1652C24.0579 11.6384 23.9579 12.085 23.7779 12.485C25.3246 13.0782 26.4179 14.5714 26.4179 16.3244C26.4179 17.091 26.2046 17.8109 25.8446 18.4241C27.5713 18.7841 28.8713 20.3172 28.8713 22.1503C28.8713 22.8169 28.6979 23.4501 28.3979 23.9967C30.2779 24.7699 31.5979 26.623 31.5979 28.776C31.5979 31.6356 29.2846 33.9486 26.4246 33.9486C26.1846 33.9486 25.9713 34.1153 25.9313 34.3552C25.5246 36.8016 23.3979 38.6746 20.8313 38.6746C19.5113 38.6746 18.9713 40.1211 22.1579 40.2411C23.6846 39.6878 24.8779 38.4347 25.3446 36.8682C26.2579 37.6814 27.4646 38.1747 28.7846 38.1747C31.4979 38.1747 33.7179 36.0883 33.9379 33.4354C34.0846 33.4487 34.2313 33.4554 34.3846 33.4554C37.2446 33.4554 39.5579 31.1424 39.5579 28.2828C39.5579 26.1231 38.2379 24.2767 36.3579 23.5034V23.4968Z" fill="#20A200"/>
<path d="M22.1661 18.6641H18.6328V51.5528H22.1661V18.6641Z" fill="#955031"/>
<path d="M22.1651 18.6641H20.3984V51.5528H22.1651V18.6641Z" fill="#80503C"/>
<path d="M22.1667 40.681C21.9867 40.681 21.8133 40.5676 21.7467 40.3877C21.66 40.1544 21.78 39.9011 22.0133 39.8144C23.4133 39.3078 24.5 38.1546 24.9267 36.7348C24.9733 36.5882 25.0867 36.4749 25.2333 36.4349C25.38 36.3949 25.54 36.4349 25.6533 36.5282C26.52 37.3014 27.6333 37.728 28.7933 37.728C31.2333 37.728 33.3 35.8283 33.5 33.3953C33.5067 33.2753 33.5667 33.1687 33.66 33.0887C33.7533 33.0154 33.8667 32.9754 33.9867 32.982C34.1333 32.9954 34.2667 33.002 34.3933 33.002C37 33.002 39.12 30.8823 39.12 28.276C39.12 26.3563 37.9733 24.6432 36.2 23.91C36.08 23.8633 35.9933 23.7633 35.9467 23.6433C35.9 23.5234 35.9133 23.39 35.98 23.2767C36.2533 22.7835 36.4 22.2169 36.4 21.6503C36.4 20.0705 35.28 18.684 33.7333 18.3574C33.5933 18.3308 33.4733 18.2308 33.4133 18.0975C33.3533 17.9641 33.3667 17.8108 33.44 17.6908C33.7733 17.1243 33.9533 16.4777 33.9533 15.8178C33.9533 14.3113 33.0067 12.9315 31.5933 12.3916C31.48 12.3449 31.3867 12.2583 31.34 12.145C31.2933 12.0316 31.2933 11.905 31.34 11.7917C31.5 11.4317 31.5867 11.0518 31.5867 10.6518C31.5867 9.25203 30.54 8.06553 29.16 7.88556C29.0267 7.86556 28.9133 7.79224 28.84 7.67892C28.7667 7.5656 28.7533 7.42562 28.7933 7.29897C28.8867 7.01235 28.94 6.71239 28.94 6.41243C28.94 4.87265 27.6867 3.62616 26.1533 3.62616C25.6 3.62616 25.0667 3.78614 24.6067 4.09276C24.48 4.17275 24.3267 4.19274 24.1867 4.13275C24.0467 4.07276 23.9467 3.95278 23.92 3.80613C23.5933 2.13303 22.12 0.919871 20.4133 0.919871C18.54 0.919871 16.9733 2.37967 16.8467 4.24607C16.8333 4.40605 16.74 4.54603 16.6 4.61269C16.46 4.68601 16.2933 4.67268 16.16 4.59269C15.7133 4.30606 15.2 4.15942 14.6667 4.15942C13.26 4.15942 12.0733 5.20594 11.9 6.59907C11.8867 6.73239 11.8133 6.84571 11.7 6.91903C11.5867 6.99235 11.4533 7.01235 11.3267 6.97235C11.0667 6.89237 10.7933 6.85237 10.5133 6.85237C8.97333 6.85237 7.72667 8.10553 7.72667 9.63865C7.72667 10.2919 7.96 10.9251 8.38 11.4317C8.48 11.5517 8.51333 11.7184 8.46 11.865C8.40667 12.0116 8.28 12.125 8.12667 12.1516C6.61333 12.4516 5.51333 13.7847 5.51333 15.3312C5.51333 15.8578 5.64 16.3644 5.88 16.831C5.95333 16.9776 5.94667 17.1509 5.85333 17.2842C5.76 17.4176 5.60667 17.4975 5.44 17.4775C5.30667 17.4642 5.18 17.4575 5.06 17.4575C2.76667 17.4575 0.9 19.324 0.9 21.617C0.9 23.1034 1.7 24.4832 2.99333 25.2231C3.11333 25.2898 3.19333 25.4164 3.21333 25.5497C3.23333 25.6897 3.18667 25.823 3.08667 25.923C2.19333 26.8162 1.7 28.0027 1.7 29.2692C1.7 31.8755 3.82 33.9952 6.42667 33.9952C6.61333 33.9952 6.8 33.9819 7 33.9619C7.22 33.9352 7.42 34.0685 7.48 34.2819C8.06 36.2882 9.92667 37.688 12.02 37.688C13.18 37.688 14.2933 37.2614 15.16 36.4882C15.2733 36.3882 15.4333 36.3482 15.58 36.3949C15.7267 36.4349 15.84 36.5482 15.8867 36.6948C16.1 37.4081 16.4933 38.0747 17.0133 38.6146C17.1867 38.7946 17.18 39.0745 17 39.2478C16.82 39.4211 16.54 39.4145 16.3667 39.2345C15.8933 38.7479 15.5133 38.1746 15.2467 37.5547C14.3067 38.2213 13.18 38.5746 12.0133 38.5746C9.65333 38.5746 7.53333 37.0681 6.73333 34.8751C6.62667 34.8751 6.52 34.8818 6.42 34.8818C3.32 34.8818 0.8 32.3621 0.8 29.2626C0.8 27.9427 1.25333 26.6963 2.08 25.6897C0.786667 24.7432 0 23.2234 0 21.6036C0 18.904 2.13333 16.691 4.8 16.5577C4.67333 16.1577 4.60667 15.7378 4.60667 15.3112C4.60667 13.5648 5.71333 12.025 7.30667 11.4317C6.99333 10.8785 6.82667 10.2519 6.82667 9.61198C6.82667 7.57894 8.48 5.9325 10.5067 5.9325C10.7067 5.9325 10.9 5.94583 11.1 5.97916C11.52 4.38605 12.9733 3.23955 14.66 3.23955C15.1333 3.23955 15.6067 3.33287 16.04 3.50617C16.48 1.49312 18.2867 0 20.4 0C22.3267 0 24.02 1.23983 24.6267 3.02624C25.1 2.81294 25.6133 2.69962 26.14 2.69962C28.1733 2.69962 29.82 4.35272 29.82 6.3791C29.82 6.60574 29.8 6.83904 29.7533 7.05901C31.3333 7.48562 32.4667 8.93874 32.4667 10.6118C32.4667 10.9851 32.4133 11.3451 32.3067 11.6917C33.8333 12.4582 34.8333 14.0447 34.8333 15.7711C34.8333 16.3977 34.7067 17.0176 34.4533 17.5909C36.12 18.1908 37.28 19.7906 37.28 21.6036C37.28 22.1636 37.1667 22.7168 36.9533 23.2301C38.82 24.1899 40 26.103 40 28.2294C40 31.3289 37.48 33.8486 34.38 33.8486C34.36 33.8486 34.3467 33.8486 34.3267 33.8486C33.8933 36.5282 31.5333 38.5679 28.78 38.5679C27.6133 38.5679 26.4933 38.208 25.5467 37.5481C24.94 38.9612 23.76 40.081 22.3067 40.6076C22.2533 40.6276 22.2067 40.6343 22.1533 40.6343L22.1667 40.681Z" fill="#1E1E1E"/>
<path d="M9.43885 10.1112C9.19219 10.1112 8.99219 9.91131 8.99219 9.66479C8.99219 8.83195 9.67219 8.15234 10.5055 8.15234C10.7522 8.15234 10.9522 8.35223 10.9522 8.59875C10.9522 8.84527 10.7522 9.04515 10.5055 9.04515C10.1655 9.04515 9.88552 9.32499 9.88552 9.66479C9.88552 9.91131 9.68552 10.1112 9.43885 10.1112Z" fill="white"/>
<path d="M27.4649 36.1341C27.3983 36.1341 27.3316 36.1208 27.2717 36.0875C26.9918 35.9476 26.732 35.7743 26.4988 35.5678C26.3122 35.4012 26.2989 35.1214 26.4655 34.9348C26.632 34.7483 26.9119 34.7349 27.0984 34.9015C27.2717 35.0547 27.4649 35.1813 27.6714 35.2879C27.8913 35.3945 27.9846 35.6611 27.8713 35.8876C27.7914 36.0475 27.6381 36.1341 27.4715 36.1341H27.4649Z" fill="#1E1E1E"/>
<path d="M29.285 36.4029C29.0717 36.4029 28.885 36.2496 28.845 36.0296C28.805 35.783 28.965 35.5563 29.2117 35.5163C30.0383 35.3763 30.745 34.8364 31.105 34.0765C31.2117 33.8566 31.4783 33.7566 31.6983 33.8632C31.9183 33.9699 32.0183 34.2365 31.9117 34.4565C31.425 35.483 30.4717 36.2096 29.3583 36.3962C29.3317 36.3962 29.305 36.3962 29.285 36.3962V36.4029Z" fill="#1E1E1E"/>
<path d="M18.5526 4.83367C18.5526 4.83367 18.5326 4.83367 18.5193 4.83367C18.2726 4.82034 18.086 4.60703 18.106 4.3604C18.186 3.16057 19.1926 2.2207 20.3993 2.2207C20.646 2.2207 20.846 2.42068 20.846 2.66731C20.846 2.91394 20.646 3.11391 20.3993 3.11391C19.666 3.11391 19.0526 3.68716 18.9993 4.42039C18.986 4.65369 18.786 4.83367 18.5526 4.83367Z" fill="white"/>
<path d="M2.61366 22.0965C2.36699 22.0965 2.16699 21.8966 2.16699 21.6499C2.16699 20.0568 3.46033 18.7637 5.05366 18.7637C5.30033 18.7637 5.50033 18.9636 5.50033 19.2103C5.50033 19.4569 5.30033 19.6569 5.05366 19.6569C3.95366 19.6569 3.06033 20.5501 3.06033 21.6499C3.06033 21.8966 2.86033 22.0965 2.61366 22.0965Z" fill="white"/>
<path d="M18.6315 51.9987C18.3849 51.9987 18.1851 51.7987 18.1851 51.5521V18.6634C18.1851 18.4168 18.3849 18.2168 18.6315 18.2168C18.878 18.2168 19.0779 18.4168 19.0779 18.6634V51.5521C19.0779 51.7987 18.878 51.9987 18.6315 51.9987Z" fill="#1E1E1E"/>
<path d="M22.1652 51.9999C21.9186 51.9999 21.7188 51.7999 21.7188 51.5533V26.97C21.7188 26.7234 21.9186 26.5234 22.1652 26.5234C22.4117 26.5234 22.6116 26.7234 22.6116 26.97V51.5533C22.6116 51.7999 22.4117 51.9999 22.1652 51.9999Z" fill="#1E1E1E"/>
<path d="M10.0384 24.7563C9.9251 24.7563 9.81177 24.7097 9.7251 24.6231L8.77844 23.6769C8.6051 23.5037 8.6051 23.2172 8.77844 23.044C8.95177 22.8708 9.23844 22.8708 9.41177 23.044L10.3584 23.9901C10.5318 24.1633 10.5318 24.4498 10.3584 24.6231C10.2718 24.7097 10.1584 24.7563 10.0451 24.7563H10.0384Z" fill="#1E1E1E"/>
<path d="M18.6322 33.3498C18.5189 33.3498 18.4056 33.3031 18.3189 33.2165L11.4322 26.3374C11.2589 26.1641 11.2589 25.8775 11.4322 25.7042C11.6056 25.5309 11.8922 25.5309 12.0656 25.7042L18.9456 32.5832C19.1189 32.7565 19.1189 33.0432 18.9456 33.2165C18.8589 33.3031 18.7456 33.3498 18.6322 33.3498Z" fill="#1E1E1E"/>
<path d="M22.1645 32.4889C22.0512 32.4889 21.9379 32.4422 21.8512 32.3556C21.6779 32.1823 21.6779 31.8956 21.8512 31.7223L29.3645 24.2101C29.5379 24.0368 29.8245 24.0368 29.9979 24.2101C30.1712 24.3834 30.1712 24.67 29.9979 24.8433L22.4845 32.3556C22.3979 32.4422 22.2845 32.4889 22.1712 32.4889H22.1645Z" fill="#1E1E1E"/>
<path d="M18.6318 25.5767C18.5184 25.5767 18.4051 25.5301 18.3184 25.4434L15.2784 22.4039C15.1051 22.2305 15.1051 21.9439 15.2784 21.7706C15.4518 21.5973 15.7384 21.5973 15.9118 21.7706L18.9518 24.8102C19.1251 24.9835 19.1251 25.2701 18.9518 25.4434C18.8651 25.5301 18.7518 25.5767 18.6384 25.5767H18.6318Z" fill="#1E1E1E"/>
<path d="M28.4396 52.0002H12.3529C12.1063 52.0002 11.9062 51.8003 11.9062 51.5538C11.9062 51.3073 12.1063 51.1074 12.3529 51.1074H28.4396C28.6862 51.1074 28.8863 51.3073 28.8863 51.5538C28.8863 51.8003 28.6862 52.0002 28.4396 52.0002Z" fill="#1E1E1E"/>
</svg>
