<svg width="33" height="43" viewBox="0 0 33 43" fill="none" xmlns="http://www.w3.org/2000/svg">
<path d="M16.496 0C22.2939 0 27.0047 4.70221 27.0047 10.4956V17.4828H5.99219V10.4956C5.99219 4.70221 10.6981 0 16.496 0Z" fill="#00B587"/>
<path d="M20.3867 12.4766H23.7117C28.8387 12.4766 33.0011 16.6356 33.0011 21.7587C33.0011 25.3404 30.0874 28.2517 26.5029 28.2517H20.3867V12.4766Z" fill="#00B587"/>
<path d="M9.28936 12.4766H20.3857V28.2468H6.49815C2.91364 28.2517 0 25.3404 0 21.7587C0 16.6356 4.16234 12.4766 9.28936 12.4766Z" fill="#00B587"/>
<path d="M22.1064 33.5412C24.5401 33.5412 26.5136 31.5693 26.5136 29.1374V24.582H22.2582C19.7412 24.582 17.6992 26.6224 17.6992 29.1374C17.6992 31.5693 19.6727 33.5412 22.1064 33.5412Z" fill="#00B587"/>
<path d="M10.8916 33.5412C13.3253 33.5412 15.2987 31.5693 15.2987 29.1374C15.2987 26.6224 13.2567 24.582 10.7398 24.582H6.48438V29.1374C6.48438 31.5693 8.45781 33.5412 10.8916 33.5412Z" fill="#00B587"/>
<path d="M18.5303 13.7637H14.4219V42.9996H18.5303V13.7637Z" fill="#836045"/>
<path d="M16.4776 25.479C15.3415 25.479 14.4258 24.5591 14.4258 23.4288V13.765C14.4258 12.6298 15.3464 11.7148 16.4776 11.7148C17.6087 11.7148 18.5294 12.6347 18.5294 13.765V23.4288C18.5294 24.564 17.6087 25.479 16.4776 25.479Z" fill="#836045"/>
<path d="M16.473 31.8339C16.2379 31.8339 16.0029 31.7556 15.8119 31.5893L7.1983 24.3133C6.76737 23.9464 6.71351 23.3005 7.07588 22.8699C7.44314 22.4393 8.08953 22.3855 8.52045 22.7476L17.134 30.0235C17.565 30.3905 17.6188 31.0364 17.2565 31.467C17.0557 31.7067 16.7619 31.829 16.473 31.829V31.8339Z" fill="#836045"/>
<path d="M16.6704 37.1045C16.406 37.1045 16.1465 37.0066 15.9457 36.806C15.5441 36.4048 15.5441 35.754 15.9457 35.3576L21.5967 29.7111C21.9982 29.3098 22.6495 29.3098 23.0461 29.7111C23.4477 30.1123 23.4477 30.7631 23.0461 31.1594L17.3952 36.806C17.1944 37.0066 16.93 37.1045 16.6704 37.1045Z" fill="#836045"/>
<path d="M16.6704 23.4873C16.406 23.4873 16.1465 23.3845 15.9457 23.1888C15.5441 22.7876 15.5441 22.1368 15.9457 21.7405L21.5967 16.0939C21.9982 15.6927 22.6495 15.6927 23.0461 16.0939C23.4477 16.4951 23.4477 17.1459 23.0461 17.5422L17.3952 23.1888C17.1944 23.3894 16.93 23.4873 16.6704 23.4873Z" fill="#836045"/>
<path d="M20.3865 9.3557C20.0487 9.3557 19.7695 9.08169 19.7695 8.73918V6.59113C19.7695 6.25351 20.0438 5.97461 20.3865 5.97461C20.7293 5.97461 21.0035 6.24862 21.0035 6.59113V8.73918C21.0035 9.07679 20.7293 9.3557 20.3865 9.3557Z" fill="#00B587"/>
<path d="M12.1678 9.64418C11.8299 9.64418 11.5508 9.37017 11.5508 9.02765V6.22394C11.5508 5.88633 11.825 5.60742 12.1678 5.60742C12.5106 5.60742 12.7848 5.88143 12.7848 6.22394V9.02765C12.7848 9.36527 12.5106 9.64418 12.1678 9.64418Z" fill="#00B587"/>
<path d="M6.75372 20.2515C6.41584 20.2515 6.13672 19.9775 6.13672 19.635V17.8196C6.13672 17.482 6.41094 17.2031 6.75372 17.2031C7.09651 17.2031 7.37073 17.4771 7.37073 17.8196V19.635C7.37073 19.9726 7.09651 20.2515 6.75372 20.2515Z" fill="#00B587"/>
<path d="M27.0076 22.4355C26.6697 22.4355 26.3906 22.1615 26.3906 21.819V19.3236C26.3906 18.9859 26.6649 18.707 27.0076 18.707C27.3504 18.707 27.6246 18.981 27.6246 19.3236V21.819C27.6246 22.1566 27.3504 22.4355 27.0076 22.4355Z" fill="#00B587"/>
</svg>
