<svg width="55" height="55" viewBox="0 0 55 55" fill="none" xmlns="http://www.w3.org/2000/svg">
<path d="M27.2051 24.5264L27.499 24.7402L27.793 24.5264L34.7158 19.4854L29.625 26.3213L29.4033 26.6201L29.625 26.9189L34.7148 33.7559L27.793 28.7148L27.499 28.501L27.2051 28.7148L20.2822 33.7559L25.373 26.9189L25.5957 26.6201L25.373 26.3213L20.2812 19.4854L27.2051 24.5264Z" fill="white" stroke="#00B536"/>
<path d="M27.2021 24.6416L27.4971 24.8555L27.791 24.6416L34.2734 19.9219L29.5068 26.3232L29.2842 26.6211L29.5068 26.9199L34.2734 33.3223L27.791 28.6016L27.4971 28.3867L27.2021 28.6016L20.7197 33.3223L25.4863 26.9199L25.709 26.6211L25.4863 26.3232L20.7197 19.9219L27.2021 24.6416Z" fill="black" stroke="#00B536"/>
<path d="M28 27.8066L28.3779 28.1797L30.5283 30.3066L28 28.4658L28 27.8066Z" fill="black" stroke="#00B536"/>
<path d="M29.3838 27.1094L31.2441 29.6084L29.0811 27.4687L28.7168 27.1094L29.3838 27.1094Z" fill="white" stroke="#00B536"/>
<path d="M26.6201 28.1797L26.998 27.8066L26.998 28.4648L24.4707 30.3047L26.6201 28.1797Z" fill="white" stroke="#00B536"/>
<path d="M25.6133 27.1094L26.2803 27.1094L25.917 27.4687L23.7529 29.6084L25.6133 27.1094Z" fill="black" stroke="#00B536"/>
<path d="M26.998 24.7539L26.998 25.4121L26.6201 25.0381L24.4736 22.917L26.998 24.7539Z" fill="black" stroke="#00B536"/>
<path d="M25.917 25.749L26.2812 26.1094L25.6143 26.1094L23.7529 23.6104L25.917 25.749Z" fill="white" stroke="#00B536"/>
<path d="M28 24.7529L30.5254 22.915L28.3779 25.0381L28 25.4121L28 24.7529Z" fill="white" stroke="#00B536"/>
<path d="M29.0811 25.749L31.2441 23.6104L29.3828 26.1094L28.7158 26.1094L29.0811 25.749Z" fill="black" stroke="#00B536"/>
<path d="M45.406 26.6231C45.406 16.8449 37.3891 8.9181 27.4999 8.9181C17.6106 8.9181 9.59375 16.8449 9.59375 26.6231C9.59375 36.4013 17.6106 44.3281 27.4999 44.3281C37.3891 44.3281 45.406 36.4013 45.406 26.6231Z" stroke="#00B536" stroke-width="2" stroke-miterlimit="10"/>
<path d="M24.5596 24.1387L24.9238 24.084L24.9795 23.7207L27.4971 7.32422L30.0156 23.7207L30.0713 24.084L30.4355 24.1387L46.9766 26.623L30.4355 29.1064L30.0713 29.1611L30.0156 29.5254L27.4971 45.9219L24.9795 29.5254L24.9238 29.1611L24.5596 29.1064L8.0166 26.623L24.5596 24.1387Z" fill="white" stroke="#00B536"/>
<path d="M24.8066 24.3828L25.1709 24.3281L25.2266 23.9648L27.4961 9.18457L29.7666 23.9648L29.8223 24.3281L30.1865 24.3828L45.0967 26.6221L30.1865 28.8604L29.8223 28.915L29.7666 29.2793L27.4961 44.0596L25.2266 29.2793L25.1709 28.915L24.8066 28.8604L9.89551 26.6221L24.8066 24.3828Z" fill="black" stroke="#00B536"/>
<path d="M27.0127 27.8047L27.0127 39.1377L25.501 29.2998L27.0127 27.8047Z" fill="white" stroke="#00B536"/>
<path d="M28.0117 27.8047L29.5225 29.2998L28.0117 39.1377L28.0117 27.8047Z" fill="white" stroke="#00B536"/>
<path d="M26.2939 27.1064L24.7939 28.5898L14.916 27.1064L26.2939 27.1064Z" fill="white" stroke="#00B536"/>
<path d="M24.7949 24.626L26.2949 26.1094L14.9121 26.1094L24.7949 24.626Z" fill="white" stroke="#00B536"/>
<path d="M28.0117 14.0781L29.5225 23.918L28.0117 25.4121L28.0117 14.0781Z" fill="white" stroke="#00B536"/>
<path d="M27.0127 14.0781L27.0127 25.4121L25.501 23.918L27.0127 14.0781Z" fill="white" stroke="#00B536"/>
<path d="M30.2275 24.626L40.1104 26.1094L28.7275 26.1094L30.2275 24.626Z" fill="white" stroke="#00B536"/>
<path d="M40.1064 27.1064L30.2285 28.5898L28.7285 27.1064L40.1064 27.1064Z" fill="white" stroke="#00B536"/>
<mask id="path-22-inside-1_599_829" fill="white">
<path d="M4.58814 28.3086L0 28.3086L-2.79505e-08 27.6692L2.32133 26.2152C2.85899 25.8788 3.3425 25.6163 3.81211 25.4007L3.80534 25.3873C3.19285 25.4412 2.63452 25.4546 1.91977 25.4546L-1.24753e-07 25.4546L-1.48884e-07 24.9025L4.58814 24.9025L4.58814 25.4947L2.26004 26.935C1.74946 27.2513 1.22533 27.5543 0.728288 27.783L0.735058 27.803C1.3137 27.7696 1.8649 27.7558 2.6274 27.7558L4.58779 27.7558L4.58779 28.3079L4.58814 28.3086Z"/>
</mask>
<path d="M4.58814 28.3086L0 28.3086L-2.79505e-08 27.6692L2.32133 26.2152C2.85899 25.8788 3.3425 25.6163 3.81211 25.4007L3.80534 25.3873C3.19285 25.4412 2.63452 25.4546 1.91977 25.4546L-1.24753e-07 25.4546L-1.48884e-07 24.9025L4.58814 24.9025L4.58814 25.4947L2.26004 26.935C1.74946 27.2513 1.22533 27.5543 0.728288 27.783L0.735058 27.803C1.3137 27.7696 1.8649 27.7558 2.6274 27.7558L4.58779 27.7558L4.58779 28.3079L4.58814 28.3086Z" fill="black"/>
<path d="M4.58814 28.3086L4.58814 29.3086L6.21441 29.3086L5.48053 27.8573L4.58814 28.3086ZM0 28.3086L-1 28.3086L-1 29.3086L4.37114e-08 29.3086L0 28.3086ZM-2.79505e-08 27.6692L-0.530819 26.8217L-1 27.1155L-1 27.6692L-2.79505e-08 27.6692ZM2.32133 26.2152L1.79087 25.3675L1.79051 25.3677L2.32133 26.2152ZM3.81211 25.4007L4.22936 26.3095L5.17312 25.8762L4.70451 24.9494L3.81211 25.4007ZM3.80534 25.3873L4.69774 24.936L4.39219 24.3318L3.71767 24.3911L3.80534 25.3873ZM-1.24753e-07 25.4546L-1 25.4546L-1 26.4546L-8.10414e-08 26.4546L-1.24753e-07 25.4546ZM-1.48884e-07 24.9025L-1.92595e-07 23.9025L-1 23.9025L-1 24.9025L-1.48884e-07 24.9025ZM4.58814 24.9025L5.58814 24.9025L5.58814 23.9025L4.58814 23.9025L4.58814 24.9025ZM4.58814 25.4947L5.11424 26.3452L5.58814 26.052L5.58814 25.4947L4.58814 25.4947ZM2.26004 26.935L1.73395 26.0845L1.73334 26.0849L2.26004 26.935ZM0.728288 27.783L0.310377 26.8745L-0.50658 27.2503L-0.219315 28.1024L0.728288 27.783ZM0.735058 27.803L-0.212546 28.1225L0.0311654 28.8454L0.792802 28.8014L0.735058 27.803ZM4.58779 27.7558L5.58779 27.7558L5.58779 26.7558L4.58779 26.7558L4.58779 27.7558ZM4.58779 28.3079L3.58779 28.3079L3.58779 28.5464L3.6954 28.7592L4.58779 28.3079ZM4.58814 28.3086L4.58814 27.3086L-4.37114e-08 27.3086L0 28.3086L4.37114e-08 29.3086L4.58814 29.3086L4.58814 28.3086ZM0 28.3086L1 28.3086L1 27.6692L-2.79505e-08 27.6692L-1 27.6692L-1 28.3086L0 28.3086ZM-2.79505e-08 27.6692L0.530819 28.5166L2.85215 27.0627L2.32133 26.2152L1.79051 25.3677L-0.530819 26.8217L-2.79505e-08 27.6692ZM2.32133 26.2152L2.85179 27.0629C3.35847 26.7459 3.80415 26.5047 4.22936 26.3095L3.81211 25.4007L3.39486 24.4919C2.88085 24.7279 2.35951 25.0117 1.79087 25.3675L2.32133 26.2152ZM3.81211 25.4007L4.70451 24.9494L4.69774 24.936L3.80534 25.3873L2.91294 25.8385L2.91971 25.8519L3.81211 25.4007ZM3.80534 25.3873L3.71767 24.3911C3.14702 24.4414 2.62159 24.4546 1.91977 24.4546L1.91977 25.4546L1.91977 26.4546C2.64745 26.4546 3.23868 26.441 3.89301 26.3834L3.80534 25.3873ZM1.91977 25.4546L1.91977 24.4546L-1.68464e-07 24.4546L-1.24753e-07 25.4546L-8.10414e-08 26.4546L1.91977 26.4546L1.91977 25.4546ZM-1.24753e-07 25.4546L1 25.4546L1 24.9025L-1.48884e-07 24.9025L-1 24.9025L-1 25.4546L-1.24753e-07 25.4546ZM-1.48884e-07 24.9025L-1.05173e-07 25.9025L4.58814 25.9025L4.58814 24.9025L4.58814 23.9025L-1.92595e-07 23.9025L-1.48884e-07 24.9025ZM4.58814 24.9025L3.58814 24.9025L3.58814 25.4947L4.58814 25.4947L5.58814 25.4947L5.58814 24.9025L4.58814 24.9025ZM4.58814 25.4947L4.06205 24.6443L1.73395 26.0845L2.26004 26.935L2.78614 27.7854L5.11424 26.3452L4.58814 25.4947ZM2.26004 26.935L1.73334 26.0849C1.23519 26.3936 0.751809 26.6714 0.310377 26.8745L0.728288 27.783L1.1462 28.6914C1.69886 28.4372 2.26373 28.1091 2.78675 27.785L2.26004 26.935ZM0.728288 27.783L-0.219315 28.1024L-0.212546 28.1225L0.735058 27.803L1.68266 27.4836L1.67589 27.4635L0.728288 27.783ZM0.735058 27.803L0.792802 28.8014C1.34731 28.7693 1.87853 28.7558 2.6274 28.7558L2.6274 27.7558L2.6274 26.7558C1.85127 26.7558 1.28008 26.7698 0.677314 26.8047L0.735058 27.803ZM2.6274 27.7558L2.6274 28.7558L4.58779 28.7558L4.58779 27.7558L4.58779 26.7558L2.6274 26.7558L2.6274 27.7558ZM4.58779 27.7558L3.58779 27.7558L3.58779 28.3079L4.58779 28.3079L5.58779 28.3079L5.58779 27.7558L4.58779 27.7558ZM4.58779 28.3079L3.6954 28.7592L3.69575 28.7599L4.58814 28.3086L5.48053 27.8573L5.48018 27.8566L4.58779 28.3079Z" fill="#00B536" mask="url(#path-22-inside-1_599_829)"/>
<mask id="path-24-inside-2_599_829" fill="white">
<path d="M54.2106 27.8368C54.3738 27.5743 54.5103 27.1906 54.5103 26.7869C54.5103 26.188 54.1903 25.8378 53.7275 25.8378C53.2985 25.8378 53.0537 26.0802 52.8153 26.6925C52.5499 27.433 52.1619 27.8907 51.5152 27.8907C50.8004 27.8907 50.2695 27.3051 50.2695 26.4233C50.2695 25.959 50.3786 25.6222 50.494 25.4203L50.9772 25.5817C50.8956 25.7296 50.7595 26.0326 50.7595 26.443C50.7595 27.0624 51.1339 27.2977 51.4471 27.2977C51.8761 27.2977 52.087 27.0219 52.3322 26.3958C52.6318 25.6285 53.006 25.2382 53.6801 25.2382C54.3881 25.2382 55.0006 25.7564 55.0006 26.8267C55.0006 27.2643 54.8712 27.742 54.708 27.9844L54.211 27.8364L54.2106 27.8368Z"/>
</mask>
<path d="M54.2106 27.8368C54.3738 27.5743 54.5103 27.1906 54.5103 26.7869C54.5103 26.188 54.1903 25.8378 53.7275 25.8378C53.2985 25.8378 53.0537 26.0802 52.8153 26.6925C52.5499 27.433 52.1619 27.8907 51.5152 27.8907C50.8004 27.8907 50.2695 27.3051 50.2695 26.4233C50.2695 25.959 50.3786 25.6222 50.494 25.4203L50.9772 25.5817C50.8956 25.7296 50.7595 26.0326 50.7595 26.443C50.7595 27.0624 51.1339 27.2977 51.4471 27.2977C51.8761 27.2977 52.087 27.0219 52.3322 26.3958C52.6318 25.6285 53.006 25.2382 53.6801 25.2382C54.3881 25.2382 55.0006 25.7564 55.0006 26.8267C55.0006 27.2643 54.8712 27.742 54.708 27.9844L54.211 27.8364L54.2106 27.8368Z" fill="black"/>
<path d="M54.2106 27.8368L53.3614 27.3088L54.9137 28.5479L54.2106 27.8368ZM52.8153 26.6925L51.8835 26.3297L51.8786 26.3423L51.874 26.3551L52.8153 26.6925ZM50.494 25.4203L50.8108 24.4718L50.033 24.2121L49.6259 24.9239L50.494 25.4203ZM50.9772 25.5817L51.8528 26.0645L52.4325 25.0134L51.2939 24.6332L50.9772 25.5817ZM52.3322 26.3958L53.2633 26.7605L53.2637 26.7596L52.3322 26.3958ZM54.708 27.9844L54.4227 28.9428L55.1271 29.1525L55.5375 28.5429L54.708 27.9844ZM54.211 27.8364L54.4963 26.878L53.9289 26.7091L53.5079 27.1253L54.211 27.8364ZM54.2106 27.8368L55.0599 28.3648C55.3086 27.9647 55.5103 27.4004 55.5103 26.7869L54.5103 26.7869L53.5103 26.7869C53.5103 26.9809 53.439 27.1839 53.3614 27.3088L54.2106 27.8368ZM54.5103 26.7869L55.5103 26.7869C55.5103 26.3165 55.3841 25.8285 55.0549 25.4407C54.7121 25.0369 54.2287 24.8378 53.7275 24.8378L53.7275 25.8378L53.7275 26.8378C53.7159 26.8378 53.683 26.8352 53.6395 26.8159C53.5949 26.7961 53.5569 26.7665 53.53 26.7348C53.4765 26.6718 53.5103 26.6583 53.5103 26.7869L54.5103 26.7869ZM53.7275 25.8378L53.7275 24.8378C53.2925 24.8378 52.8665 24.9736 52.5118 25.3099C52.2047 25.6012 52.0189 25.9819 51.8835 26.3297L52.8153 26.6925L53.7472 27.0553C53.795 26.9325 53.8338 26.8529 53.8629 26.8026C53.8919 26.7528 53.9023 26.7476 53.888 26.7611C53.8692 26.779 53.8334 26.8049 53.7855 26.8227C53.7407 26.8393 53.7151 26.8378 53.7275 26.8378L53.7275 25.8378ZM52.8153 26.6925L51.874 26.3551C51.7657 26.6571 51.6666 26.7979 51.608 26.8554C51.5842 26.8787 51.5723 26.8832 51.571 26.8838C51.5702 26.8841 51.5559 26.8907 51.5152 26.8907L51.5152 27.8907L51.5152 28.8907C52.1075 28.8907 52.6156 28.6685 53.0085 28.2832C53.3719 27.9267 53.5995 27.4684 53.7567 27.0299L52.8153 26.6925ZM51.5152 27.8907L51.5152 26.8907C51.4479 26.8907 51.4125 26.8703 51.3805 26.8333C51.3411 26.7878 51.2695 26.6658 51.2695 26.4233L50.2695 26.4233L49.2695 26.4233C49.2695 27.0627 49.4634 27.6743 49.8682 28.1421C50.2803 28.6183 50.8677 28.8907 51.5152 28.8907L51.5152 27.8907ZM50.2695 26.4233L51.2695 26.4233C51.2695 26.1107 51.3436 25.9491 51.3621 25.9167L50.494 25.4203L49.6259 24.9239C49.4136 25.2953 49.2695 25.8073 49.2695 26.4233L50.2695 26.4233ZM50.494 25.4203L50.1772 26.3688L50.6604 26.5302L50.9772 25.5817L51.2939 24.6332L50.8108 24.4718L50.494 25.4203ZM50.9772 25.5817L50.1015 25.0988C49.9693 25.3384 49.7595 25.8095 49.7595 26.443L50.7595 26.443L51.7595 26.443C51.7595 26.2558 51.8218 26.1208 51.8528 26.0645L50.9772 25.5817ZM50.7595 26.443L49.7595 26.443C49.7595 26.961 49.9213 27.4431 50.2696 27.8005C50.6082 28.148 51.0471 28.2977 51.4471 28.2977L51.4471 27.2977L51.4471 26.2977C51.5339 26.2977 51.629 26.3298 51.702 26.4048C51.7382 26.4418 51.7554 26.4764 51.7618 26.4938C51.7676 26.5096 51.7595 26.4972 51.7595 26.443L50.7595 26.443ZM51.4471 27.2977L51.4471 28.2977C51.926 28.2977 52.3556 28.1229 52.6907 27.7628C52.9661 27.4668 53.1359 27.086 53.2633 26.7605L52.3322 26.3958L51.401 26.0312C51.3471 26.169 51.3042 26.2635 51.2691 26.3291C51.2338 26.3951 51.218 26.4095 51.2265 26.4003C51.2402 26.3856 51.2787 26.3509 51.341 26.3244C51.3697 26.3122 51.3956 26.3052 51.4161 26.3014C51.4359 26.2977 51.4472 26.2977 51.4471 26.2977L51.4471 27.2977ZM52.3322 26.3958L53.2637 26.7596C53.3902 26.4356 53.4883 26.3143 53.5342 26.2729C53.5507 26.2581 53.5595 26.2544 53.5668 26.2517C53.5765 26.2482 53.609 26.2382 53.6801 26.2382L53.6801 25.2382L53.6801 24.2382C53.1249 24.2382 52.6163 24.4088 52.1972 24.7856C51.8126 25.1313 51.5738 25.5887 51.4007 26.0321L52.3322 26.3958ZM53.6801 25.2382L53.6801 26.2382C53.7836 26.2382 53.8359 26.2711 53.869 26.3071C53.9047 26.3461 54.0006 26.4819 54.0006 26.8267L55.0006 26.8267L56.0006 26.8267C56.0006 26.1012 55.7901 25.4427 55.3427 24.955C54.8924 24.4643 54.2845 24.2382 53.6801 24.2382L53.6801 25.2382ZM55.0006 26.8267L54.0006 26.8267C54.0006 26.953 53.981 27.0978 53.9472 27.2289C53.9102 27.3724 53.8735 27.4334 53.8785 27.4259L54.708 27.9844L55.5375 28.5429C55.8435 28.0884 56.0006 27.3978 56.0006 26.8267L55.0006 26.8267ZM54.708 27.9844L54.9933 27.0259L54.4963 26.878L54.211 27.8364L53.9257 28.7948L54.4227 28.9428L54.708 27.9844ZM54.211 27.8364L53.5079 27.1253L53.5075 27.1257L54.2106 27.8368L54.9137 28.5479L54.9141 28.5475L54.211 27.8364Z" fill="#00B536" mask="url(#path-24-inside-2_599_829)"/>
<mask id="path-26-inside-3_599_829" fill="white">
<path d="M27.6403 1.70197L27.6403 3.46525L29.2942 3.46525L29.2942 1.49975L29.7913 1.49975L29.7913 4.05078L25.2031 4.05078L25.2031 1.60086L25.7002 1.60086L25.7002 3.46525L27.15 3.46525L27.15 1.70197L27.6403 1.70197Z"/>
</mask>
<path d="M27.6403 1.70197L27.6403 3.46525L29.2942 3.46525L29.2942 1.49975L29.7913 1.49975L29.7913 4.05078L25.2031 4.05078L25.2031 1.60086L25.7002 1.60086L25.7002 3.46525L27.15 3.46525L27.15 1.70197L27.6403 1.70197Z" fill="black"/>
<path d="M27.6403 1.70197L28.6403 1.70197L28.6403 0.701972L27.6403 0.701972L27.6403 1.70197ZM27.6403 3.46525L26.6403 3.46525L26.6403 4.46525L27.6403 4.46525L27.6403 3.46525ZM29.2942 3.46525L29.2942 4.46525L30.2942 4.46525L30.2942 3.46525L29.2942 3.46525ZM29.2942 1.49975L29.2942 0.49975L28.2942 0.49975L28.2942 1.49975L29.2942 1.49975ZM29.7913 1.49975L30.7913 1.49975L30.7913 0.49975L29.7913 0.49975L29.7913 1.49975ZM29.7913 4.05078L29.7913 5.05078L30.7913 5.05078L30.7913 4.05078L29.7913 4.05078ZM25.2031 4.05078L24.2031 4.05078L24.2031 5.05078L25.2031 5.05078L25.2031 4.05078ZM25.2031 1.60086L25.2031 0.600861L24.2031 0.600861L24.2031 1.60086L25.2031 1.60086ZM25.7002 1.60086L26.7002 1.60086L26.7002 0.600861L25.7002 0.600861L25.7002 1.60086ZM25.7002 3.46525L24.7002 3.46525L24.7002 4.46525L25.7002 4.46525L25.7002 3.46525ZM27.15 3.46525L27.15 4.46525L28.15 4.46525L28.15 3.46525L27.15 3.46525ZM27.15 1.70197L27.15 0.701972L26.15 0.701972L26.15 1.70197L27.15 1.70197ZM27.6403 1.70197L26.6403 1.70197L26.6403 3.46525L27.6403 3.46525L28.6403 3.46525L28.6403 1.70197L27.6403 1.70197ZM27.6403 3.46525L27.6403 4.46525L29.2942 4.46525L29.2942 3.46525L29.2942 2.46525L27.6403 2.46525L27.6403 3.46525ZM29.2942 3.46525L30.2942 3.46525L30.2942 1.49975L29.2942 1.49975L28.2942 1.49975L28.2942 3.46525L29.2942 3.46525ZM29.2942 1.49975L29.2942 2.49975L29.7913 2.49975L29.7913 1.49975L29.7913 0.49975L29.2942 0.49975L29.2942 1.49975ZM29.7913 1.49975L28.7913 1.49975L28.7913 4.05078L29.7913 4.05078L30.7913 4.05078L30.7913 1.49975L29.7913 1.49975ZM29.7913 4.05078L29.7913 3.05078L25.2031 3.05078L25.2031 4.05078L25.2031 5.05078L29.7913 5.05078L29.7913 4.05078ZM25.2031 4.05078L26.2031 4.05078L26.2031 1.60086L25.2031 1.60086L24.2031 1.60086L24.2031 4.05078L25.2031 4.05078ZM25.2031 1.60086L25.2031 2.60086L25.7002 2.60086L25.7002 1.60086L25.7002 0.600861L25.2031 0.600861L25.2031 1.60086ZM25.7002 1.60086L24.7002 1.60086L24.7002 3.46525L25.7002 3.46525L26.7002 3.46525L26.7002 1.60086L25.7002 1.60086ZM25.7002 3.46525L25.7002 4.46525L27.15 4.46525L27.15 3.46525L27.15 2.46525L25.7002 2.46525L25.7002 3.46525ZM27.15 3.46525L28.15 3.46525L28.15 1.70197L27.15 1.70197L26.15 1.70197L26.15 3.46525L27.15 3.46525ZM27.15 1.70197L27.15 2.70197L27.6403 2.70197L27.6403 1.70197L27.6403 0.701972L27.15 0.701972L27.15 1.70197Z" fill="#00B536" mask="url(#path-26-inside-3_599_829)"/>
<mask id="path-28-inside-4_599_829" fill="white">
<path d="M29.7913 52.349L25.2031 53.5L25.2031 52.8807L27.5245 52.3423C28.0963 52.2078 28.6682 52.0866 29.1104 52.0059L29.1104 51.9925C28.6543 51.9185 28.1099 51.7772 27.5177 51.6222L25.2031 51.0166L25.2031 50.404L27.5312 49.8519C28.0757 49.724 28.6205 49.6028 29.1036 49.5355L29.1036 49.5221C28.5998 49.4277 28.0892 49.3002 27.5177 49.1586L25.2031 48.5596L25.2031 47.9607L29.7913 49.2463L29.7913 49.8589L27.4019 50.4311C26.8165 50.5724 26.3672 50.6668 25.9043 50.7274L25.9043 50.7408C26.3604 50.8214 26.8097 50.9225 27.4019 51.0906L29.7913 51.7367L29.7913 52.3494L29.7913 52.349Z"/>
</mask>
<path d="M29.7913 52.349L25.2031 53.5L25.2031 52.8807L27.5245 52.3423C28.0963 52.2078 28.6682 52.0866 29.1104 52.0059L29.1104 51.9925C28.6543 51.9185 28.1099 51.7772 27.5177 51.6222L25.2031 51.0166L25.2031 50.404L27.5312 49.8519C28.0757 49.724 28.6205 49.6028 29.1036 49.5355L29.1036 49.5221C28.5998 49.4277 28.0892 49.3002 27.5177 49.1586L25.2031 48.5596L25.2031 47.9607L29.7913 49.2463L29.7913 49.8589L27.4019 50.4311C26.8165 50.5724 26.3672 50.6668 25.9043 50.7274L25.9043 50.7408C26.3604 50.8214 26.8097 50.9225 27.4019 51.0906L29.7913 51.7367L29.7913 52.3494L29.7913 52.349Z" fill="black"/>
<path d="M29.7913 52.349L30.7913 52.349L30.7913 51.0672L29.5479 51.3791L29.7913 52.349ZM25.2031 53.5L24.2031 53.5L24.2031 54.7818L25.4464 54.4699L25.2031 53.5ZM25.2031 52.8807L24.9772 51.9065L24.2031 52.086L24.2031 52.8807L25.2031 52.8807ZM27.5245 52.3423L27.7504 53.3165L27.7535 53.3157L27.5245 52.3423ZM29.1104 52.0059L29.2899 52.9896L30.1104 52.8399L30.1104 52.0059L29.1104 52.0059ZM29.1104 51.9925L30.1104 51.9925L30.1104 51.1416L29.2705 51.0054L29.1104 51.9925ZM27.5177 51.6222L27.7709 50.6548L27.7708 50.6548L27.5177 51.6222ZM25.2031 51.0166L24.2031 51.0166L24.2031 51.7886L24.95 51.984L25.2031 51.0166ZM25.2031 50.404L24.9724 49.4309L24.2031 49.6134L24.2031 50.404L25.2031 50.404ZM27.5312 49.8519L27.3026 48.8784L27.3005 48.8789L27.5312 49.8519ZM29.1036 49.5355L29.2415 50.526L30.1036 50.4059L30.1036 49.5355L29.1036 49.5355ZM29.1036 49.5221L30.1036 49.5221L30.1036 48.6921L29.2878 48.5393L29.1036 49.5221ZM27.5177 49.1586L27.2672 50.1267L27.2772 50.1292L27.5177 49.1586ZM25.2031 48.5596L24.2031 48.5596L24.2031 49.3338L24.9526 49.5278L25.2031 48.5596ZM25.2031 47.9607L25.4729 46.9978L24.2031 46.642L24.2031 47.9607L25.2031 47.9607ZM29.7913 49.2463L30.7913 49.2463L30.7913 48.488L30.0611 48.2834L29.7913 49.2463ZM29.7913 49.8589L30.0241 50.8315L30.7913 50.6478L30.7913 49.8589L29.7913 49.8589ZM27.4019 50.4311L27.169 49.4586L27.1673 49.459L27.4019 50.4311ZM25.9043 50.7274L25.7745 49.7358L24.9043 49.8498L24.9043 50.7274L25.9043 50.7274ZM25.9043 50.7408L24.9043 50.7408L24.9043 51.5794L25.7301 51.7255L25.9043 50.7408ZM27.4019 51.0906L27.1289 52.0527L27.1408 52.0559L27.4019 51.0906ZM29.7913 51.7367L30.7913 51.7367L30.7913 50.9712L30.0523 50.7714L29.7913 51.7367ZM29.7913 52.349L29.5479 51.3791L24.9598 52.5301L25.2031 53.5L25.4464 54.4699L30.0346 53.319L29.7913 52.349ZM25.2031 53.5L26.2031 53.5L26.2031 52.8807L25.2031 52.8807L24.2031 52.8807L24.2031 53.5L25.2031 53.5ZM25.2031 52.8807L25.429 53.8548L27.7504 53.3165L27.5245 52.3423L27.2985 51.3682L24.9772 51.9065L25.2031 52.8807ZM27.5245 52.3423L27.7535 53.3157C28.3134 53.184 28.8682 53.0666 29.2899 52.9896L29.1104 52.0059L28.9309 51.0221C28.4682 51.1065 27.8793 51.2315 27.2954 51.3689L27.5245 52.3423ZM29.1104 52.0059L30.1104 52.0059L30.1104 51.9925L29.1104 51.9925L28.1104 51.9925L28.1104 52.0059L29.1104 52.0059ZM29.1104 51.9925L29.2705 51.0054C28.871 50.9406 28.3762 50.8133 27.7709 50.6548L27.5177 51.6222L27.2644 52.5896C27.8436 52.7412 28.4376 52.8964 28.9502 52.9796L29.1104 51.9925ZM27.5177 51.6222L27.7708 50.6548L25.4563 50.0492L25.2031 51.0166L24.95 51.984L27.2646 52.5897L27.5177 51.6222ZM25.2031 51.0166L26.2031 51.0166L26.2031 50.404L25.2031 50.404L24.2031 50.404L24.2031 51.0166L25.2031 51.0166ZM25.2031 50.404L25.4339 51.377L27.762 50.8249L27.5312 49.8519L27.3005 48.8789L24.9724 49.4309L25.2031 50.404ZM27.5312 49.8519L27.7599 50.8254C28.3046 50.6975 28.809 50.5862 29.2415 50.526L29.1036 49.5355L28.9657 48.5451C28.4319 48.6194 27.8467 48.7506 27.3026 48.8784L27.5312 49.8519ZM29.1036 49.5355L30.1036 49.5355L30.1036 49.5221L29.1036 49.5221L28.1036 49.5221L28.1036 49.5355L29.1036 49.5355ZM29.1036 49.5221L29.2878 48.5393C28.818 48.4512 28.3376 48.3315 27.7582 48.1879L27.5177 49.1586L27.2772 50.1292C27.8408 50.2689 28.3815 50.4042 28.9194 50.505L29.1036 49.5221ZM27.5177 49.1586L27.7682 48.1904L25.4536 47.5915L25.2031 48.5596L24.9526 49.5278L27.2672 50.1267L27.5177 49.1586ZM25.2031 48.5596L26.2031 48.5596L26.2031 47.9607L25.2031 47.9607L24.2031 47.9607L24.2031 48.5596L25.2031 48.5596ZM25.2031 47.9607L24.9333 48.9236L29.5215 50.2092L29.7913 49.2463L30.0611 48.2834L25.4729 46.9978L25.2031 47.9607ZM29.7913 49.2463L28.7913 49.2463L28.7913 49.8589L29.7913 49.8589L30.7913 49.8589L30.7913 49.2463L29.7913 49.2463ZM29.7913 49.8589L29.5584 48.8864L27.169 49.4586L27.4019 50.4311L27.6348 51.4036L30.0241 50.8315L29.7913 49.8589ZM27.4019 50.4311L27.1673 49.459C26.595 49.5971 26.1855 49.682 25.7745 49.7358L25.9043 50.7274L26.0341 51.7189C26.5489 51.6515 27.038 51.5476 27.6365 51.4032L27.4019 50.4311ZM25.9043 50.7274L24.9043 50.7274L24.9043 50.7408L25.9043 50.7408L26.9043 50.7408L26.9043 50.7274L25.9043 50.7274ZM25.9043 50.7408L25.7301 51.7255C26.1506 51.7998 26.5669 51.8931 27.1289 52.0526L27.4019 51.0906L27.6749 50.1286C27.0526 49.952 26.5702 49.843 26.0785 49.756L25.9043 50.7408ZM27.4019 51.0906L27.1408 52.0559L29.5302 52.702L29.7913 51.7367L30.0523 50.7714L27.6629 50.1253L27.4019 51.0906ZM29.7913 51.7367L28.7913 51.7367L28.7913 52.3494L29.7913 52.3494L30.7913 52.3494L30.7913 51.7367L29.7913 51.7367ZM29.7913 52.3494L30.7913 52.3494L30.7913 52.349L29.7913 52.349L28.7913 52.349L28.7913 52.3494L29.7913 52.3494Z" fill="#00B536" mask="url(#path-28-inside-4_599_829)"/>
</svg>
