<svg width="282" height="61" viewBox="0 0 282 61" fill="none" xmlns="http://www.w3.org/2000/svg">
<path d="M45.3614 11.7754C38.3472 11.7754 32.6641 17.3829 32.6641 24.3158C32.6641 31.2486 38.3472 36.8561 45.3614 36.8561C52.3757 36.8561 58.11 31.2486 58.11 24.3158C58.11 17.3829 52.3757 11.7754 45.3614 11.7754ZM45.3614 30.9938C41.6239 30.9938 38.552 27.9861 38.552 24.3158C38.552 20.5944 41.5727 17.5868 45.3614 17.5868C49.099 17.5868 52.1709 20.5944 52.1709 24.3158C52.1709 28.0371 49.099 30.9938 45.3614 30.9938Z" fill="url(#paint0_radial_256_700)"/>
<path d="M25.446 24.3158C25.446 17.3829 19.7629 11.7754 12.7486 11.7754C5.6831 11.7754 0 17.3829 0 24.3158C0 30.2291 4.19833 35.1739 9.77904 36.4993V50.2121H15.6669V36.4993C21.2988 35.1739 25.446 30.2291 25.446 24.3158ZM12.7486 30.9938C9.01105 30.9938 5.9391 27.9861 5.9391 24.2648C5.9391 20.5435 8.95985 17.5868 12.7486 17.5868C16.4861 17.5868 19.5581 20.5944 19.5581 24.2648C19.5069 27.9861 16.4861 30.9938 12.7486 30.9938Z" fill="url(#paint1_radial_256_700)"/>
<path d="M117.348 35.0209L120.676 38.3344L124.824 34.2563L121.496 30.9938C124.568 26.1509 124.004 19.6768 119.704 15.4457C114.737 10.552 106.699 10.552 101.733 15.4457C96.7662 20.3395 96.7662 28.292 101.733 33.1858C105.982 37.3659 112.433 37.9776 117.348 35.0209ZM105.931 19.5749C108.593 16.9751 112.894 16.9751 115.556 19.5749C118.219 22.1747 118.219 26.4568 115.556 29.0566C112.894 31.6565 108.593 31.6565 105.931 29.0566C103.269 26.4568 103.269 22.1747 105.931 19.5749Z" fill="url(#paint2_radial_256_700)"/>
<path d="M90.7741 24.3161C90.7741 18.4027 86.5757 13.4579 80.995 12.1325V0H75.1071V12.1325C69.4752 13.4579 65.3281 18.4027 65.3281 24.3161C65.3281 24.418 65.3281 36.8564 65.3281 36.8564H71.2672V24.367C71.2672 24.367 71.2672 24.367 71.2672 24.3161C71.2672 20.5947 74.288 17.6381 78.0767 17.6381C81.8142 17.6381 84.8862 20.6457 84.8862 24.3161C84.8862 24.3161 84.8862 24.3161 84.8862 24.367V36.8564H90.7741C90.7741 36.8564 90.7741 24.418 90.7741 24.3161Z" fill="url(#paint3_radial_256_700)"/>
<path d="M156.106 24.2646C156.055 17.3827 150.372 11.8262 143.409 11.8262C136.446 11.8262 130.763 17.3827 130.66 24.2646V36.8559H136.599V24.2646C136.651 20.5942 139.671 17.6885 143.409 17.6885C147.146 17.6885 150.116 20.6452 150.218 24.2646V36.8559H156.157L156.106 24.2646Z" fill="url(#paint4_radial_256_700)"/>
<path d="M181.858 35.5819C182.934 35.0211 183.906 34.2565 184.828 33.3899C189.026 29.1588 189.641 22.7357 186.671 17.8928L189.999 14.5793L185.903 10.4502L182.626 13.7637C177.762 10.7051 171.26 11.2658 167.011 15.5479C162.095 20.4927 162.095 28.4961 167.011 33.4408C167.932 34.3584 168.956 35.1231 170.083 35.7348C166.038 37.8249 163.324 42.005 163.324 46.7968C163.324 53.7297 169.007 59.3372 176.022 59.3372C183.036 59.3372 188.77 53.7297 188.77 46.7968C188.77 41.903 185.954 37.6719 181.858 35.5819ZM171.158 19.6261C173.769 16.9753 178.07 16.9753 180.681 19.6261C183.292 22.2769 183.292 26.5589 180.681 29.2098C178.07 31.8606 173.82 31.8606 171.158 29.2098C168.495 26.5589 168.495 22.2769 171.158 19.6261ZM176.022 53.4239C172.284 53.4239 169.212 50.4162 169.212 46.6949C169.212 42.9736 172.233 39.9659 176.022 39.9659C179.759 39.9659 182.831 42.9736 182.831 46.6949C182.831 50.4672 179.81 53.4239 176.022 53.4239Z" fill="url(#paint5_radial_256_700)"/>
<path d="M131.99 50.8242C129.226 50.8242 126.922 52.8633 126.922 55.4122C126.922 57.961 129.174 60.0001 131.99 60.0001C134.755 60.0001 137.059 57.961 137.059 55.4122C137.008 52.8633 134.755 50.8242 131.99 50.8242ZM131.99 57.8591C130.557 57.8591 129.43 56.7376 129.43 55.4122C129.43 54.0358 130.608 52.9653 131.99 52.9653C133.424 52.9653 134.55 54.0868 134.55 55.4122C134.55 56.7885 133.373 57.8591 131.99 57.8591Z" fill="#595757"/>
<path d="M137.369 44.8086V41.75H134.758V49.9573H137.369V47.2046H139.571V44.8086H137.369Z" fill="#595757"/>
<path d="M131.84 42.4641C131.84 42.4641 128.409 42.4641 128.102 42.4641V40.8838H125.491V42.4641C125.235 42.4641 121.805 42.4641 121.805 42.4641V44.6051H123.085C122.573 45.2678 122.317 46.0325 122.317 46.8991C122.317 49.1421 124.313 50.9773 126.822 50.9773C129.28 50.9773 131.328 49.1421 131.328 46.8991C131.328 46.0835 131.072 45.2678 130.56 44.6051H131.84V42.4641ZM126.822 48.8362C125.747 48.8362 124.825 47.9696 124.825 46.8991C124.825 45.8286 125.696 44.962 126.822 44.962C127.897 44.962 128.819 45.8286 128.819 46.8991C128.819 47.9696 127.949 48.8362 126.822 48.8362Z" fill="#595757"/>
<path d="M155.646 41.3418H153.035V58.674H155.646V41.3418Z" fill="#595757"/>
<path d="M146.992 43.8408V42.0566H144.329V43.8408C144.329 50.5697 139.977 52.5069 139.977 52.5069L141.667 54.495C141.667 54.495 144.483 52.7617 145.661 50.06C146.838 52.7617 149.654 54.495 149.654 54.495L151.344 52.5069C151.344 52.5578 146.992 50.5697 146.992 43.8408Z" fill="#595757"/>
<path d="M112.176 55.2079V52.4551H109.565V55.2079C109.156 55.2079 102.602 55.2079 102.602 55.2079V57.6547H119.395V55.2079C119.395 55.2079 112.586 55.2079 112.176 55.2079Z" fill="#595757"/>
<path d="M112.179 51.3851C112.589 51.3851 117.862 51.3851 117.862 51.3851V48.9892C117.862 48.9892 116.019 48.9892 115.661 48.9892V44.5542C116.019 44.5542 117.862 44.5542 117.862 44.5542V42.1582H104.039V44.5542C104.039 44.5542 105.882 44.5542 106.24 44.5542V48.9892C105.882 48.9892 104.039 48.9892 104.039 48.9892V51.3851C104.039 51.3851 109.261 51.3851 109.619 51.3851H112.179ZM108.8 44.5542H113.152V48.9892H108.8V44.5542Z" fill="#595757"/>
<path d="M230.773 17.4229H230.427C230.127 17.2392 229.677 17.0206 229.079 16.7656L227.938 16.9386C225.058 16.9386 223.618 16.9963 223.618 17.1117L223.272 16.9386C220.16 16.9386 216.901 16.8233 213.491 16.5925C212.891 16.7079 212.396 16.7656 212.005 16.7656C210.668 16.1432 210 15.3721 210 14.4492V14.1031C210 13.8268 210.449 13.6082 211.348 13.4458C213.214 13.6537 215.195 13.757 217.292 13.757L218.294 13.9649C218.778 13.9649 219.054 13.2393 219.124 11.7866C218.893 10.9108 218.675 9.58558 218.467 7.81108C218.467 7.16594 218.962 6.7743 219.953 6.63617C221.174 6.63617 221.888 8.27254 222.095 11.5453C222.003 11.8215 221.957 12.6291 221.957 13.9649C222.141 14.0575 224.745 14.1031 229.768 14.1031C231.52 14.1031 232.395 14.8286 232.395 16.2813C232.004 17.0418 231.462 17.4229 230.772 17.4229H230.773ZM212.317 10.129H212.144C211.615 9.85274 211.349 9.35789 211.349 8.64292C211.349 8.27406 212.777 6.71814 215.635 3.97517C216.97 1.7392 217.64 0.576434 217.64 0.483838C218.192 0.39276 218.526 0.345703 218.641 0.345703C219.748 0.345703 220.3 0.784396 220.3 1.65875C220.852 1.54338 221.406 1.4857 221.959 1.4857C222.35 1.4857 223.457 2.31603 225.276 3.97517C227.419 4.89657 228.526 5.566 228.594 5.9804V6.63769C228.594 7.26005 228.318 7.65169 227.764 7.81259C222.787 6.31436 220.299 4.7129 220.299 3.0067C220.068 3.0067 219.561 3.66398 218.778 4.97703C216.681 7.2813 214.7 8.94196 212.833 9.95445C212.833 10.0698 212.66 10.1275 212.314 10.1275L212.317 10.129ZM222.616 30.5594C219.666 30.5594 217.673 29.4528 216.637 27.2411C216.313 26.1815 216.152 25.3178 216.152 24.6484C216.152 22.2743 217.028 20.8686 218.779 20.4315C219.355 20.2007 219.804 20.0854 220.127 20.0854C222.454 20.5696 223.836 21.2375 224.275 22.0906C225.726 24.0503 226.452 25.7094 226.452 27.068C226.452 28.9579 225.173 30.1222 222.616 30.5594ZM221.614 27.5872C222.836 27.5872 223.446 27.0225 223.446 25.8931C222.824 24.3493 221.718 23.5767 220.129 23.5767V23.4037C219.622 23.4037 219.288 24.0731 219.127 25.4089C219.657 26.8616 220.382 27.5872 221.305 27.5872H221.616H221.614Z" fill="#189754"/>
<path d="M239.177 17.1121C237.057 16.3986 235.997 15.2343 235.997 13.6207C235.997 13.3445 235.95 12.9073 235.859 12.3077L235.997 11.3058C235.006 10.5681 234.512 9.85465 234.512 9.16246V8.64331C234.512 8.11354 235.779 7.67485 238.313 7.33027C238.544 7.42287 238.716 7.46841 238.832 7.46841C238.948 7.1466 239.063 6.98417 239.178 6.98417C239.178 5.76221 238.729 5.15199 237.831 5.15199L237.485 5.32503C236.055 5.04876 235.342 4.43854 235.342 3.49285C235.342 2.84771 236.943 2.45607 240.147 2.31794C240.93 2.31794 241.597 2.88262 242.151 4.01199L241.978 4.32317V5.98231C241.978 6.76559 242.473 7.15722 243.464 7.15722C244.247 7.59592 244.639 7.87219 244.639 7.98755V8.47178C244.639 9.50856 243.809 10.1203 242.15 10.304C240.26 10.304 239.316 10.8565 239.316 11.9631C239.316 12.9771 239.593 13.4841 240.147 13.4841C241.667 13.4841 243.936 12.8739 246.956 11.6519H247.302C247.97 11.6519 248.466 11.9753 248.788 12.6204C248.442 14.1885 247.832 14.9717 246.956 14.9717C245.205 16.0085 242.613 16.7235 239.18 17.1151L239.177 17.1121ZM243.152 30.9058C241.262 30.9058 240.318 30.2364 240.318 28.9006C240.065 28.9006 239.904 28.4058 239.834 27.4145C240.156 25.8935 240.318 24.8446 240.318 24.2693C240.318 23.993 240.26 23.1521 240.145 21.7449C240.145 20.1085 240.652 19.2903 241.666 19.2903C243.302 19.9355 244.316 20.2588 244.707 20.2588C245.237 20.2588 245.709 20.2133 246.125 20.1207C247.968 20.1207 249.016 20.7309 249.269 21.9529H249.477C250.029 17.4126 250.744 12.8041 251.62 8.12417C251.828 7.04186 251.931 5.61193 251.931 3.83743C251.608 2.75511 251.447 1.75174 251.447 0.830329C251.723 0.277788 252.172 0 252.794 0C254.338 0 255.11 0.772646 255.11 2.31642V4.32166C255.11 5.75158 254.5 10.4057 253.279 18.2885V22.4371C253.163 23.7744 252.553 24.4423 251.447 24.4423C251.055 24.4423 250.501 24.1539 249.788 23.5786H249.615L249.788 25.7569C249.788 28.9598 248.9 30.5628 247.126 30.5628L243.152 30.9089V30.9058ZM245.64 27.2415C245.962 27.1504 246.125 26.8149 246.125 26.2396V25.2711C246.125 24.2571 245.572 23.7501 244.466 23.7501L243.636 23.9232V26.8969C243.681 27.1276 243.797 27.243 243.982 27.243H245.64V27.2415Z" fill="#189754"/>
<path d="M279.314 29.4202L268.53 28.5899L268.184 28.728L267.043 28.5899C266.696 28.5899 266.305 28.637 265.868 28.728L264.382 28.5899C262.861 28.6825 261.916 28.728 261.547 28.728C260.879 28.5201 260.546 27.922 260.546 26.9308C260.546 25.7088 261.156 25.0986 262.377 25.0986C263.599 25.0986 264.209 24.9255 264.209 24.5794C264.209 23.9343 264.151 23.277 264.036 22.6091C264.151 22.4254 264.209 22.0338 264.209 21.4342H261.893C260.556 21.4342 259.888 20.7663 259.888 19.429C259.888 18.7155 260.338 18.1159 261.236 17.6317C263.103 17.7698 264.151 17.873 264.381 17.9429C264.564 17.8275 264.842 17.7698 265.209 17.7698C265.716 17.7698 266.269 17.8275 266.868 17.9429C267.536 17.782 267.871 16.7331 267.871 14.7976C267.618 14.7976 267.387 14.74 267.181 14.6246C267.088 14.6246 267.043 14.6823 267.043 14.7976C260.614 14.2223 257.4 13.6683 257.4 13.1385L257.227 12.3082C257.227 11.5704 257.387 10.857 257.711 10.1648H259.542L263.206 10.9951C269.818 11.4338 274.357 11.6524 276.824 11.6524C277.399 11.537 277.734 11.4794 277.827 11.4794C279.255 12.0319 279.97 12.5283 279.97 12.9655V13.3115C279.97 14.6489 279.255 15.3168 277.827 15.3168L272.02 14.9707C271.237 15.9619 270.846 16.7923 270.846 17.4602C270.846 17.7835 270.961 17.9444 271.192 17.9444H274.509C275.43 17.9444 276.088 18.67 276.479 20.1227V20.2608C276.294 21.2748 275.581 21.7818 274.336 21.7818C273.553 21.6664 273.115 21.6088 273.023 21.6088L272.85 21.9549C272.85 22.9689 272.908 23.8447 273.023 24.5825C272.908 24.8132 272.85 24.9862 272.85 25.1016C273.219 25.4249 274.153 25.5858 275.65 25.5858C276.295 25.5858 277.678 25.5282 279.798 25.4128C280.927 26.2887 281.492 27.119 281.492 27.9023C280.639 28.9163 279.913 29.4233 279.314 29.4233V29.4202ZM264.557 9.64565C263.934 9.64565 263.485 9.36938 263.209 8.81532V7.81347C263.209 7.03019 264.707 5.80823 267.703 4.14909C268.809 2.44441 269.742 1.56854 270.503 1.52148C271.862 1.52148 272.703 2.68577 273.025 5.01281C274.245 6.07387 274.96 6.90268 275.168 7.50228C275.168 8.81532 274.672 9.4726 273.682 9.4726C273.244 9.4726 272.242 8.75916 270.676 7.32923C270.33 7.0985 269.95 6.98314 269.534 6.98314C267.046 8.75764 265.387 9.64565 264.558 9.64565H264.557ZM269.36 25.0986V24.2682C269.059 22.3784 268.669 21.4342 268.185 21.4342L267.701 24.4413V24.9255L269.36 25.0986Z" fill="#189754"/>
<path d="M233.672 58.8122L233.379 52.4363L233.672 49.7691C233.538 48.4091 233.432 47.048 233.379 45.688L233.565 44.7275C232.125 44.6736 230.711 44.5143 229.325 44.2742L229.164 43.207C229.404 42.6202 229.565 42.0064 229.617 41.3668L229.991 41.2602C231.058 41.5273 232.177 41.6339 233.378 41.553L233.67 40.5129L233.564 40.22C233.697 38.7265 233.777 37.2061 233.724 35.6844L233.67 35.4174C234.097 35.0706 234.551 34.9102 235.057 34.9102L236.284 35.0168L236.765 34.9102L237.512 35.2042L237.591 35.524C237.351 36.4575 237.191 37.445 237.084 38.4852C236.978 39.4984 236.898 40.5656 236.844 41.6596L240.391 42.0603V42.7268L239.458 44.6478L239.005 44.8341L238.151 44.4335C237.671 44.6467 237.138 44.7263 236.577 44.7263L236.364 46.0066L236.471 46.3803L236.364 46.9402L236.471 47.26L236.284 49.7679L236.364 50.035C236.017 51.8495 235.964 53.637 236.178 55.4503C236.178 56.651 235.992 57.7977 235.645 58.8918L234.125 58.9984L233.672 58.8122ZM231.112 53.2376C230.471 53.0244 229.859 52.9447 229.245 52.9447V52.3579L229.911 47.3432L230.364 47.2635C230.924 47.5037 231.591 47.6372 232.338 47.6372L232.791 47.5575L233.192 47.7438V48.0109C232.924 48.8648 232.684 49.7187 232.471 50.6254C232.258 51.532 231.964 52.359 231.565 53.1333L231.112 53.2399V53.2376ZM232.444 48.8882L232.711 48.0073H232.444C232.177 48.3541 232.071 48.7547 232.152 49.2607H232.444V48.8871V48.8882ZM234.605 56.6779L234.312 57.1582H234.605V56.6779ZM235.352 57.4522H235.059L234.953 57.772H235.247L235.353 57.4522H235.352ZM236.659 35.4174H236.366V35.6844H236.659V35.4174ZM237.512 51.5836C237.192 50.4099 237.005 49.2092 236.952 47.9019C237.779 47.9558 238.606 47.875 239.459 47.7414L240.046 51.1033L238.232 51.8764L237.512 51.5836ZM241.62 45.5275C241.194 44.9946 240.714 44.6209 240.153 44.3808L240.046 44.0879C240.793 42.9938 241.353 41.8201 241.779 40.5937C242.18 39.393 242.579 38.1397 242.953 36.8324L243.886 36.5653C244.633 36.939 245.433 37.2588 246.233 37.5258L246.34 38.0061C245.832 39.3403 245.22 40.6206 244.5 41.8471C243.78 43.0735 242.98 44.2742 242.099 45.4221L241.619 45.5287L241.62 45.5275ZM240.393 54.8646L241.913 50.0901C242.42 48.5157 243.086 46.9953 243.886 45.5287L244.26 45.4221C244.873 45.8754 245.567 46.2222 246.34 46.4892L246.526 47.1558C246.099 48.2498 245.645 49.3697 245.166 50.4907C244.686 51.6105 244.26 52.7315 243.886 53.9052L244.659 53.9849L247.459 53.7986L247.645 54.2789L247.353 55.5323C246.286 55.9329 245.192 56.173 244.045 56.2527C242.872 56.3593 241.698 56.4659 240.498 56.5994L240.391 54.8658L240.393 54.8646ZM251.035 56.5982L250.368 55.9048C250.074 54.9443 249.702 54.0107 249.247 53.0771C248.794 52.1435 248.474 51.156 248.207 50.1158L248.474 49.4751C249.168 48.9421 249.968 48.6481 250.848 48.5942C251.595 49.741 252.208 50.9686 252.715 52.2489C253.222 53.5562 253.648 54.8634 253.942 56.1976L253.383 56.8642C252.742 57.0504 252.155 57.3714 251.569 57.7708L251.036 56.5971L251.035 56.5982ZM250.181 45.0473L249.995 44.8341C249.301 43.8736 248.901 42.7795 248.715 41.58C248.554 40.3524 248.474 39.099 248.474 37.7918C248.554 37.3654 248.768 36.9378 249.168 36.5641L251.222 36.4845L251.782 36.7516L251.861 37.445L251.569 39.2595C251.729 40.4063 252.049 41.4734 252.582 42.4339C253.114 43.3945 253.701 44.328 254.315 45.2347C253.488 45.9282 252.607 46.542 251.674 47.0492C251.114 46.4892 250.634 45.8216 250.181 45.0484V45.0473Z" fill="#147653"/>
<path d="M257.917 52.9975C257.224 52.8113 256.637 52.5172 256.184 52.1436L257.998 47.1816L258.451 46.9684C259.225 47.3151 259.971 47.6349 260.718 47.9289V48.3296C260.025 49.7434 259.438 51.2369 258.931 52.8113L257.918 52.9975H257.917ZM274.693 58.9997C273.919 58.9458 273.2 58.7595 272.505 58.4397L272.319 56.3851C272.772 55.2911 273.012 54.0904 273.066 52.8101L272.987 52.4903C273.12 51.2896 273.227 50.0093 273.36 48.729C273.174 48.1421 273.093 47.5014 273.174 46.7822L273.254 44.1676L272.507 44.2742L272.133 44.1676L270.613 44.3808L270.053 44.2742C268.56 44.5144 267.013 44.7006 265.439 44.7545L264.852 44.6479C264.612 45.5546 264.532 46.542 264.585 47.5822L264.852 47.6619C265.359 47.1289 265.786 46.5947 266.078 46.0079L266.372 45.9013L267.6 47.4756L268 48.4362L267.413 49.7973L267.04 49.9039L266.48 49.6907C266.16 48.9703 265.626 48.49 264.853 48.2499C264.613 49.2631 264.48 50.3303 264.4 51.4513C264.346 52.5454 264.214 53.6125 264.027 54.6257L264.106 56.9732L263.839 58.4409L262.426 58.6272C261.919 58.5475 261.492 58.387 261.198 58.12C261.198 56.466 261.278 54.812 261.438 53.1849C261.572 51.5579 261.705 49.9308 261.758 48.2499L261.572 45.6084L261.945 44.7545C260.346 44.8611 258.772 44.7545 257.225 44.4347L257.145 42.0334C257.385 41.7136 257.732 41.5801 258.158 41.6328L261.386 41.846L261.572 41.2322C261.705 39.4716 261.545 37.7379 261.119 36.0031L261.198 35.7091L261.119 35.2558C261.626 35.0426 262.159 34.8294 262.693 34.642C263.146 35.0953 263.68 35.3354 264.319 35.3354L264.213 35.9223C264.639 37.2823 264.853 38.777 264.853 40.3771L264.799 41.8448C266.027 41.8987 267.2 42.1646 268.267 42.6179L268.347 42.9108H268.64V42.297L268.533 42.0299C268.986 41.443 269.573 41.2298 270.266 41.3364L272.427 41.5496L272.774 41.3364L273.174 41.443C273.414 40.9897 273.521 40.4825 273.468 39.8956C273.361 38.8016 273.361 37.7344 273.468 36.6673C273.388 35.9738 273.575 35.387 274.001 34.8528L274.481 34.6396C274.855 34.9864 275.335 35.1199 275.921 35.0403L276.855 34.9337L277.122 35.7068C276.882 36.6134 276.721 37.574 276.696 38.5884C276.669 39.6016 276.562 40.5352 276.376 41.443C277.762 41.47 279.096 41.6035 280.403 41.8436C280.483 42.3508 280.643 42.8569 280.883 43.3114L280.697 43.685L280.244 44.1653H279.764L279.47 44.0587C278.43 44.3258 277.336 44.4851 276.19 44.539C276.029 49.3135 275.789 54.0892 275.442 58.8907L274.695 58.9973L274.693 58.9997ZM262.051 35.9235H261.758V36.7774H262.051V35.9235ZM262.237 39.1249H261.943V39.6051H262.237V39.1249ZM263.091 57.7721L262.984 57.2648L262.611 58.1188L262.984 58.0391L263.091 57.7721ZM267.998 56.3851C267.224 55.8779 266.584 55.318 266.077 54.7312V54.2509C266.718 53.1568 267.278 52.01 267.758 50.8633C268.211 49.6895 268.505 48.4362 268.638 47.075L269.572 46.8618C270.265 47.0223 270.879 47.3151 271.386 47.7685C271.68 48.1421 271.812 48.5955 271.732 49.1027C271.306 50.356 270.879 51.5837 270.479 52.7843C270.079 54.0119 269.386 55.1587 268.452 56.1989L267.999 56.3851H267.998ZM275.146 57.9325L274.773 58.4397H275.04L275.146 57.9325ZM275.146 57.5589H274.852V57.8259H275.146V57.5589ZM279.013 56.4917L278.533 56.0911C278.293 55.1845 278.026 54.2767 277.733 53.37C277.466 52.4891 277.36 51.4759 277.413 50.3818L277.973 47.7673L278.24 47.6607C278.934 47.7942 279.6 47.9278 280.241 48.0344L280.508 48.2476V48.5404L280.347 50.9675C280.347 51.928 280.508 52.8077 280.854 53.6347C281.201 54.4348 281.495 55.2618 281.735 56.0888L281.388 56.6756L279.762 57.4488L279.014 56.4882L279.013 56.4917Z" fill="#147653"/>
<defs>
<radialGradient id="paint0_radial_256_700" cx="0" cy="0" r="1" gradientUnits="userSpaceOnUse" gradientTransform="translate(41.2293 14.5594) scale(13.9445 13.884)">
<stop stop-color="#B6DCE1"/>
<stop offset="0.5" stop-color="#00B2E3"/>
<stop offset="1" stop-color="#005CB9"/>
</radialGradient>
<radialGradient id="paint1_radial_256_700" cx="0" cy="0" r="1" gradientUnits="userSpaceOnUse" gradientTransform="translate(8.59009 16.0449) scale(19.0166 18.9342)">
<stop stop-color="#B6DCE1"/>
<stop offset="0.5" stop-color="#00B2E3"/>
<stop offset="1" stop-color="#005CB9"/>
</radialGradient>
<radialGradient id="paint2_radial_256_700" cx="0" cy="0" r="1" gradientUnits="userSpaceOnUse" gradientTransform="translate(107.057 14.7242) scale(14.7368 14.6728)">
<stop stop-color="#B6DCE1"/>
<stop offset="0.5" stop-color="#00B2E3"/>
<stop offset="1" stop-color="#005CB9"/>
</radialGradient>
<radialGradient id="paint3_radial_256_700" cx="0" cy="0" r="1" gradientUnits="userSpaceOnUse" gradientTransform="translate(73.8935 4.1009) scale(18.3844 18.3047)">
<stop stop-color="#B6DCE1"/>
<stop offset="0.5" stop-color="#00B2E3"/>
<stop offset="1" stop-color="#005CB9"/>
</radialGradient>
<radialGradient id="paint4_radial_256_700" cx="0" cy="0" r="1" gradientUnits="userSpaceOnUse" gradientTransform="translate(139.257 14.6205) scale(13.9165 13.8561)">
<stop stop-color="#B6DCE1"/>
<stop offset="0.5" stop-color="#00B2E3"/>
<stop offset="1" stop-color="#005CB9"/>
</radialGradient>
<radialGradient id="paint5_radial_256_700" cx="0" cy="0" r="1" gradientUnits="userSpaceOnUse" gradientTransform="translate(172.317 15.8442) scale(23.4147 23.3131)">
<stop stop-color="#B6DCE1"/>
<stop offset="0.5" stop-color="#00B2E3"/>
<stop offset="1" stop-color="#005CB9"/>
</radialGradient>
</defs>
</svg>
