<svg width="276" height="60" viewBox="0 0 276 60" fill="none" xmlns="http://www.w3.org/2000/svg">
<path d="M45.3614 11.7756C38.3472 11.7756 32.6641 17.3831 32.6641 24.316C32.6641 31.2488 38.3472 36.8563 45.3614 36.8563C52.3757 36.8563 58.11 31.2488 58.11 24.316C58.11 17.3831 52.3757 11.7756 45.3614 11.7756ZM45.3614 30.994C41.6239 30.994 38.552 27.9863 38.552 24.316C38.552 20.5946 41.5727 17.587 45.3614 17.587C49.099 17.587 52.1709 20.5946 52.1709 24.316C52.1709 28.0373 49.099 30.994 45.3614 30.994Z" fill="url(#paint0_radial_11_28)"/>
<path d="M25.446 24.316C25.446 17.3831 19.7629 11.7756 12.7486 11.7756C5.6831 11.7756 0 17.3831 0 24.316C0 30.2293 4.19833 35.1741 9.77904 36.4995V50.2123H15.6669V36.4995C21.2988 35.1741 25.446 30.2293 25.446 24.316ZM12.7486 30.994C9.01105 30.994 5.9391 27.9863 5.9391 24.265C5.9391 20.5437 8.95985 17.587 12.7486 17.587C16.4861 17.587 19.5581 20.5946 19.5581 24.265C19.5069 27.9863 16.4861 30.994 12.7486 30.994Z" fill="url(#paint1_radial_11_28)"/>
<path d="M117.348 35.0211L120.676 38.3346L124.824 34.2565L121.496 30.994C124.568 26.1511 124.004 19.677 119.704 15.4459C114.737 10.5522 106.699 10.5522 101.733 15.4459C96.7662 20.3397 96.7662 28.2922 101.733 33.186C105.982 37.3661 112.433 37.9778 117.348 35.0211ZM105.931 19.5751C108.593 16.9753 112.894 16.9753 115.556 19.5751C118.219 22.1749 118.219 26.457 115.556 29.0568C112.894 31.6567 108.593 31.6567 105.931 29.0568C103.269 26.457 103.269 22.1749 105.931 19.5751Z" fill="url(#paint2_radial_11_28)"/>
<path d="M90.7761 24.3161C90.7761 18.4027 86.5777 13.4579 80.997 12.1325V0H75.1091V12.1325C69.4772 13.4579 65.3301 18.4027 65.3301 24.3161C65.3301 24.418 65.3301 36.8564 65.3301 36.8564H71.2692V24.367C71.2692 24.367 71.2692 24.367 71.2692 24.3161C71.2692 20.5947 74.29 17.6381 78.0787 17.6381C81.8162 17.6381 84.8882 20.6457 84.8882 24.3161C84.8882 24.3161 84.8882 24.3161 84.8882 24.367V36.8564H90.7761C90.7761 36.8564 90.7761 24.418 90.7761 24.3161Z" fill="url(#paint3_radial_11_28)"/>
<path d="M156.106 24.2651C156.055 17.3832 150.372 11.8267 143.409 11.8267C136.446 11.8267 130.763 17.3832 130.66 24.2651V36.8564H136.599V24.2651C136.651 20.5947 139.671 17.689 143.409 17.689C147.146 17.689 150.116 20.6457 150.218 24.2651V36.8564H156.157L156.106 24.2651Z" fill="url(#paint4_radial_11_28)"/>
<path d="M181.858 35.5819C182.934 35.0211 183.906 34.2565 184.828 33.3899C189.026 29.1588 189.641 22.7357 186.671 17.8928L189.999 14.5793L185.903 10.4502L182.626 13.7637C177.762 10.7051 171.26 11.2658 167.011 15.5479C162.095 20.4927 162.095 28.4961 167.011 33.4408C167.932 34.3584 168.956 35.1231 170.083 35.7348C166.038 37.8249 163.324 42.005 163.324 46.7968C163.324 53.7297 169.007 59.3372 176.022 59.3372C183.036 59.3372 188.77 53.7297 188.77 46.7968C188.77 41.903 185.954 37.6719 181.858 35.5819ZM171.158 19.6261C173.769 16.9753 178.07 16.9753 180.681 19.6261C183.292 22.2769 183.292 26.5589 180.681 29.2098C178.07 31.8606 173.82 31.8606 171.158 29.2098C168.495 26.5589 168.495 22.2769 171.158 19.6261ZM176.022 53.4239C172.284 53.4239 169.212 50.4162 169.212 46.6949C169.212 42.9736 172.233 39.9659 176.022 39.9659C179.759 39.9659 182.831 42.9736 182.831 46.6949C182.831 50.4672 179.81 53.4239 176.022 53.4239Z" fill="url(#paint5_radial_11_28)"/>
<path d="M131.99 50.8242C129.226 50.8242 126.922 52.8633 126.922 55.4122C126.922 57.961 129.174 60.0001 131.99 60.0001C134.755 60.0001 137.059 57.961 137.059 55.4122C137.008 52.8633 134.755 50.8242 131.99 50.8242ZM131.99 57.8591C130.557 57.8591 129.43 56.7376 129.43 55.4122C129.43 54.0358 130.608 52.9653 131.99 52.9653C133.424 52.9653 134.55 54.0868 134.55 55.4122C134.55 56.7885 133.373 57.8591 131.99 57.8591Z" fill="#595757"/>
<path d="M137.367 44.8088V41.7502H134.756V49.9575H137.367V47.2048H139.569V44.8088H137.367Z" fill="#595757"/>
<path d="M131.838 42.4638C131.838 42.4638 128.407 42.4638 128.1 42.4638V40.8835H125.489V42.4638C125.233 42.4638 121.803 42.4638 121.803 42.4638V44.6048H123.083C122.571 45.2675 122.315 46.0322 122.315 46.8988C122.315 49.1418 124.311 50.977 126.82 50.977C129.278 50.977 131.326 49.1418 131.326 46.8988C131.326 46.0832 131.07 45.2675 130.558 44.6048H131.838V42.4638ZM126.82 48.8359C125.745 48.8359 124.823 47.9693 124.823 46.8988C124.823 45.8283 125.694 44.9617 126.82 44.9617C127.895 44.9617 128.817 45.8283 128.817 46.8988C128.817 47.9693 127.947 48.8359 126.82 48.8359Z" fill="#595757"/>
<path d="M155.646 41.3423H153.035V58.6745H155.646V41.3423Z" fill="#595757"/>
<path d="M146.994 43.8404V42.0562H144.331V43.8404C144.331 50.5693 139.979 52.5065 139.979 52.5065L141.669 54.4946C141.669 54.4946 144.485 52.7613 145.663 50.0596C146.84 52.7613 149.656 54.4946 149.656 54.4946L151.346 52.5065C151.346 52.5574 146.994 50.5693 146.994 43.8404Z" fill="#595757"/>
<path d="M112.178 55.2081V52.4553H109.567V55.2081C109.158 55.2081 102.604 55.2081 102.604 55.2081V57.6549H119.397V55.2081C119.397 55.2081 112.588 55.2081 112.178 55.2081Z" fill="#595757"/>
<path d="M112.177 51.3849C112.587 51.3849 117.86 51.3849 117.86 51.3849V48.989C117.86 48.989 116.017 48.989 115.659 48.989V44.554C116.017 44.554 117.86 44.554 117.86 44.554V42.158H104.037V44.554C104.037 44.554 105.88 44.554 106.238 44.554V48.989C105.88 48.989 104.037 48.989 104.037 48.989V51.3849C104.037 51.3849 109.259 51.3849 109.617 51.3849H112.177ZM108.798 44.554H113.15V48.989H108.798V44.554Z" fill="#595757"/>
<path d="M217.496 23C215.648 24.752 211.928 26.048 208.088 26.288V22.952C212.096 22.568 215.384 21.2 215.384 18.128V17.432H219.584V18.128C219.584 21.152 222.776 22.592 226.904 22.952V26.288C223.04 26.048 219.296 24.752 217.496 23ZM227.696 30.56H207.344V27.224H215.384V25.112H219.56V27.224H227.696V30.56ZM208.352 35.864C208.352 34.52 208.952 33.56 210.056 32.84C211.616 31.832 214.208 31.4 217.544 31.4C220.856 31.4 223.448 31.832 225.008 32.84C226.112 33.56 226.736 34.52 226.736 35.864C226.736 37.208 226.112 38.168 225.008 38.888C223.448 39.92 220.856 40.304 217.544 40.304C214.208 40.304 211.616 39.92 210.056 38.888C208.952 38.168 208.352 37.208 208.352 35.864ZM212.456 35.864C212.456 36.176 212.624 36.368 212.888 36.536C213.584 36.968 215.072 37.112 217.544 37.112C219.992 37.112 221.48 36.968 222.176 36.536C222.44 36.368 222.584 36.176 222.584 35.864C222.584 35.576 222.44 35.36 222.176 35.168C221.48 34.784 219.992 34.592 217.544 34.592C215.072 34.592 213.584 34.784 212.888 35.168C212.624 35.36 212.456 35.576 212.456 35.864ZM240.823 30.176H231.079V22.28H238.639V20.72H231.079V17.552H242.719V25.4H235.135V27.032H241.375C243.343 27.032 244.447 26.816 245.287 26.288V17.288H249.487V30.728H245.287V29.288C244.471 29.912 243.079 30.176 240.823 30.176ZM249.487 39.992H232.327V31.592H249.487V39.992ZM245.335 36.8V34.856H236.479V36.8H245.335ZM263.574 23C261.726 24.752 258.006 26.048 254.166 26.288V22.952C258.174 22.568 261.462 21.2 261.462 18.128V17.432H265.662V18.128C265.662 21.152 268.854 22.592 272.982 22.952V26.288C269.118 26.048 265.374 24.752 263.574 23ZM261.486 30.32H253.422V27.008H273.774V30.32H265.662V31.712H272.406V34.856H269.67V35.816C269.67 36.152 269.598 36.56 269.478 36.872H272.742V39.992H254.454V36.872H257.574V34.856H254.79V31.712H261.486V30.32ZM265.566 35.864V34.856H261.63V36.872H265.47C265.542 36.56 265.566 36.176 265.566 35.864Z" fill="#333333"/>
<defs>
<radialGradient id="paint0_radial_11_28" cx="0" cy="0" r="1" gradientUnits="userSpaceOnUse" gradientTransform="translate(41.2293 14.5596) scale(13.9445 13.884)">
<stop stop-color="#B6DCE1"/>
<stop offset="0.5" stop-color="#00B2E3"/>
<stop offset="1" stop-color="#005CB9"/>
</radialGradient>
<radialGradient id="paint1_radial_11_28" cx="0" cy="0" r="1" gradientUnits="userSpaceOnUse" gradientTransform="translate(8.59009 16.0451) scale(19.0166 18.9342)">
<stop stop-color="#B6DCE1"/>
<stop offset="0.5" stop-color="#00B2E3"/>
<stop offset="1" stop-color="#005CB9"/>
</radialGradient>
<radialGradient id="paint2_radial_11_28" cx="0" cy="0" r="1" gradientUnits="userSpaceOnUse" gradientTransform="translate(107.057 14.7244) scale(14.7368 14.6728)">
<stop stop-color="#B6DCE1"/>
<stop offset="0.5" stop-color="#00B2E3"/>
<stop offset="1" stop-color="#005CB9"/>
</radialGradient>
<radialGradient id="paint3_radial_11_28" cx="0" cy="0" r="1" gradientUnits="userSpaceOnUse" gradientTransform="translate(73.8955 4.1009) scale(18.3844 18.3047)">
<stop stop-color="#B6DCE1"/>
<stop offset="0.5" stop-color="#00B2E3"/>
<stop offset="1" stop-color="#005CB9"/>
</radialGradient>
<radialGradient id="paint4_radial_11_28" cx="0" cy="0" r="1" gradientUnits="userSpaceOnUse" gradientTransform="translate(139.257 14.621) scale(13.9165 13.8561)">
<stop stop-color="#B6DCE1"/>
<stop offset="0.5" stop-color="#00B2E3"/>
<stop offset="1" stop-color="#005CB9"/>
</radialGradient>
<radialGradient id="paint5_radial_11_28" cx="0" cy="0" r="1" gradientUnits="userSpaceOnUse" gradientTransform="translate(172.317 15.8442) scale(23.4147 23.3131)">
<stop stop-color="#B6DCE1"/>
<stop offset="0.5" stop-color="#00B2E3"/>
<stop offset="1" stop-color="#005CB9"/>
</radialGradient>
</defs>
</svg>
