<svg width="30" height="30" viewBox="0 0 30 30" fill="none" xmlns="http://www.w3.org/2000/svg">
<path d="M0 5.57143C0 4.70355 0.703553 4 1.57143 4H28.4286C29.2964 4 30 4.70355 30 5.57143C30 6.4393 29.2964 7.14286 28.4286 7.14286H1.57143C0.703551 7.14286 0 6.4393 0 5.57143Z" fill="#00B587"/>
<path d="M6 15.0001C6 14.1323 6.70355 13.4287 7.57143 13.4287H28.4286C29.2964 13.4287 30 14.1323 30 15.0001C30 15.868 29.2964 16.5716 28.4286 16.5716H7.57143C6.70355 16.5716 6 15.868 6 15.0001Z" fill="#00B587"/>
<path d="M0 24.4289C0 23.561 0.703553 22.8574 1.57143 22.8574H28.4286C29.2964 22.8574 30 23.561 30 24.4289C30 25.2967 29.2964 26.0003 28.4286 26.0003H1.57143C0.703551 26.0003 0 25.2967 0 24.4289Z" fill="#00B587"/>
</svg>
