<svg width="54" height="54" viewBox="0 0 54 54" fill="none" xmlns="http://www.w3.org/2000/svg">
<circle cx="27" cy="27" r="27" fill="white"/>
<path d="M36.5859 24.3281L18.243 24.3281V17.1643C18.243 12.1036 22.3518 7.99891 27.4084 7.99891H27.4206C32.4813 7.99891 36.5859 12.1077 36.5859 17.1643V24.3281Z" fill="#C5C525"/>
<path d="M21.1192 29.0684H21.103C16.6322 29.0684 13.0035 25.4396 13.0035 20.9688C13.0035 17.8405 15.5419 15.302 18.6703 15.302H25.0938V25.0939C25.0938 27.2906 23.3119 29.0684 21.1192 29.0684Z" fill="#C5C525"/>
<path d="M33.7208 29.0684H33.7045C31.5118 29.0684 29.73 27.2865 29.73 25.0939V15.302L36.1535 15.302C39.2818 15.302 41.8203 17.8405 41.8203 20.9688C41.8203 25.4396 38.1916 29.0684 33.7208 29.0684Z" fill="#C5C525"/>
<path d="M35.4267 33.8325H35.4185C33.295 33.8325 31.5742 32.1117 31.5742 29.9882V26.0137H35.2965C37.4933 26.0137 39.271 27.7914 39.271 29.9882C39.271 32.1117 37.5502 33.8325 35.4267 33.8325Z" fill="#C5C525"/>
<path d="M19.4071 33.8325H19.399C17.2755 33.8325 15.5547 32.1117 15.5547 29.9882C15.5547 27.7914 17.3324 26.0137 19.5292 26.0137H23.2515V29.9882C23.2515 32.1117 21.5307 33.8325 19.4071 33.8325Z" fill="#C5C525"/>
<path d="M29.2137 27.7949H25.8047V46.6301H29.2137V27.7949Z" fill="#836045"/>
<path d="M27.5095 36.605C27.2654 36.605 27.0254 36.5033 26.8586 36.304C26.5535 35.946 26.5982 35.405 26.9603 35.1039L35.8897 27.5617C36.2477 27.2566 36.7887 27.3014 37.0898 27.6634C37.3949 28.0214 37.3501 28.5625 36.9881 28.8635L28.0587 36.4057C27.9 36.5399 27.7048 36.6091 27.5095 36.6091V36.605Z" fill="#836045"/>
<path d="M27.5057 30.0445C27.2332 30.0445 26.9688 29.9143 26.802 29.6743L19.1947 18.658C18.9262 18.2715 19.0238 17.7386 19.4103 17.4701C19.7968 17.2016 20.3297 17.2992 20.5982 17.6857L28.2095 28.7061C28.478 29.0925 28.3804 29.6255 27.9939 29.894C27.8475 29.9957 27.6766 30.0445 27.5098 30.0445H27.5057Z" fill="#836045"/>
<path d="M22.5702 22.4935C22.4034 22.4935 22.2325 22.4447 22.0861 22.343C21.6996 22.0745 21.602 21.5457 21.8705 21.1551L24.1893 17.799C24.4578 17.4125 24.9866 17.3149 25.3771 17.5834C25.7636 17.8519 25.8612 18.3807 25.5928 18.7712L23.274 22.1274C23.1072 22.3674 22.8427 22.4976 22.5702 22.4976V22.4935Z" fill="#836045"/>
<path d="M27.7733 30.0445C27.6065 30.0445 27.4357 29.9957 27.2892 29.894C26.9027 29.6255 26.8051 29.0966 27.0736 28.7061L34.6849 17.6857C34.9534 17.2992 35.4823 17.2016 35.8728 17.4701C36.2593 17.7386 36.3569 18.2674 36.0884 18.658L28.4771 29.6783C28.3103 29.9184 28.0459 30.0485 27.7733 30.0485V30.0445Z" fill="#836045"/>
<path d="M32.6362 22.3975C32.3637 22.3975 32.0993 22.2673 31.9325 22.0273L27.6244 15.7869C27.3559 15.4004 27.4535 14.8675 27.84 14.599C28.2265 14.3305 28.7594 14.4281 29.0279 14.8146L33.3359 21.055C33.6044 21.4415 33.5068 21.9744 33.1203 22.2429C32.9739 22.3446 32.803 22.3934 32.6362 22.3934V22.3975Z" fill="#836045"/>
<path d="M27.3406 37.9815C27.1209 37.9815 26.9053 37.9001 26.7385 37.7333L19.8635 30.8664C19.5299 30.5329 19.5299 29.9918 19.8635 29.6623C20.197 29.3287 20.7381 29.3287 21.0676 29.6623L27.9426 36.5292C28.2762 36.8628 28.2762 37.4038 27.9426 37.7333C27.7759 37.9001 27.5562 37.9856 27.3406 37.9856V37.9815Z" fill="#836045"/>
<path d="M16.5321 22.6162C16.2514 22.6162 16.0195 22.3884 16.0195 22.1037V20.452C16.0195 20.1713 16.2473 19.9395 16.5321 19.9395C16.8169 19.9395 17.0447 20.1673 17.0447 20.452V22.1037C17.0447 22.3844 16.8169 22.6162 16.5321 22.6162Z" fill="#A4A40E"/>
<path d="M26.6299 13.1454C26.3492 13.1454 26.1173 12.9176 26.1173 12.6328V11.7094C26.1051 11.6158 26.097 11.5182 26.0848 11.4246C26.0766 11.327 26.0644 11.2334 26.0522 11.1358C26.0116 10.8551 26.2068 10.5988 26.4875 10.5581C26.7682 10.5174 27.0245 10.7127 27.0652 10.9934C27.0815 11.1032 27.0937 11.2131 27.1018 11.3229C27.1099 11.4165 27.1221 11.51 27.1343 11.6036V11.6768L27.1384 12.6369C27.1384 12.9176 26.9106 13.1495 26.6258 13.1495L26.6299 13.1454Z" fill="#A4A40E"/>
<path d="M22.9774 16.3589C22.6967 16.3589 22.4648 16.1311 22.4648 15.8464V14.2802C22.4648 13.9995 22.6927 13.7676 22.9774 13.7676C23.2622 13.7676 23.49 13.9954 23.49 14.2802V15.8464C23.49 16.1271 23.2622 16.3589 22.9774 16.3589Z" fill="#A4A40E"/>
<path d="M32.6376 15.9284C32.3569 15.9284 32.125 15.7006 32.125 15.4158V13.1621H32.723C33.0037 13.1621 33.2356 13.3899 33.2356 13.6747C33.2356 13.7805 33.203 13.8781 33.1502 13.9595V15.4158C33.1502 15.6965 32.9223 15.9284 32.6376 15.9284Z" fill="#A4A40E"/>
<path d="M37.5087 23.5068C37.228 23.5068 36.9961 23.279 36.9961 22.9942V21.1473C36.9961 20.8666 37.2239 20.6348 37.5087 20.6348C37.7934 20.6348 38.0212 20.8626 38.0212 21.1473V22.9942C38.0212 23.2749 37.7934 23.5068 37.5087 23.5068Z" fill="#A4A40E"/>
<path d="M20.6259 28.5261C20.3452 28.5261 20.1133 28.2983 20.1133 28.0136V25.9266C20.1133 25.6459 20.3411 25.4141 20.6259 25.4141C20.9106 25.4141 21.1384 25.6419 21.1384 25.9266V28.0136C21.1384 28.2943 20.9106 28.5261 20.6259 28.5261Z" fill="#A4A40E"/>
</svg>
