<svg width="54" height="54" viewBox="0 0 54 54" fill="none" xmlns="http://www.w3.org/2000/svg">
<circle cx="27" cy="27" r="27" fill="white"/>
<path d="M16.6172 27.8449H36.5191C39.9989 27.8449 42.6407 24.7108 42.0545 21.2835C41.6111 18.6868 39.3601 16.7891 36.7295 16.7891H16.4067C13.7724 16.7891 11.5252 18.6868 11.0817 21.2835C10.4955 24.7145 13.1373 27.8449 16.6172 27.8449Z" fill="#38BA27"/>
<path d="M26.567 7C20.5844 7 15.7329 11.8515 15.7329 17.8341L13.7224 27.9617C13.1324 30.938 15.4097 33.7113 18.4423 33.7113C21.49 33.7113 23.9627 31.2386 23.9627 28.1909H29.175C29.175 31.2386 31.6477 33.7113 34.6954 33.7113C37.728 33.7113 40.0053 30.938 39.4153 27.9617L37.4048 17.8341C37.4048 11.8515 32.5533 7 26.5707 7L26.567 7Z" fill="#38BA27"/>
<path d="M28.2077 22.002H25.0586V46.2443H28.2077V22.002Z" fill="#836045"/>
<path d="M26.6332 40.3034C25.7613 40.3034 25.0586 39.5969 25.0586 38.7288V22.0023C25.0586 21.1305 25.7651 20.4277 26.6332 20.4277C27.5012 20.4277 28.2077 21.1342 28.2077 22.0023V38.7288C28.2077 39.6006 27.5012 40.3034 26.6332 40.3034Z" fill="#836045"/>
<path d="M26.7853 38.5674C26.3493 38.5674 25.9961 38.2141 25.9961 37.7782C25.9961 37.3423 26.3493 36.989 26.7853 36.989C32.0839 36.989 34.6581 34.8245 34.6581 30.3751C34.6581 29.9392 35.0113 29.5859 35.4473 29.5859C35.8832 29.5859 36.2364 29.9392 36.2364 30.3751C36.2364 34.1105 34.598 38.5636 26.789 38.5636L26.7853 38.5674Z" fill="#836045"/>
<path d="M26.7032 33.861C26.2673 33.861 25.9141 33.5077 25.9141 33.0718C25.9141 32.6359 26.2673 32.2827 26.7032 32.2827C30.634 32.2827 30.7956 29.5394 30.7956 19.0548C30.7956 18.6189 31.1488 18.2656 31.5848 18.2656C32.0207 18.2656 32.3739 18.6189 32.3739 19.0548C32.3739 29.22 32.3739 33.861 26.707 33.861H26.7032Z" fill="#836045"/>
<path d="M26.8701 33.8617C21.2031 33.8617 21.2031 28.1196 21.2031 25.3575C21.2031 24.9216 21.5564 24.5684 21.9923 24.5684C22.4282 24.5684 22.7815 24.9216 22.7815 25.3575C22.7815 28.8637 23.0971 32.2834 26.8738 32.2834C27.3097 32.2834 27.663 32.6366 27.663 33.0725C27.663 33.5085 27.3097 33.8617 26.8738 33.8617H26.8701Z" fill="#836045"/>
<path d="M25.7208 38.5677C21.4105 38.5677 16.2734 36.2716 16.2734 25.336C16.2734 24.9001 16.6267 24.5469 17.0626 24.5469C17.4985 24.5469 17.8518 24.9001 17.8518 25.336C17.8518 33.0698 20.5011 36.9894 25.7246 36.9894C26.1605 36.9894 26.5138 37.3426 26.5138 37.7785C26.5138 38.2144 26.1605 38.5677 25.7246 38.5677H25.7208Z" fill="#836045"/>
<path d="M31.0946 14.8033C30.8353 14.8033 30.6211 14.5928 30.6211 14.3298V12.1727C30.6211 11.9134 30.8315 11.6992 31.0946 11.6992C31.3576 11.6992 31.5681 11.9097 31.5681 12.1727V14.3298C31.5681 14.5891 31.3576 14.8033 31.0946 14.8033Z" fill="#239315"/>
<path d="M26.0087 18.3499C25.7494 18.3499 25.5352 18.1394 25.5352 17.8764V15.911C25.5352 15.6517 25.7456 15.4375 26.0087 15.4375C26.2717 15.4375 26.4822 15.6479 26.4822 15.911V17.8764C26.4822 18.1357 26.2717 18.3499 26.0087 18.3499Z" fill="#239315"/>
<path d="M20.0674 14.8105C20.0674 14.8105 20.0562 14.8105 20.0524 14.8105C19.7931 14.803 19.5864 14.5851 19.5939 14.322L19.6428 12.7399C19.6503 12.4806 19.8758 12.2739 20.1276 12.2814C20.3869 12.289 20.5936 12.5069 20.586 12.77L20.5372 14.3521C20.5297 14.6076 20.3192 14.8105 20.0637 14.8105H20.0674Z" fill="#239315"/>
<path d="M20.4032 22.9006C20.1439 22.9006 19.9297 22.6901 19.9297 22.4271V20.3602C19.9297 20.1009 20.1401 19.8867 20.4032 19.8867C20.6662 19.8867 20.8767 20.0972 20.8767 20.3602V22.4271C20.8767 22.6864 20.6662 22.9006 20.4032 22.9006Z" fill="#239315"/>
<path d="M36.7313 23.8086C36.472 23.8086 36.2578 23.5982 36.2578 23.3351V21.6102C36.2578 21.3509 36.4683 21.1367 36.7313 21.1367C36.9944 21.1367 37.2048 21.3472 37.2048 21.6102V23.3351C37.2048 23.5944 36.9944 23.8086 36.7313 23.8086Z" fill="#239315"/>
<path d="M14.5477 23.7799C14.2884 23.7799 14.0742 23.5695 14.0742 23.3064V21.5477C14.0742 21.2884 14.2847 21.0742 14.5477 21.0742C14.8108 21.0742 15.0212 21.2847 15.0212 21.5477V23.3064C15.0212 23.5657 14.8108 23.7799 14.5477 23.7799Z" fill="#239315"/>
</svg>
