<svg width="16" height="16" viewBox="0 0 16 16" fill="none" xmlns="http://www.w3.org/2000/svg">
<path d="M4.93555 6.47656V15.1112" stroke="white" stroke-linecap="round" stroke-linejoin="round"/>
<path d="M7.85845 10.0914C7.85845 11.6366 6.5464 12.8903 4.92922 12.8903C3.31205 12.8903 2 11.6366 2 10.0914C2 8.54622 3.31713 4.00781 4.93431 4.00781C6.55149 4.00781 7.86353 8.55108 7.86353 10.0963L7.85845 10.0914Z" fill="#FF8282" stroke="white" stroke-linecap="round" stroke-linejoin="round"/>
<path d="M12.0645 6.47656V15.1112" stroke="white" stroke-linecap="round" stroke-linejoin="round"/>
<path d="M9.1416 10.0904C9.1416 11.6356 10.4537 12.8893 12.0708 12.8893C13.688 12.8893 15 11.6356 15 10.0904C15 8.54522 13.688 4.00195 12.0708 4.00195C10.4537 4.00195 9.1416 8.54522 9.1416 10.0904Z" fill="#FF8282" stroke="white" stroke-linecap="round" stroke-linejoin="round"/>
<path d="M2.87939 15.1113H14.1183" stroke="white" stroke-linecap="round" stroke-linejoin="round"/>
<path d="M12.2167 8.73571C12.2167 10.6988 10.5537 12.2877 8.49921 12.2877C6.44468 12.2877 4.78174 10.6988 4.78174 8.73571C4.78174 6.77263 6.44468 1 8.49921 1C10.5537 1 12.2167 6.77263 12.2167 8.73571Z" fill="#FF8282" stroke="white" stroke-linecap="round" stroke-linejoin="round"/>
<path d="M8.5 4.13867V15.1106" stroke="white" stroke-linecap="round" stroke-linejoin="round"/>
<path d="M9.86204 5.40234L8.49913 6.70459L7.13623 5.40234" stroke="white" stroke-linecap="round" stroke-linejoin="round"/>
<path d="M10.2344 7.82617L8.50026 9.48313L6.76611 7.82617" stroke="white" stroke-linecap="round" stroke-linejoin="round"/>
</svg>
