<svg width="54" height="54" viewBox="0 0 54 54" fill="none" xmlns="http://www.w3.org/2000/svg">
<circle cx="27" cy="27" r="27" fill="white"/>
<path d="M29.2425 24.1719H26.0625V47.0342H29.2425V24.1719Z" fill="#836045"/>
<path d="M30.9533 36.7422H27.7998C27.3602 36.7422 27.0039 36.386 27.0039 35.9463C27.0039 35.5066 27.3602 35.1504 27.7998 35.1504H30.9533C31.8932 35.1504 32.7763 34.7827 33.4396 34.1194C34.1029 33.4561 34.4706 32.573 34.4706 31.6331V28.4834C34.4706 28.0438 34.823 27.6875 35.2627 27.6875C35.7024 27.6875 36.0586 28.0438 36.0586 28.4834V31.6331C36.0586 32.9975 35.5318 34.2786 34.5653 35.2451C33.6026 36.2116 32.3177 36.7422 30.9533 36.7422Z" fill="#836045"/>
<path d="M26.5557 34.836H24.2816C22.5116 34.836 20.8477 34.1462 19.597 32.8954C18.3462 31.6447 17.6564 29.9808 17.6602 28.2108V26.5772C17.6602 26.1375 18.0164 25.7812 18.4561 25.7812C18.8958 25.7812 19.252 26.1375 19.252 26.5772V28.2108C19.252 29.5563 19.7751 30.8184 20.7226 31.7697C21.674 32.7211 22.9361 33.2441 24.2816 33.2441H26.5557C26.9954 33.2441 27.3517 33.6004 27.3517 34.04C27.3517 34.4797 26.9954 34.836 26.5557 34.836Z" fill="#836045"/>
<path d="M27.5041 7.57812C31.7908 7.57812 35.2702 11.0575 35.2702 15.348V27.3439C35.2702 30.2358 32.9241 32.5819 30.0322 32.5819H24.9685C22.0766 32.5819 19.7305 30.2358 19.7305 27.3439V15.348C19.7343 11.0575 23.2136 7.57812 27.5041 7.57812Z" fill="#27BA7F"/>
<path d="M15 25.0769V24.3151C15 18.7436 19.5217 14.2219 25.0932 14.2219L29.9068 14.2219C35.4783 14.2219 40 18.7436 40 24.3151V25.0769C40 27.6581 37.904 29.7578 35.3191 29.7578H19.6809C17.0998 29.7578 15 27.6618 15 25.0769Z" fill="#27BA7F"/>
<path d="M36.0088 24.9176C35.7473 24.9176 35.5312 24.7054 35.5312 24.4401V22.8975C35.5312 22.636 35.7435 22.4199 36.0088 22.4199C36.2741 22.4199 36.4864 22.6322 36.4864 22.8975V24.4401C36.4864 24.7016 36.2741 24.9176 36.0088 24.9176Z" fill="#108F5C"/>
<path d="M18.9932 24.6466C18.7317 24.6466 18.5156 24.4344 18.5156 24.1691V22.2588C18.5156 21.9973 18.7279 21.7812 18.9932 21.7812C19.2585 21.7812 19.4707 21.9935 19.4707 22.2588V24.1691C19.4707 24.4306 19.2585 24.6466 18.9932 24.6466Z" fill="#108F5C"/>
<path d="M24.7276 27.056C24.466 27.056 24.25 26.8437 24.25 26.5784V25.0889C24.25 24.8274 24.4622 24.6113 24.7276 24.6113C24.9929 24.6113 25.2051 24.8236 25.2051 25.0889V26.5784C25.2051 26.84 24.9929 27.056 24.7276 27.056Z" fill="#108F5C"/>
<path d="M30.333 27.3403C30.0715 27.3403 29.8555 27.128 29.8555 26.8627V25.0889C29.8555 24.8274 30.0677 24.6113 30.333 24.6113C30.5983 24.6113 30.8106 24.8236 30.8106 25.0889V26.8627C30.8106 27.1242 30.5983 27.3403 30.333 27.3403Z" fill="#108F5C"/>
<path d="M31.9932 20.0694C31.7317 20.0694 31.5156 19.8571 31.5156 19.5918V17.583C31.5156 17.3215 31.7279 17.1055 31.9932 17.1055C32.2585 17.1055 32.4707 17.3177 32.4707 17.583V19.5918C32.4707 19.8533 32.2585 20.0694 31.9932 20.0694Z" fill="#108F5C"/>
<path d="M23.0127 19.8354C22.7512 19.8354 22.5352 19.6232 22.5352 19.3579V17.1709C22.5352 16.9094 22.7474 16.6934 23.0127 16.6934C23.278 16.6934 23.4903 16.9056 23.4903 17.1709V19.3579C23.4903 19.6194 23.278 19.8354 23.0127 19.8354Z" fill="#108F5C"/>
<path d="M27.2666 17.6472C27.0051 17.6472 26.7891 17.435 26.7891 17.1696V15.2783C26.7891 15.0168 27.0013 14.8008 27.2666 14.8008C27.5319 14.8008 27.7442 15.013 27.7442 15.2783V17.1696C27.7442 17.4312 27.5319 17.6472 27.2666 17.6472Z" fill="#108F5C"/>
<path d="M30.044 12.9817C29.7824 12.9817 29.5664 12.7695 29.5664 12.5042V11.2041C29.5664 10.9426 29.7787 10.7266 30.044 10.7266C30.3093 10.7266 30.5215 10.9388 30.5215 11.2041V12.5042C30.5215 12.7657 30.3093 12.9817 30.044 12.9817Z" fill="#108F5C"/>
<path d="M24.4307 13.2177C24.1692 13.2177 23.9531 13.0055 23.9531 12.7402V11.5576C23.9531 11.2961 24.1654 11.0801 24.4307 11.0801C24.696 11.0801 24.9082 11.2923 24.9082 11.5576V12.7402C24.9082 13.0017 24.696 13.2177 24.4307 13.2177Z" fill="#108F5C"/>
</svg>
