<svg width="54" height="54" viewBox="0 0 54 54" fill="none" xmlns="http://www.w3.org/2000/svg">
<circle cx="27" cy="27" r="27" fill="white"/>
<path d="M36.9526 39.0769C41.5249 38.2981 44.6337 33.7512 43.8965 28.9212C43.1592 24.0912 38.855 20.8071 34.2827 21.5859C29.7105 22.3647 26.6016 26.9116 27.3388 31.7416C28.0761 36.5716 32.3803 39.8557 36.9526 39.0769Z" fill="#90BA27"/>
<path d="M25.3162 36.5959C28.591 33.1365 28.591 27.5276 25.3162 24.0681C22.0414 20.6087 16.7318 20.6087 13.457 24.0681C10.1821 27.5276 10.1821 33.1365 13.457 36.5959C16.7318 40.0554 22.0414 40.0554 25.3162 36.5959Z" fill="#90BA27"/>
<path d="M27.4969 30.9613C33.4991 30.9613 38.3649 25.8212 38.3649 19.4806C38.3649 13.1401 33.4991 8 27.4969 8C21.4947 8 16.6289 13.1401 16.6289 19.4806C16.6289 25.8212 21.4947 30.9613 27.4969 30.9613Z" fill="#90BA27"/>
<path d="M29.3705 25.0488H25.9492V46.0004H29.3705V25.0488Z" fill="#836045"/>
<path d="M27.6598 34.8695C26.7127 34.8695 25.9492 34.0587 25.9492 33.0624V25.0492C25.9492 24.0487 26.7168 23.2422 27.6598 23.2422C28.6029 23.2422 29.3705 24.053 29.3705 25.0492V33.0624C29.3705 34.063 28.6029 34.8695 27.6598 34.8695Z" fill="#836045"/>
<path d="M27.6608 36.8824C27.4648 36.8824 27.2688 36.8134 27.1096 36.6668L18.585 29.0504C18.2258 28.7269 18.1768 28.1577 18.483 27.7781C18.7892 27.3986 19.3281 27.3512 19.6874 27.6703L28.2119 35.2867C28.5712 35.6102 28.6202 36.1794 28.314 36.559C28.1466 36.7703 27.9016 36.8781 27.6608 36.8781V36.8824Z" fill="#836045"/>
<path d="M27.8241 39.3593C27.6036 39.3593 27.3872 39.273 27.2198 39.0962C26.8851 38.7426 26.8851 38.169 27.2198 37.8196L35.2586 29.3277C35.5933 28.9741 36.1363 28.9741 36.467 29.3277C36.8018 29.6814 36.8018 30.255 36.467 30.6043L28.4283 39.0962C28.2609 39.273 28.0404 39.3593 27.8241 39.3593Z" fill="#836045"/>
<path d="M32.366 20.474C32.0843 20.474 31.8516 20.2325 31.8516 19.9306V18.102C31.8516 17.8044 32.0802 17.5586 32.366 17.5586C32.6518 17.5586 32.8804 17.8001 32.8804 18.102V19.9306C32.8804 20.2282 32.6518 20.474 32.366 20.474Z" fill="#A1D431"/>
<path d="M27.2293 15.6807C26.9476 15.6807 26.7148 15.4392 26.7148 15.1373V13.6235C26.7148 13.3259 26.9435 13.0801 27.2293 13.0801C27.515 13.0801 27.7437 13.3216 27.7437 13.6235V15.1373C27.7437 15.4349 27.515 15.6807 27.2293 15.6807Z" fill="#A1D431"/>
<path d="M23.3972 20.9341C23.1155 20.9341 22.8828 20.6925 22.8828 20.3906V19.2348C22.8828 18.9372 23.1114 18.6914 23.3972 18.6914C23.683 18.6914 23.9116 18.9329 23.9116 19.2348V20.3906C23.9116 20.6882 23.683 20.9341 23.3972 20.9341Z" fill="#A1D431"/>
<path d="M39.1824 30.3907C38.9007 30.3907 38.668 30.1492 38.668 29.8473V28.3637C38.668 28.0661 38.8966 27.8203 39.1824 27.8203C39.4682 27.8203 39.6968 28.0618 39.6968 28.3637V29.8473C39.6968 30.1449 39.4682 30.3907 39.1824 30.3907Z" fill="#A1D431"/>
<path d="M15.4988 30.3907C15.2171 30.3907 14.9844 30.1492 14.9844 29.8473V28.3637C14.9844 28.0661 15.213 27.8203 15.4988 27.8203C15.7846 27.8203 16.0132 28.0618 16.0132 28.3637V29.8473C16.0132 30.1449 15.7846 30.3907 15.4988 30.3907Z" fill="#A1D431"/>
</svg>
